<ttFont>
    <TTGlyph name="A" xMin="18" yMin="-64" xMax="860" yMax="773">
      <contour>
        <pt x="664" y="445" on="1"/>
        <pt x="687" y="445" on="0"/>
        <pt x="687" y="416" on="1"/>
        <pt x="687" y="385" on="0"/>
        <pt x="662" y="358" on="1"/>
        <pt x="618" y="309" on="0"/>
        <pt x="581" y="235" on="1"/>
        <pt x="525" y="123" on="0"/>
        <pt x="525" y="33" on="1"/>
        <pt x="525" y="-2" on="0"/>
        <pt x="550" y="-34" on="0"/>
        <pt x="566" y="-34" on="1"/>
        <pt x="614" y="-34" on="0"/>
        <pt x="678" y="44" on="1"/>
        <pt x="735" y="117" on="0"/>
        <pt x="765" y="186" on="1"/>
        <pt x="773" y="202" on="0"/>
        <pt x="789" y="198" on="0"/>
        <pt x="782" y="182" on="1"/>
        <pt x="741" y="91" on="0"/>
        <pt x="689" y="22" on="1"/>
        <pt x="662" y="-15" on="0"/>
        <pt x="582" y="-64" on="0"/>
        <pt x="503" y="-64" on="0"/>
        <pt x="463" y="-1" on="0"/>
        <pt x="463" y="85" on="0"/>
        <pt x="484" y="169" on="0"/>
        <pt x="501" y="192" on="1"/>
        <pt x="400" y="71" on="0"/>
        <pt x="286" y="-2" on="1"/>
        <pt x="226" y="-39" on="0"/>
        <pt x="153" y="-46" on="1"/>
        <pt x="146" y="-47" on="0"/>
        <pt x="113" y="-47" on="0"/>
        <pt x="90" y="-35" on="1"/>
        <pt x="18" y="-5" on="0"/>
        <pt x="18" y="228" on="0"/>
        <pt x="94" y="364" on="1"/>
        <pt x="134" y="436" on="0"/>
        <pt x="182" y="491" on="1"/>
        <pt x="115" y="523" on="0"/>
        <pt x="82" y="560" on="1"/>
        <pt x="58" y="587" on="0"/>
        <pt x="58" y="663" on="0"/>
        <pt x="73" y="673" on="1"/>
        <pt x="83" y="686" on="0"/>
        <pt x="91" y="678" on="1"/>
        <pt x="97" y="669" on="0"/>
        <pt x="86" y="643" on="0"/>
        <pt x="86" y="631" on="1"/>
        <pt x="86" y="604" on="0"/>
        <pt x="144" y="538" on="0"/>
        <pt x="200" y="512" on="1"/>
        <pt x="435" y="773" on="0"/>
        <pt x="688" y="773" on="1"/>
        <pt x="767" y="773" on="0"/>
        <pt x="860" y="702" on="0"/>
        <pt x="860" y="646" on="1"/>
        <pt x="860" y="585" on="0"/>
        <pt x="792" y="528" on="1"/>
        <pt x="758" y="498" on="0"/>
        <pt x="695" y="476" on="1"/>
        <pt x="599" y="442" on="0"/>
        <pt x="334" y="442" on="0"/>
        <pt x="247" y="470" on="1"/>
        <pt x="146" y="327" on="0"/>
        <pt x="70" y="138" on="0"/>
        <pt x="70" y="86" on="1"/>
        <pt x="70" y="75" on="0"/>
        <pt x="71" y="66" on="1"/>
        <pt x="83" y="-17" on="0"/>
        <pt x="155" y="-17" on="1"/>
        <pt x="236" y="-17" on="0"/>
        <pt x="343" y="71" on="1"/>
        <pt x="419" y="135" on="0"/>
        <pt x="565" y="311" on="0"/>
        <pt x="636" y="445" on="0"/>
      </contour>
      <contour>
        <pt x="819" y="658" on="1"/>
        <pt x="819" y="701" on="0"/>
        <pt x="748" y="747" on="0"/>
        <pt x="624" y="747" on="0"/>
        <pt x="501" y="707" on="0"/>
        <pt x="394" y="629" on="0"/>
        <pt x="311" y="547" on="0"/>
        <pt x="263" y="490" on="1"/>
        <pt x="338" y="466" on="0"/>
        <pt x="447" y="466" on="1"/>
        <pt x="652" y="466" on="0"/>
        <pt x="746" y="532" on="1"/>
        <pt x="819" y="583" on="0"/>
      </contour>
    </TTGlyph>
    <TTGlyph name="AE" xMin="18" yMin="-114" xMax="1352" yMax="805">
      <contour>
        <pt x="966" y="346" on="1"/>
        <pt x="852" y="347" on="1"/>
        <pt x="711" y="347" on="0"/>
        <pt x="638" y="278" on="1"/>
        <pt x="560" y="207" on="0"/>
        <pt x="560" y="112" on="1"/>
        <pt x="560" y="-11" on="0"/>
        <pt x="678" y="-63" on="1"/>
        <pt x="739" y="-90" on="0"/>
        <pt x="942" y="-90" on="0"/>
        <pt x="1170" y="-4" on="0"/>
        <pt x="1241" y="55" on="1"/>
        <pt x="1318" y="121" on="0"/>
        <pt x="1318" y="171" on="1"/>
        <pt x="1318" y="198" on="0"/>
        <pt x="1260" y="212" on="0"/>
        <pt x="1258" y="220" on="1"/>
        <pt x="1257" y="227" on="0"/>
        <pt x="1282" y="227" on="0"/>
        <pt x="1297" y="219" on="1"/>
        <pt x="1352" y="192" on="0"/>
        <pt x="1352" y="147" on="1"/>
        <pt x="1352" y="90" on="0"/>
        <pt x="1277" y="26" on="1"/>
        <pt x="1202" y="-37" on="0"/>
        <pt x="956" y="-114" on="0"/>
        <pt x="825" y="-114" on="1"/>
        <pt x="634" y="-114" on="0"/>
        <pt x="537" y="-17" on="1"/>
        <pt x="482" y="38" on="0"/>
        <pt x="482" y="125" on="1"/>
        <pt x="482" y="156" on="0"/>
        <pt x="495" y="186" on="1"/>
        <pt x="460" y="144" on="0"/>
        <pt x="373" y="60" on="0"/>
        <pt x="316" y="17" on="0"/>
        <pt x="282" y="-4" on="1"/>
        <pt x="223" y="-41" on="0"/>
        <pt x="152" y="-47" on="1"/>
        <pt x="146" y="-48" on="0"/>
        <pt x="113" y="-48" on="0"/>
        <pt x="90" y="-35" on="1"/>
        <pt x="18" y="-5" on="0"/>
        <pt x="18" y="228" on="0"/>
        <pt x="94" y="364" on="1"/>
        <pt x="134" y="436" on="0"/>
        <pt x="182" y="491" on="1"/>
        <pt x="115" y="523" on="0"/>
        <pt x="82" y="560" on="1"/>
        <pt x="58" y="587" on="0"/>
        <pt x="58" y="663" on="0"/>
        <pt x="73" y="673" on="1"/>
        <pt x="83" y="686" on="0"/>
        <pt x="91" y="678" on="1"/>
        <pt x="97" y="669" on="0"/>
        <pt x="86" y="643" on="0"/>
        <pt x="86" y="631" on="1"/>
        <pt x="86" y="604" on="0"/>
        <pt x="144" y="538" on="0"/>
        <pt x="200" y="512" on="1"/>
        <pt x="435" y="773" on="0"/>
        <pt x="688" y="773" on="1"/>
        <pt x="783" y="773" on="0"/>
        <pt x="830" y="723" on="1"/>
        <pt x="905" y="767" on="0"/>
        <pt x="1067" y="804" on="0"/>
        <pt x="1106" y="804" on="1"/>
        <pt x="1240" y="804" on="0"/>
        <pt x="1300" y="756" on="1"/>
        <pt x="1340" y="722" on="0"/>
        <pt x="1340" y="684" on="1"/>
        <pt x="1340" y="638" on="0"/>
        <pt x="1242" y="553" on="0"/>
        <pt x="1165" y="536" on="1"/>
        <pt x="1146" y="532" on="0"/>
        <pt x="1122" y="532" on="0"/>
        <pt x="1122" y="539" on="1"/>
        <pt x="1122" y="551" on="0"/>
        <pt x="1197" y="559" on="0"/>
        <pt x="1261" y="624" on="0"/>
        <pt x="1273" y="662" on="1"/>
        <pt x="1277" y="674" on="0"/>
        <pt x="1277" y="712" on="0"/>
        <pt x="1258" y="735" on="1"/>
        <pt x="1225" y="778" on="0"/>
        <pt x="1124" y="778" on="1"/>
        <pt x="1063" y="778" on="0"/>
        <pt x="913" y="735" on="0"/>
        <pt x="852" y="687" on="1"/>
        <pt x="860" y="666" on="0"/>
        <pt x="860" y="646" on="1"/>
        <pt x="860" y="570" on="0"/>
        <pt x="771" y="513" on="1"/>
        <pt x="779" y="480" on="0"/>
        <pt x="836" y="438" on="0"/>
        <pt x="904" y="420" on="0"/>
        <pt x="970" y="406" on="0"/>
        <pt x="1011" y="383" on="0"/>
        <pt x="1009" y="364" on="1"/>
        <pt x="1005" y="346" on="0"/>
      </contour>
      <contour>
        <pt x="741" y="423" on="0"/>
        <pt x="704" y="480" on="1"/>
        <pt x="599" y="442" on="0"/>
        <pt x="334" y="442" on="0"/>
        <pt x="247" y="470" on="1"/>
        <pt x="146" y="327" on="0"/>
        <pt x="70" y="138" on="0"/>
        <pt x="70" y="86" on="1"/>
        <pt x="70" y="75" on="0"/>
        <pt x="71" y="66" on="1"/>
        <pt x="83" y="-17" on="0"/>
        <pt x="155" y="-17" on="1"/>
        <pt x="236" y="-17" on="0"/>
        <pt x="343" y="71" on="1"/>
        <pt x="419" y="135" on="0"/>
        <pt x="565" y="311" on="0"/>
        <pt x="636" y="445" on="0"/>
        <pt x="664" y="445" on="1"/>
        <pt x="687" y="445" on="0"/>
        <pt x="687" y="416" on="1"/>
        <pt x="687" y="385" on="0"/>
        <pt x="662" y="358" on="1"/>
        <pt x="657" y="350" on="1"/>
        <pt x="685" y="364" on="0"/>
        <pt x="773" y="391" on="0"/>
        <pt x="829" y="394" on="1"/>
      </contour>
      <contour>
        <pt x="803" y="706" on="1"/>
        <pt x="771" y="747" on="0"/>
        <pt x="624" y="747" on="0"/>
        <pt x="501" y="707" on="0"/>
        <pt x="394" y="629" on="0"/>
        <pt x="311" y="547" on="0"/>
        <pt x="263" y="490" on="1"/>
        <pt x="338" y="466" on="0"/>
        <pt x="447" y="466" on="1"/>
        <pt x="495" y="466" on="0"/>
        <pt x="627" y="477" on="0"/>
        <pt x="693" y="503" on="1"/>
        <pt x="689" y="519" on="0"/>
        <pt x="689" y="528" on="1"/>
        <pt x="690" y="629" on="0"/>
      </contour>
      <contour>
        <pt x="819" y="657" on="1"/>
        <pt x="772" y="605" on="0"/>
        <pt x="769" y="554" on="1"/>
        <pt x="768" y="550" on="1"/>
        <pt x="819" y="596" on="0"/>
      </contour>
    </TTGlyph>
    <TTGlyph name="Aacute" xMin="20" yMin="-64" xMax="859" yMax="850">
      <contour>
        <pt x="796" y="836" on="1"/>
        <pt x="816" y="850" on="0"/>
        <pt x="840" y="850" on="0"/>
        <pt x="859" y="841" on="0"/>
        <pt x="859" y="828" on="0"/>
        <pt x="851" y="812" on="0"/>
        <pt x="700" y="743" on="0"/>
        <pt x="689" y="743" on="0"/>
        <pt x="689" y="743" on="1"/>
        <pt x="682" y="747" on="0"/>
        <pt x="686" y="755" on="1"/>
        <pt x="690" y="761" on="0"/>
        <pt x="791" y="831" on="0"/>
      </contour>
      <contour>
        <pt x="632" y="405" on="1"/>
        <pt x="654" y="405" on="0"/>
        <pt x="654" y="379" on="1"/>
        <pt x="654" y="351" on="0"/>
        <pt x="631" y="325" on="1"/>
        <pt x="560" y="247" on="0"/>
        <pt x="531" y="90" on="1"/>
        <pt x="525" y="57" on="0"/>
        <pt x="525" y="-2" on="0"/>
        <pt x="550" y="-34" on="0"/>
        <pt x="566" y="-34" on="1"/>
        <pt x="614" y="-34" on="0"/>
        <pt x="678" y="44" on="1"/>
        <pt x="735" y="117" on="0"/>
        <pt x="765" y="186" on="1"/>
        <pt x="773" y="202" on="0"/>
        <pt x="789" y="198" on="0"/>
        <pt x="782" y="182" on="1"/>
        <pt x="741" y="91" on="0"/>
        <pt x="689" y="22" on="1"/>
        <pt x="662" y="-15" on="0"/>
        <pt x="582" y="-64" on="0"/>
        <pt x="503" y="-64" on="0"/>
        <pt x="463" y="-1" on="0"/>
        <pt x="463" y="85" on="0"/>
        <pt x="484" y="169" on="0"/>
        <pt x="501" y="192" on="1"/>
        <pt x="400" y="71" on="0"/>
        <pt x="286" y="-2" on="1"/>
        <pt x="226" y="-39" on="0"/>
        <pt x="153" y="-46" on="1"/>
        <pt x="146" y="-47" on="0"/>
        <pt x="113" y="-47" on="0"/>
        <pt x="90" y="-35" on="1"/>
        <pt x="21" y="-6" on="0"/>
        <pt x="21" y="102" on="1"/>
        <pt x="21" y="198" on="0"/>
        <pt x="88" y="332" on="1"/>
        <pt x="127" y="408" on="0"/>
        <pt x="176" y="461" on="1"/>
        <pt x="112" y="491" on="0"/>
        <pt x="82" y="525" on="1"/>
        <pt x="59" y="549" on="0"/>
        <pt x="59" y="619" on="0"/>
        <pt x="73" y="629" on="1"/>
        <pt x="83" y="642" on="0"/>
        <pt x="91" y="632" on="1"/>
        <pt x="95" y="624" on="0"/>
        <pt x="85" y="600" on="0"/>
        <pt x="85" y="589" on="1"/>
        <pt x="85" y="565" on="0"/>
        <pt x="110" y="539" on="1"/>
        <pt x="143" y="503" on="0"/>
        <pt x="193" y="481" on="1"/>
        <pt x="288" y="584" on="0"/>
        <pt x="525" y="707" on="0"/>
        <pt x="655" y="707" on="1"/>
        <pt x="730" y="707" on="0"/>
        <pt x="817" y="642" on="0"/>
        <pt x="817" y="530" on="0"/>
        <pt x="746" y="475" on="1"/>
        <pt x="652" y="403" on="0"/>
        <pt x="445" y="403" on="1"/>
        <pt x="330" y="403" on="0"/>
        <pt x="235" y="434" on="1"/>
        <pt x="211" y="412" on="0"/>
        <pt x="127" y="280" on="0"/>
        <pt x="70" y="138" on="0"/>
        <pt x="70" y="86" on="1"/>
        <pt x="70" y="75" on="0"/>
        <pt x="71" y="66" on="1"/>
        <pt x="83" y="-17" on="0"/>
        <pt x="155" y="-17" on="1"/>
        <pt x="236" y="-17" on="0"/>
        <pt x="343" y="71" on="1"/>
        <pt x="493" y="197" on="0"/>
        <pt x="577" y="351" on="1"/>
        <pt x="607" y="405" on="0"/>
      </contour>
      <contour>
        <pt x="778" y="601" on="1"/>
        <pt x="778" y="640" on="0"/>
        <pt x="712" y="683" on="0"/>
        <pt x="658" y="683" on="1"/>
        <pt x="537" y="683" on="0"/>
        <pt x="341" y="559" on="0"/>
        <pt x="250" y="452" on="1"/>
        <pt x="334" y="426" on="0"/>
        <pt x="443" y="426" on="1"/>
        <pt x="621" y="426" on="0"/>
        <pt x="710" y="486" on="1"/>
        <pt x="778" y="532" on="0"/>
      </contour>
    </TTGlyph>
    <TTGlyph name="Abreve" xMin="20" yMin="-64" xMax="869" yMax="850">
      <contour>
        <pt x="868" y="840" on="1"/>
        <pt x="868" y="810" on="0"/>
        <pt x="814" y="775" on="1"/>
        <pt x="777" y="752" on="0"/>
        <pt x="699" y="752" on="0"/>
        <pt x="672" y="766" on="1"/>
        <pt x="638" y="783" on="0"/>
        <pt x="638" y="825" on="1"/>
        <pt x="638" y="850" on="0"/>
        <pt x="655" y="850" on="1"/>
        <pt x="659" y="850" on="0"/>
        <pt x="665" y="837" on="0"/>
        <pt x="674" y="817" on="0"/>
        <pt x="680" y="811" on="1"/>
        <pt x="706" y="786" on="0"/>
        <pt x="776" y="786" on="0"/>
        <pt x="813" y="802" on="0"/>
        <pt x="831" y="819" on="0"/>
        <pt x="846" y="839" on="1"/>
        <pt x="856" y="852" on="0"/>
        <pt x="866" y="845" on="1"/>
        <pt x="868" y="843" on="0"/>
      </contour>
      <contour>
        <pt x="632" y="405" on="1"/>
        <pt x="654" y="405" on="0"/>
        <pt x="654" y="379" on="1"/>
        <pt x="654" y="351" on="0"/>
        <pt x="631" y="325" on="1"/>
        <pt x="560" y="247" on="0"/>
        <pt x="531" y="90" on="1"/>
        <pt x="525" y="57" on="0"/>
        <pt x="525" y="-2" on="0"/>
        <pt x="550" y="-34" on="0"/>
        <pt x="566" y="-34" on="1"/>
        <pt x="614" y="-34" on="0"/>
        <pt x="678" y="44" on="1"/>
        <pt x="735" y="117" on="0"/>
        <pt x="765" y="186" on="1"/>
        <pt x="773" y="202" on="0"/>
        <pt x="789" y="198" on="0"/>
        <pt x="782" y="182" on="1"/>
        <pt x="741" y="91" on="0"/>
        <pt x="689" y="22" on="1"/>
        <pt x="662" y="-15" on="0"/>
        <pt x="582" y="-64" on="0"/>
        <pt x="503" y="-64" on="0"/>
        <pt x="463" y="-1" on="0"/>
        <pt x="463" y="85" on="0"/>
        <pt x="484" y="169" on="0"/>
        <pt x="501" y="192" on="1"/>
        <pt x="400" y="71" on="0"/>
        <pt x="286" y="-2" on="1"/>
        <pt x="226" y="-39" on="0"/>
        <pt x="153" y="-46" on="1"/>
        <pt x="146" y="-47" on="0"/>
        <pt x="113" y="-47" on="0"/>
        <pt x="90" y="-35" on="1"/>
        <pt x="21" y="-6" on="0"/>
        <pt x="21" y="102" on="1"/>
        <pt x="21" y="198" on="0"/>
        <pt x="88" y="332" on="1"/>
        <pt x="127" y="408" on="0"/>
        <pt x="176" y="461" on="1"/>
        <pt x="112" y="491" on="0"/>
        <pt x="82" y="525" on="1"/>
        <pt x="59" y="549" on="0"/>
        <pt x="59" y="619" on="0"/>
        <pt x="73" y="629" on="1"/>
        <pt x="83" y="642" on="0"/>
        <pt x="91" y="632" on="1"/>
        <pt x="95" y="624" on="0"/>
        <pt x="85" y="600" on="0"/>
        <pt x="85" y="589" on="1"/>
        <pt x="85" y="565" on="0"/>
        <pt x="110" y="539" on="1"/>
        <pt x="143" y="503" on="0"/>
        <pt x="193" y="481" on="1"/>
        <pt x="288" y="584" on="0"/>
        <pt x="525" y="707" on="0"/>
        <pt x="655" y="707" on="1"/>
        <pt x="730" y="707" on="0"/>
        <pt x="817" y="642" on="0"/>
        <pt x="817" y="530" on="0"/>
        <pt x="746" y="475" on="1"/>
        <pt x="652" y="403" on="0"/>
        <pt x="445" y="403" on="1"/>
        <pt x="330" y="403" on="0"/>
        <pt x="235" y="434" on="1"/>
        <pt x="211" y="412" on="0"/>
        <pt x="127" y="280" on="0"/>
        <pt x="70" y="138" on="0"/>
        <pt x="70" y="86" on="1"/>
        <pt x="70" y="75" on="0"/>
        <pt x="71" y="66" on="1"/>
        <pt x="83" y="-17" on="0"/>
        <pt x="155" y="-17" on="1"/>
        <pt x="236" y="-17" on="0"/>
        <pt x="343" y="71" on="1"/>
        <pt x="493" y="197" on="0"/>
        <pt x="577" y="351" on="1"/>
        <pt x="607" y="405" on="0"/>
      </contour>
      <contour>
        <pt x="778" y="601" on="1"/>
        <pt x="778" y="640" on="0"/>
        <pt x="712" y="683" on="0"/>
        <pt x="658" y="683" on="1"/>
        <pt x="537" y="683" on="0"/>
        <pt x="341" y="559" on="0"/>
        <pt x="250" y="452" on="1"/>
        <pt x="334" y="426" on="0"/>
        <pt x="443" y="426" on="1"/>
        <pt x="621" y="426" on="0"/>
        <pt x="710" y="486" on="1"/>
        <pt x="778" y="532" on="0"/>
      </contour>
    </TTGlyph>
    <TTGlyph name="Acircumflex" xMin="20" yMin="-64" xMax="817" yMax="850">
      <contour>
        <pt x="730" y="850" on="0"/>
        <pt x="748" y="850" on="0"/>
        <pt x="749" y="847" on="1"/>
        <pt x="785" y="741" on="1"/>
        <pt x="788" y="735" on="0"/>
        <pt x="779" y="735" on="1"/>
        <pt x="769" y="735" on="0"/>
        <pt x="765" y="741" on="1"/>
        <pt x="719" y="812" on="1"/>
        <pt x="600" y="748" on="0"/>
        <pt x="587" y="741" on="1"/>
        <pt x="577" y="732" on="0"/>
        <pt x="563" y="736" on="1"/>
        <pt x="558" y="738" on="0"/>
        <pt x="562" y="741" on="1"/>
        <pt x="711" y="847" on="1"/>
      </contour>
      <contour>
        <pt x="632" y="405" on="1"/>
        <pt x="654" y="405" on="0"/>
        <pt x="654" y="379" on="1"/>
        <pt x="654" y="351" on="0"/>
        <pt x="631" y="325" on="1"/>
        <pt x="560" y="247" on="0"/>
        <pt x="531" y="90" on="1"/>
        <pt x="525" y="57" on="0"/>
        <pt x="525" y="-2" on="0"/>
        <pt x="550" y="-34" on="0"/>
        <pt x="566" y="-34" on="1"/>
        <pt x="614" y="-34" on="0"/>
        <pt x="678" y="44" on="1"/>
        <pt x="735" y="117" on="0"/>
        <pt x="765" y="186" on="1"/>
        <pt x="773" y="202" on="0"/>
        <pt x="789" y="198" on="0"/>
        <pt x="782" y="182" on="1"/>
        <pt x="741" y="91" on="0"/>
        <pt x="689" y="22" on="1"/>
        <pt x="662" y="-15" on="0"/>
        <pt x="582" y="-64" on="0"/>
        <pt x="503" y="-64" on="0"/>
        <pt x="463" y="-1" on="0"/>
        <pt x="463" y="85" on="0"/>
        <pt x="484" y="169" on="0"/>
        <pt x="501" y="192" on="1"/>
        <pt x="400" y="71" on="0"/>
        <pt x="286" y="-2" on="1"/>
        <pt x="226" y="-39" on="0"/>
        <pt x="153" y="-46" on="1"/>
        <pt x="146" y="-47" on="0"/>
        <pt x="113" y="-47" on="0"/>
        <pt x="90" y="-35" on="1"/>
        <pt x="21" y="-6" on="0"/>
        <pt x="21" y="102" on="1"/>
        <pt x="21" y="198" on="0"/>
        <pt x="88" y="332" on="1"/>
        <pt x="127" y="408" on="0"/>
        <pt x="176" y="461" on="1"/>
        <pt x="112" y="491" on="0"/>
        <pt x="82" y="525" on="1"/>
        <pt x="59" y="549" on="0"/>
        <pt x="59" y="619" on="0"/>
        <pt x="73" y="629" on="1"/>
        <pt x="83" y="642" on="0"/>
        <pt x="91" y="632" on="1"/>
        <pt x="95" y="624" on="0"/>
        <pt x="85" y="600" on="0"/>
        <pt x="85" y="589" on="1"/>
        <pt x="85" y="565" on="0"/>
        <pt x="110" y="539" on="1"/>
        <pt x="143" y="503" on="0"/>
        <pt x="193" y="481" on="1"/>
        <pt x="288" y="584" on="0"/>
        <pt x="525" y="707" on="0"/>
        <pt x="655" y="707" on="1"/>
        <pt x="730" y="707" on="0"/>
        <pt x="817" y="642" on="0"/>
        <pt x="817" y="530" on="0"/>
        <pt x="746" y="475" on="1"/>
        <pt x="652" y="403" on="0"/>
        <pt x="445" y="403" on="1"/>
        <pt x="330" y="403" on="0"/>
        <pt x="235" y="434" on="1"/>
        <pt x="211" y="412" on="0"/>
        <pt x="127" y="280" on="0"/>
        <pt x="70" y="138" on="0"/>
        <pt x="70" y="86" on="1"/>
        <pt x="70" y="75" on="0"/>
        <pt x="71" y="66" on="1"/>
        <pt x="83" y="-17" on="0"/>
        <pt x="155" y="-17" on="1"/>
        <pt x="236" y="-17" on="0"/>
        <pt x="343" y="71" on="1"/>
        <pt x="493" y="197" on="0"/>
        <pt x="577" y="351" on="1"/>
        <pt x="607" y="405" on="0"/>
      </contour>
      <contour>
        <pt x="778" y="601" on="1"/>
        <pt x="778" y="640" on="0"/>
        <pt x="712" y="683" on="0"/>
        <pt x="658" y="683" on="1"/>
        <pt x="537" y="683" on="0"/>
        <pt x="341" y="559" on="0"/>
        <pt x="250" y="452" on="1"/>
        <pt x="334" y="426" on="0"/>
        <pt x="443" y="426" on="1"/>
        <pt x="621" y="426" on="0"/>
        <pt x="710" y="486" on="1"/>
        <pt x="778" y="532" on="0"/>
      </contour>
    </TTGlyph>
    <TTGlyph name="Adieresis" xMin="20" yMin="-64" xMax="837" yMax="850">
      <contour>
        <pt x="818" y="850" on="0"/>
        <pt x="837" y="832" on="0"/>
        <pt x="837" y="803" on="0"/>
        <pt x="819" y="784" on="0"/>
        <pt x="790" y="784" on="0"/>
        <pt x="771" y="802" on="0"/>
        <pt x="771" y="831" on="0"/>
        <pt x="789" y="850" on="0"/>
      </contour>
      <contour>
        <pt x="689" y="850" on="0"/>
        <pt x="708" y="832" on="0"/>
        <pt x="708" y="803" on="0"/>
        <pt x="690" y="784" on="0"/>
        <pt x="661" y="784" on="0"/>
        <pt x="642" y="802" on="0"/>
        <pt x="642" y="831" on="0"/>
        <pt x="660" y="850" on="0"/>
      </contour>
      <contour>
        <pt x="632" y="405" on="1"/>
        <pt x="654" y="405" on="0"/>
        <pt x="654" y="379" on="1"/>
        <pt x="654" y="351" on="0"/>
        <pt x="631" y="325" on="1"/>
        <pt x="560" y="247" on="0"/>
        <pt x="531" y="90" on="1"/>
        <pt x="525" y="57" on="0"/>
        <pt x="525" y="-2" on="0"/>
        <pt x="550" y="-34" on="0"/>
        <pt x="566" y="-34" on="1"/>
        <pt x="614" y="-34" on="0"/>
        <pt x="678" y="44" on="1"/>
        <pt x="735" y="117" on="0"/>
        <pt x="765" y="186" on="1"/>
        <pt x="773" y="202" on="0"/>
        <pt x="789" y="198" on="0"/>
        <pt x="782" y="182" on="1"/>
        <pt x="741" y="91" on="0"/>
        <pt x="689" y="22" on="1"/>
        <pt x="662" y="-15" on="0"/>
        <pt x="582" y="-64" on="0"/>
        <pt x="503" y="-64" on="0"/>
        <pt x="463" y="-1" on="0"/>
        <pt x="463" y="85" on="0"/>
        <pt x="484" y="169" on="0"/>
        <pt x="501" y="192" on="1"/>
        <pt x="400" y="71" on="0"/>
        <pt x="286" y="-2" on="1"/>
        <pt x="226" y="-39" on="0"/>
        <pt x="153" y="-46" on="1"/>
        <pt x="146" y="-47" on="0"/>
        <pt x="113" y="-47" on="0"/>
        <pt x="90" y="-35" on="1"/>
        <pt x="21" y="-6" on="0"/>
        <pt x="21" y="102" on="1"/>
        <pt x="21" y="198" on="0"/>
        <pt x="88" y="332" on="1"/>
        <pt x="127" y="408" on="0"/>
        <pt x="176" y="461" on="1"/>
        <pt x="112" y="491" on="0"/>
        <pt x="82" y="525" on="1"/>
        <pt x="59" y="549" on="0"/>
        <pt x="59" y="619" on="0"/>
        <pt x="73" y="629" on="1"/>
        <pt x="83" y="642" on="0"/>
        <pt x="91" y="632" on="1"/>
        <pt x="95" y="624" on="0"/>
        <pt x="85" y="600" on="0"/>
        <pt x="85" y="589" on="1"/>
        <pt x="85" y="565" on="0"/>
        <pt x="110" y="539" on="1"/>
        <pt x="143" y="503" on="0"/>
        <pt x="193" y="481" on="1"/>
        <pt x="288" y="584" on="0"/>
        <pt x="525" y="707" on="0"/>
        <pt x="655" y="707" on="1"/>
        <pt x="730" y="707" on="0"/>
        <pt x="817" y="642" on="0"/>
        <pt x="817" y="530" on="0"/>
        <pt x="746" y="475" on="1"/>
        <pt x="652" y="403" on="0"/>
        <pt x="445" y="403" on="1"/>
        <pt x="330" y="403" on="0"/>
        <pt x="235" y="434" on="1"/>
        <pt x="211" y="412" on="0"/>
        <pt x="127" y="280" on="0"/>
        <pt x="70" y="138" on="0"/>
        <pt x="70" y="86" on="1"/>
        <pt x="70" y="75" on="0"/>
        <pt x="71" y="66" on="1"/>
        <pt x="83" y="-17" on="0"/>
        <pt x="155" y="-17" on="1"/>
        <pt x="236" y="-17" on="0"/>
        <pt x="343" y="71" on="1"/>
        <pt x="493" y="197" on="0"/>
        <pt x="577" y="351" on="1"/>
        <pt x="607" y="405" on="0"/>
      </contour>
      <contour>
        <pt x="778" y="601" on="1"/>
        <pt x="778" y="640" on="0"/>
        <pt x="712" y="683" on="0"/>
        <pt x="658" y="683" on="1"/>
        <pt x="537" y="683" on="0"/>
        <pt x="341" y="559" on="0"/>
        <pt x="250" y="452" on="1"/>
        <pt x="334" y="426" on="0"/>
        <pt x="443" y="426" on="1"/>
        <pt x="621" y="426" on="0"/>
        <pt x="710" y="486" on="1"/>
        <pt x="778" y="532" on="0"/>
      </contour>
    </TTGlyph>
    <TTGlyph name="Agrave" xMin="20" yMin="-64" xMax="817" yMax="850">
      <contour>
        <pt x="632" y="405" on="1"/>
        <pt x="654" y="405" on="0"/>
        <pt x="654" y="379" on="1"/>
        <pt x="654" y="351" on="0"/>
        <pt x="631" y="325" on="1"/>
        <pt x="560" y="247" on="0"/>
        <pt x="531" y="90" on="1"/>
        <pt x="525" y="57" on="0"/>
        <pt x="525" y="-2" on="0"/>
        <pt x="550" y="-34" on="0"/>
        <pt x="566" y="-34" on="1"/>
        <pt x="614" y="-34" on="0"/>
        <pt x="678" y="44" on="1"/>
        <pt x="735" y="117" on="0"/>
        <pt x="765" y="186" on="1"/>
        <pt x="773" y="202" on="0"/>
        <pt x="789" y="198" on="0"/>
        <pt x="782" y="182" on="1"/>
        <pt x="741" y="91" on="0"/>
        <pt x="689" y="22" on="1"/>
        <pt x="662" y="-15" on="0"/>
        <pt x="582" y="-64" on="0"/>
        <pt x="503" y="-64" on="0"/>
        <pt x="463" y="-1" on="0"/>
        <pt x="463" y="85" on="0"/>
        <pt x="484" y="169" on="0"/>
        <pt x="501" y="192" on="1"/>
        <pt x="400" y="71" on="0"/>
        <pt x="286" y="-2" on="1"/>
        <pt x="226" y="-39" on="0"/>
        <pt x="153" y="-46" on="1"/>
        <pt x="146" y="-47" on="0"/>
        <pt x="113" y="-47" on="0"/>
        <pt x="90" y="-35" on="1"/>
        <pt x="21" y="-6" on="0"/>
        <pt x="21" y="102" on="1"/>
        <pt x="21" y="198" on="0"/>
        <pt x="88" y="332" on="1"/>
        <pt x="127" y="408" on="0"/>
        <pt x="176" y="461" on="1"/>
        <pt x="112" y="491" on="0"/>
        <pt x="82" y="525" on="1"/>
        <pt x="59" y="549" on="0"/>
        <pt x="59" y="619" on="0"/>
        <pt x="73" y="629" on="1"/>
        <pt x="83" y="642" on="0"/>
        <pt x="91" y="632" on="1"/>
        <pt x="95" y="624" on="0"/>
        <pt x="85" y="600" on="0"/>
        <pt x="85" y="589" on="1"/>
        <pt x="85" y="565" on="0"/>
        <pt x="110" y="539" on="1"/>
        <pt x="143" y="503" on="0"/>
        <pt x="193" y="481" on="1"/>
        <pt x="288" y="584" on="0"/>
        <pt x="525" y="707" on="0"/>
        <pt x="655" y="707" on="1"/>
        <pt x="730" y="707" on="0"/>
        <pt x="817" y="642" on="0"/>
        <pt x="817" y="530" on="0"/>
        <pt x="746" y="475" on="1"/>
        <pt x="652" y="403" on="0"/>
        <pt x="445" y="403" on="1"/>
        <pt x="330" y="403" on="0"/>
        <pt x="235" y="434" on="1"/>
        <pt x="211" y="412" on="0"/>
        <pt x="127" y="280" on="0"/>
        <pt x="70" y="138" on="0"/>
        <pt x="70" y="86" on="1"/>
        <pt x="70" y="75" on="0"/>
        <pt x="71" y="66" on="1"/>
        <pt x="83" y="-17" on="0"/>
        <pt x="155" y="-17" on="1"/>
        <pt x="236" y="-17" on="0"/>
        <pt x="343" y="71" on="1"/>
        <pt x="493" y="197" on="0"/>
        <pt x="577" y="351" on="1"/>
        <pt x="607" y="405" on="0"/>
      </contour>
      <contour>
        <pt x="778" y="601" on="1"/>
        <pt x="778" y="640" on="0"/>
        <pt x="712" y="683" on="0"/>
        <pt x="658" y="683" on="1"/>
        <pt x="537" y="683" on="0"/>
        <pt x="341" y="559" on="0"/>
        <pt x="250" y="452" on="1"/>
        <pt x="334" y="426" on="0"/>
        <pt x="443" y="426" on="1"/>
        <pt x="621" y="426" on="0"/>
        <pt x="710" y="486" on="1"/>
        <pt x="778" y="532" on="0"/>
      </contour>
      <contour>
        <pt x="750" y="734" on="1"/>
        <pt x="750" y="725" on="0"/>
        <pt x="741" y="725" on="1"/>
        <pt x="734" y="725" on="0"/>
        <pt x="618" y="786" on="0"/>
        <pt x="612" y="789" on="1"/>
        <pt x="577" y="805" on="0"/>
        <pt x="577" y="830" on="1"/>
        <pt x="577" y="838" on="0"/>
        <pt x="588" y="850" on="0"/>
        <pt x="607" y="850" on="0"/>
        <pt x="750" y="739" on="0"/>
      </contour>
    </TTGlyph>
    <TTGlyph name="Amacron" xMin="18" yMin="-64" xMax="864" yMax="850">
      <contour>
        <pt x="664" y="445" on="1"/>
        <pt x="687" y="445" on="0"/>
        <pt x="687" y="416" on="1"/>
        <pt x="687" y="385" on="0"/>
        <pt x="662" y="358" on="1"/>
        <pt x="618" y="309" on="0"/>
        <pt x="581" y="235" on="1"/>
        <pt x="525" y="123" on="0"/>
        <pt x="525" y="33" on="1"/>
        <pt x="525" y="-2" on="0"/>
        <pt x="550" y="-34" on="0"/>
        <pt x="566" y="-34" on="1"/>
        <pt x="614" y="-34" on="0"/>
        <pt x="678" y="44" on="1"/>
        <pt x="735" y="117" on="0"/>
        <pt x="765" y="186" on="1"/>
        <pt x="773" y="202" on="0"/>
        <pt x="789" y="198" on="0"/>
        <pt x="782" y="182" on="1"/>
        <pt x="741" y="91" on="0"/>
        <pt x="689" y="22" on="1"/>
        <pt x="662" y="-15" on="0"/>
        <pt x="582" y="-64" on="0"/>
        <pt x="503" y="-64" on="0"/>
        <pt x="463" y="-1" on="0"/>
        <pt x="463" y="85" on="0"/>
        <pt x="484" y="169" on="0"/>
        <pt x="501" y="192" on="1"/>
        <pt x="400" y="71" on="0"/>
        <pt x="286" y="-2" on="1"/>
        <pt x="226" y="-39" on="0"/>
        <pt x="153" y="-46" on="1"/>
        <pt x="146" y="-47" on="0"/>
        <pt x="113" y="-47" on="0"/>
        <pt x="90" y="-35" on="1"/>
        <pt x="18" y="-5" on="0"/>
        <pt x="18" y="228" on="0"/>
        <pt x="94" y="364" on="1"/>
        <pt x="134" y="436" on="0"/>
        <pt x="182" y="491" on="1"/>
        <pt x="115" y="523" on="0"/>
        <pt x="82" y="560" on="1"/>
        <pt x="58" y="587" on="0"/>
        <pt x="58" y="663" on="0"/>
        <pt x="73" y="673" on="1"/>
        <pt x="83" y="686" on="0"/>
        <pt x="91" y="678" on="1"/>
        <pt x="97" y="669" on="0"/>
        <pt x="86" y="643" on="0"/>
        <pt x="86" y="631" on="1"/>
        <pt x="86" y="604" on="0"/>
        <pt x="144" y="538" on="0"/>
        <pt x="200" y="512" on="1"/>
        <pt x="435" y="773" on="0"/>
        <pt x="688" y="773" on="1"/>
        <pt x="767" y="773" on="0"/>
        <pt x="860" y="702" on="0"/>
        <pt x="860" y="646" on="1"/>
        <pt x="860" y="585" on="0"/>
        <pt x="792" y="528" on="1"/>
        <pt x="758" y="498" on="0"/>
        <pt x="695" y="476" on="1"/>
        <pt x="599" y="442" on="0"/>
        <pt x="334" y="442" on="0"/>
        <pt x="247" y="470" on="1"/>
        <pt x="146" y="327" on="0"/>
        <pt x="70" y="138" on="0"/>
        <pt x="70" y="86" on="1"/>
        <pt x="70" y="75" on="0"/>
        <pt x="71" y="66" on="1"/>
        <pt x="83" y="-17" on="0"/>
        <pt x="155" y="-17" on="1"/>
        <pt x="236" y="-17" on="0"/>
        <pt x="343" y="71" on="1"/>
        <pt x="419" y="135" on="0"/>
        <pt x="565" y="311" on="0"/>
        <pt x="636" y="445" on="0"/>
      </contour>
      <contour>
        <pt x="819" y="658" on="1"/>
        <pt x="819" y="701" on="0"/>
        <pt x="748" y="747" on="0"/>
        <pt x="624" y="747" on="0"/>
        <pt x="501" y="707" on="0"/>
        <pt x="394" y="629" on="0"/>
        <pt x="311" y="547" on="0"/>
        <pt x="263" y="490" on="1"/>
        <pt x="338" y="466" on="0"/>
        <pt x="447" y="466" on="1"/>
        <pt x="652" y="466" on="0"/>
        <pt x="746" y="532" on="1"/>
        <pt x="819" y="583" on="0"/>
      </contour>
      <contour>
        <pt x="864" y="850" on="1"/>
        <pt x="852" y="820" on="1"/>
        <pt x="638" y="820" on="1"/>
        <pt x="651" y="850" on="1"/>
      </contour>
    </TTGlyph>
    <TTGlyph name="Aogonek" xMin="18" yMin="-252" xMax="860" yMax="773">
      <contour>
        <pt x="664" y="445" on="1"/>
        <pt x="687" y="445" on="0"/>
        <pt x="687" y="416" on="1"/>
        <pt x="687" y="385" on="0"/>
        <pt x="662" y="358" on="1"/>
        <pt x="618" y="309" on="0"/>
        <pt x="581" y="235" on="1"/>
        <pt x="525" y="123" on="0"/>
        <pt x="525" y="33" on="1"/>
        <pt x="525" y="-2" on="0"/>
        <pt x="550" y="-34" on="0"/>
        <pt x="566" y="-34" on="1"/>
        <pt x="614" y="-34" on="0"/>
        <pt x="678" y="44" on="1"/>
        <pt x="735" y="117" on="0"/>
        <pt x="765" y="186" on="1"/>
        <pt x="773" y="202" on="0"/>
        <pt x="789" y="198" on="0"/>
        <pt x="782" y="182" on="1"/>
        <pt x="741" y="91" on="0"/>
        <pt x="689" y="22" on="1"/>
        <pt x="675" y="2" on="0"/>
        <pt x="650" y="-19" on="1"/>
        <pt x="650" y="-26" on="1"/>
        <pt x="606" y="-61" on="0"/>
        <pt x="532" y="-157" on="0"/>
        <pt x="531" y="-222" on="0"/>
        <pt x="560" y="-222" on="1"/>
        <pt x="581" y="-222" on="0"/>
        <pt x="611" y="-192" on="1"/>
        <pt x="618" y="-189" on="0"/>
        <pt x="622" y="-192" on="0"/>
        <pt x="621" y="-196" on="1"/>
        <pt x="617" y="-214" on="0"/>
        <pt x="561" y="-252" on="0"/>
        <pt x="534" y="-252" on="1"/>
        <pt x="481" y="-252" on="0"/>
        <pt x="481" y="-210" on="1"/>
        <pt x="481" y="-178" on="0"/>
        <pt x="544" y="-92" on="0"/>
        <pt x="585" y="-56" on="1"/>
        <pt x="563" y="-64" on="0"/>
        <pt x="542" y="-64" on="1"/>
        <pt x="503" y="-64" on="0"/>
        <pt x="463" y="-1" on="0"/>
        <pt x="463" y="85" on="0"/>
        <pt x="484" y="169" on="0"/>
        <pt x="501" y="192" on="1"/>
        <pt x="400" y="71" on="0"/>
        <pt x="286" y="-2" on="1"/>
        <pt x="226" y="-39" on="0"/>
        <pt x="153" y="-46" on="1"/>
        <pt x="146" y="-47" on="0"/>
        <pt x="113" y="-47" on="0"/>
        <pt x="90" y="-35" on="1"/>
        <pt x="18" y="-5" on="0"/>
        <pt x="18" y="228" on="0"/>
        <pt x="94" y="364" on="1"/>
        <pt x="134" y="436" on="0"/>
        <pt x="182" y="491" on="1"/>
        <pt x="115" y="523" on="0"/>
        <pt x="82" y="560" on="1"/>
        <pt x="58" y="587" on="0"/>
        <pt x="58" y="663" on="0"/>
        <pt x="73" y="673" on="1"/>
        <pt x="83" y="686" on="0"/>
        <pt x="91" y="678" on="1"/>
        <pt x="97" y="669" on="0"/>
        <pt x="86" y="643" on="0"/>
        <pt x="86" y="631" on="1"/>
        <pt x="86" y="604" on="0"/>
        <pt x="144" y="538" on="0"/>
        <pt x="200" y="512" on="1"/>
        <pt x="435" y="773" on="0"/>
        <pt x="688" y="773" on="1"/>
        <pt x="767" y="773" on="0"/>
        <pt x="860" y="702" on="0"/>
        <pt x="860" y="646" on="1"/>
        <pt x="860" y="585" on="0"/>
        <pt x="792" y="528" on="1"/>
        <pt x="758" y="498" on="0"/>
        <pt x="695" y="476" on="1"/>
        <pt x="599" y="442" on="0"/>
        <pt x="334" y="442" on="0"/>
        <pt x="247" y="470" on="1"/>
        <pt x="146" y="327" on="0"/>
        <pt x="70" y="138" on="0"/>
        <pt x="70" y="86" on="1"/>
        <pt x="70" y="75" on="0"/>
        <pt x="71" y="66" on="1"/>
        <pt x="83" y="-17" on="0"/>
        <pt x="155" y="-17" on="1"/>
        <pt x="236" y="-17" on="0"/>
        <pt x="343" y="71" on="1"/>
        <pt x="419" y="135" on="0"/>
        <pt x="565" y="311" on="0"/>
        <pt x="636" y="445" on="0"/>
      </contour>
      <contour>
        <pt x="819" y="658" on="1"/>
        <pt x="819" y="701" on="0"/>
        <pt x="748" y="747" on="0"/>
        <pt x="624" y="747" on="0"/>
        <pt x="501" y="707" on="0"/>
        <pt x="394" y="629" on="0"/>
        <pt x="311" y="547" on="0"/>
        <pt x="263" y="490" on="1"/>
        <pt x="338" y="466" on="0"/>
        <pt x="447" y="466" on="1"/>
        <pt x="652" y="466" on="0"/>
        <pt x="746" y="532" on="1"/>
        <pt x="819" y="583" on="0"/>
      </contour>
    </TTGlyph>
    <TTGlyph name="Aring" xMin="20" yMin="-64" xMax="854" yMax="850">
      <contour>
        <pt x="770" y="758" on="0"/>
        <pt x="796" y="758" on="0"/>
        <pt x="815" y="781" on="0"/>
        <pt x="817" y="797" on="1"/>
        <pt x="818" y="813" on="0"/>
        <pt x="802" y="834" on="0"/>
        <pt x="776" y="832" on="0"/>
        <pt x="756" y="811" on="0"/>
        <pt x="754" y="779" on="0"/>
      </contour>
      <contour>
        <pt x="821" y="849" on="0"/>
        <pt x="853" y="821" on="0"/>
        <pt x="853" y="776" on="0"/>
        <pt x="831" y="759" on="1"/>
        <pt x="807" y="741" on="0"/>
        <pt x="751" y="741" on="0"/>
        <pt x="720" y="769" on="0"/>
        <pt x="720" y="787" on="1"/>
        <pt x="720" y="813" on="0"/>
        <pt x="742" y="830" on="1"/>
        <pt x="768" y="849" on="0"/>
      </contour>
      <contour>
        <pt x="632" y="405" on="1"/>
        <pt x="654" y="405" on="0"/>
        <pt x="654" y="379" on="1"/>
        <pt x="654" y="351" on="0"/>
        <pt x="631" y="325" on="1"/>
        <pt x="560" y="247" on="0"/>
        <pt x="531" y="90" on="1"/>
        <pt x="525" y="57" on="0"/>
        <pt x="525" y="-2" on="0"/>
        <pt x="550" y="-34" on="0"/>
        <pt x="566" y="-34" on="1"/>
        <pt x="614" y="-34" on="0"/>
        <pt x="678" y="44" on="1"/>
        <pt x="735" y="117" on="0"/>
        <pt x="765" y="186" on="1"/>
        <pt x="773" y="202" on="0"/>
        <pt x="789" y="198" on="0"/>
        <pt x="782" y="182" on="1"/>
        <pt x="741" y="91" on="0"/>
        <pt x="689" y="22" on="1"/>
        <pt x="662" y="-15" on="0"/>
        <pt x="582" y="-64" on="0"/>
        <pt x="503" y="-64" on="0"/>
        <pt x="463" y="-1" on="0"/>
        <pt x="463" y="85" on="0"/>
        <pt x="484" y="169" on="0"/>
        <pt x="501" y="192" on="1"/>
        <pt x="400" y="71" on="0"/>
        <pt x="286" y="-2" on="1"/>
        <pt x="226" y="-39" on="0"/>
        <pt x="153" y="-46" on="1"/>
        <pt x="146" y="-47" on="0"/>
        <pt x="113" y="-47" on="0"/>
        <pt x="90" y="-35" on="1"/>
        <pt x="21" y="-6" on="0"/>
        <pt x="21" y="102" on="1"/>
        <pt x="21" y="198" on="0"/>
        <pt x="88" y="332" on="1"/>
        <pt x="127" y="408" on="0"/>
        <pt x="176" y="461" on="1"/>
        <pt x="112" y="491" on="0"/>
        <pt x="82" y="525" on="1"/>
        <pt x="59" y="549" on="0"/>
        <pt x="59" y="619" on="0"/>
        <pt x="73" y="629" on="1"/>
        <pt x="83" y="642" on="0"/>
        <pt x="91" y="632" on="1"/>
        <pt x="95" y="624" on="0"/>
        <pt x="85" y="600" on="0"/>
        <pt x="85" y="589" on="1"/>
        <pt x="85" y="565" on="0"/>
        <pt x="110" y="539" on="1"/>
        <pt x="143" y="503" on="0"/>
        <pt x="193" y="481" on="1"/>
        <pt x="288" y="584" on="0"/>
        <pt x="525" y="707" on="0"/>
        <pt x="655" y="707" on="1"/>
        <pt x="730" y="707" on="0"/>
        <pt x="817" y="642" on="0"/>
        <pt x="817" y="530" on="0"/>
        <pt x="746" y="475" on="1"/>
        <pt x="652" y="403" on="0"/>
        <pt x="445" y="403" on="1"/>
        <pt x="330" y="403" on="0"/>
        <pt x="235" y="434" on="1"/>
        <pt x="211" y="412" on="0"/>
        <pt x="127" y="280" on="0"/>
        <pt x="70" y="138" on="0"/>
        <pt x="70" y="86" on="1"/>
        <pt x="70" y="75" on="0"/>
        <pt x="71" y="66" on="1"/>
        <pt x="83" y="-17" on="0"/>
        <pt x="155" y="-17" on="1"/>
        <pt x="236" y="-17" on="0"/>
        <pt x="343" y="71" on="1"/>
        <pt x="493" y="197" on="0"/>
        <pt x="577" y="351" on="1"/>
        <pt x="607" y="405" on="0"/>
      </contour>
      <contour>
        <pt x="778" y="601" on="1"/>
        <pt x="778" y="640" on="0"/>
        <pt x="712" y="683" on="0"/>
        <pt x="658" y="683" on="1"/>
        <pt x="537" y="683" on="0"/>
        <pt x="341" y="559" on="0"/>
        <pt x="250" y="452" on="1"/>
        <pt x="334" y="426" on="0"/>
        <pt x="443" y="426" on="1"/>
        <pt x="621" y="426" on="0"/>
        <pt x="710" y="486" on="1"/>
        <pt x="778" y="532" on="0"/>
      </contour>
    </TTGlyph>
    <TTGlyph name="Atilde" xMin="20" yMin="-64" xMax="868" yMax="851">
      <contour>
        <pt x="775" y="765" on="1"/>
        <pt x="753" y="765" on="0"/>
        <pt x="711" y="783" on="1"/>
        <pt x="664" y="804" on="0"/>
        <pt x="614" y="804" on="0"/>
        <pt x="596" y="771" on="1"/>
        <pt x="594" y="764" on="0"/>
        <pt x="578" y="769" on="1"/>
        <pt x="573" y="771" on="0"/>
        <pt x="573" y="773" on="1"/>
        <pt x="615" y="848" on="0"/>
        <pt x="665" y="848" on="1"/>
        <pt x="688" y="848" on="0"/>
        <pt x="772" y="813" on="0"/>
        <pt x="795" y="812" on="0"/>
        <pt x="799" y="812" on="1"/>
        <pt x="830" y="812" on="0"/>
        <pt x="847" y="847" on="1"/>
        <pt x="848" y="850" on="0"/>
        <pt x="853" y="850" on="1"/>
        <pt x="866" y="850" on="0"/>
        <pt x="868" y="845" on="1"/>
        <pt x="829" y="765" on="0"/>
      </contour>
      <contour>
        <pt x="632" y="405" on="1"/>
        <pt x="654" y="405" on="0"/>
        <pt x="654" y="379" on="1"/>
        <pt x="654" y="351" on="0"/>
        <pt x="631" y="325" on="1"/>
        <pt x="560" y="247" on="0"/>
        <pt x="531" y="90" on="1"/>
        <pt x="525" y="57" on="0"/>
        <pt x="525" y="-2" on="0"/>
        <pt x="550" y="-34" on="0"/>
        <pt x="566" y="-34" on="1"/>
        <pt x="614" y="-34" on="0"/>
        <pt x="678" y="44" on="1"/>
        <pt x="735" y="117" on="0"/>
        <pt x="765" y="186" on="1"/>
        <pt x="773" y="202" on="0"/>
        <pt x="789" y="198" on="0"/>
        <pt x="782" y="182" on="1"/>
        <pt x="741" y="91" on="0"/>
        <pt x="689" y="22" on="1"/>
        <pt x="662" y="-15" on="0"/>
        <pt x="582" y="-64" on="0"/>
        <pt x="503" y="-64" on="0"/>
        <pt x="463" y="-1" on="0"/>
        <pt x="463" y="85" on="0"/>
        <pt x="484" y="169" on="0"/>
        <pt x="501" y="192" on="1"/>
        <pt x="400" y="71" on="0"/>
        <pt x="286" y="-2" on="1"/>
        <pt x="226" y="-39" on="0"/>
        <pt x="153" y="-46" on="1"/>
        <pt x="146" y="-47" on="0"/>
        <pt x="113" y="-47" on="0"/>
        <pt x="90" y="-35" on="1"/>
        <pt x="21" y="-6" on="0"/>
        <pt x="21" y="102" on="1"/>
        <pt x="21" y="198" on="0"/>
        <pt x="88" y="332" on="1"/>
        <pt x="127" y="408" on="0"/>
        <pt x="176" y="461" on="1"/>
        <pt x="112" y="491" on="0"/>
        <pt x="82" y="525" on="1"/>
        <pt x="59" y="549" on="0"/>
        <pt x="59" y="619" on="0"/>
        <pt x="73" y="629" on="1"/>
        <pt x="83" y="642" on="0"/>
        <pt x="91" y="632" on="1"/>
        <pt x="95" y="624" on="0"/>
        <pt x="85" y="600" on="0"/>
        <pt x="85" y="589" on="1"/>
        <pt x="85" y="565" on="0"/>
        <pt x="110" y="539" on="1"/>
        <pt x="143" y="503" on="0"/>
        <pt x="193" y="481" on="1"/>
        <pt x="288" y="584" on="0"/>
        <pt x="525" y="707" on="0"/>
        <pt x="655" y="707" on="1"/>
        <pt x="730" y="707" on="0"/>
        <pt x="817" y="642" on="0"/>
        <pt x="817" y="530" on="0"/>
        <pt x="746" y="475" on="1"/>
        <pt x="652" y="403" on="0"/>
        <pt x="445" y="403" on="1"/>
        <pt x="330" y="403" on="0"/>
        <pt x="235" y="434" on="1"/>
        <pt x="211" y="412" on="0"/>
        <pt x="127" y="280" on="0"/>
        <pt x="70" y="138" on="0"/>
        <pt x="70" y="86" on="1"/>
        <pt x="70" y="75" on="0"/>
        <pt x="71" y="66" on="1"/>
        <pt x="83" y="-17" on="0"/>
        <pt x="155" y="-17" on="1"/>
        <pt x="236" y="-17" on="0"/>
        <pt x="343" y="71" on="1"/>
        <pt x="493" y="197" on="0"/>
        <pt x="577" y="351" on="1"/>
        <pt x="607" y="405" on="0"/>
      </contour>
      <contour>
        <pt x="778" y="601" on="1"/>
        <pt x="778" y="640" on="0"/>
        <pt x="712" y="683" on="0"/>
        <pt x="658" y="683" on="1"/>
        <pt x="537" y="683" on="0"/>
        <pt x="341" y="559" on="0"/>
        <pt x="250" y="452" on="1"/>
        <pt x="334" y="426" on="0"/>
        <pt x="443" y="426" on="1"/>
        <pt x="621" y="426" on="0"/>
        <pt x="710" y="486" on="1"/>
        <pt x="778" y="532" on="0"/>
      </contour>
    </TTGlyph>
    <TTGlyph name="B" xMin="9" yMin="-40" xMax="1089" yMax="785">
      <contour>
        <pt x="1038" y="192" on="1"/>
        <pt x="1038" y="135" on="0"/>
        <pt x="997" y="86" on="1"/>
        <pt x="939" y="16" on="0"/>
        <pt x="842" y="-15" on="1"/>
        <pt x="770" y="-38" on="0"/>
        <pt x="702" y="-38" on="1"/>
        <pt x="677" y="-38" on="0"/>
        <pt x="653" y="-35" on="1"/>
        <pt x="496" y="-15" on="0"/>
        <pt x="387" y="34" on="1"/>
        <pt x="288" y="-39" on="0"/>
        <pt x="178" y="-39" on="1"/>
        <pt x="48" y="-39" on="0"/>
        <pt x="17" y="33" on="1"/>
        <pt x="10" y="50" on="0"/>
        <pt x="10" y="96" on="0"/>
        <pt x="33" y="122" on="1"/>
        <pt x="69" y="162" on="0"/>
        <pt x="133" y="162" on="1"/>
        <pt x="175" y="162" on="0"/>
        <pt x="243" y="138" on="0"/>
        <pt x="343" y="84" on="0"/>
        <pt x="367" y="72" on="1"/>
        <pt x="411" y="115" on="0"/>
        <pt x="505" y="268" on="0"/>
        <pt x="576" y="415" on="0"/>
        <pt x="686" y="595" on="0"/>
        <pt x="743" y="658" on="1"/>
        <pt x="800" y="723" on="1"/>
        <pt x="721" y="737" on="0"/>
        <pt x="531" y="737" on="0"/>
        <pt x="417" y="712" on="1"/>
        <pt x="261" y="679" on="0"/>
        <pt x="177" y="578" on="1"/>
        <pt x="126" y="517" on="0"/>
        <pt x="126" y="462" on="1"/>
        <pt x="126" y="389" on="0"/>
        <pt x="197" y="367" on="1"/>
        <pt x="222" y="360" on="0"/>
        <pt x="260" y="360" on="0"/>
        <pt x="310" y="374" on="0"/>
        <pt x="357" y="419" on="0"/>
        <pt x="378" y="461" on="0"/>
        <pt x="378" y="482" on="0"/>
        <pt x="388" y="482" on="1"/>
        <pt x="398" y="481" on="0"/>
        <pt x="399" y="468" on="1"/>
        <pt x="399" y="467" on="1"/>
        <pt x="388" y="394" on="0"/>
        <pt x="321" y="356" on="1"/>
        <pt x="280" y="334" on="0"/>
        <pt x="239" y="334" on="1"/>
        <pt x="187" y="343" on="1"/>
        <pt x="81" y="380" on="0"/>
        <pt x="81" y="481" on="1"/>
        <pt x="81" y="550" on="0"/>
        <pt x="142" y="617" on="1"/>
        <pt x="240" y="727" on="0"/>
        <pt x="430" y="754" on="1"/>
        <pt x="522" y="767" on="0"/>
        <pt x="721" y="767" on="0"/>
        <pt x="824" y="745" on="1"/>
        <pt x="852" y="769" on="0"/>
        <pt x="894" y="785" on="0"/>
        <pt x="901" y="785" on="0"/>
        <pt x="902" y="784" on="1"/>
        <pt x="908" y="784" on="0"/>
        <pt x="901" y="771" on="0"/>
        <pt x="864" y="747" on="0"/>
        <pt x="860" y="737" on="1"/>
        <pt x="996" y="702" on="0"/>
        <pt x="1056" y="637" on="1"/>
        <pt x="1088" y="601" on="0"/>
        <pt x="1088" y="526" on="0"/>
        <pt x="1066" y="488" on="1"/>
        <pt x="1037" y="438" on="0"/>
        <pt x="907" y="387" on="0"/>
        <pt x="841" y="384" on="1"/>
        <pt x="905" y="364" on="0"/>
        <pt x="960" y="328" on="1"/>
        <pt x="1038" y="277" on="0"/>
      </contour>
      <contour>
        <pt x="688" y="-10" on="1"/>
        <pt x="800" y="-10" on="0"/>
        <pt x="878" y="54" on="1"/>
        <pt x="963" y="122" on="0"/>
        <pt x="963" y="201" on="1"/>
        <pt x="963" y="283" on="0"/>
        <pt x="876" y="325" on="1"/>
        <pt x="844" y="340" on="0"/>
        <pt x="751" y="369" on="0"/>
        <pt x="694" y="389" on="0"/>
        <pt x="690" y="398" on="1"/>
        <pt x="690" y="417" on="0"/>
        <pt x="719" y="418" on="1"/>
        <pt x="738" y="418" on="0"/>
        <pt x="816" y="412" on="0"/>
        <pt x="872" y="413" on="0"/>
        <pt x="951" y="452" on="0"/>
        <pt x="979" y="483" on="1"/>
        <pt x="1024" y="533" on="0"/>
        <pt x="1024" y="577" on="1"/>
        <pt x="1024" y="671" on="0"/>
        <pt x="848" y="712" on="1"/>
        <pt x="795" y="639" on="0"/>
        <pt x="521" y="168" on="0"/>
        <pt x="447" y="88" on="1"/>
        <pt x="409" y="52" on="1"/>
        <pt x="522" y="5" on="0"/>
        <pt x="652" y="-8" on="1"/>
        <pt x="671" y="-10" on="0"/>
      </contour>
      <contour>
        <pt x="345" y="53" on="1"/>
        <pt x="228" y="109" on="0"/>
        <pt x="166" y="131" on="0"/>
        <pt x="105" y="131" on="0"/>
        <pt x="69" y="88" on="0"/>
        <pt x="69" y="53" on="0"/>
        <pt x="77" y="37" on="1"/>
        <pt x="99" y="-8" on="0"/>
        <pt x="169" y="-8" on="1"/>
        <pt x="264" y="-8" on="0"/>
      </contour>
    </TTGlyph>
    <TTGlyph name="C" xMin="60" yMin="-102" xMax="852" yMax="803">
      <contour>
        <pt x="379" y="-101" on="1"/>
        <pt x="301" y="-101" on="0"/>
        <pt x="158" y="-40" on="0"/>
        <pt x="73" y="78" on="0"/>
        <pt x="64" y="148" on="1"/>
        <pt x="60" y="178" on="0"/>
        <pt x="60" y="250" on="0"/>
        <pt x="78" y="368" on="0"/>
        <pt x="139" y="506" on="0"/>
        <pt x="181" y="559" on="1"/>
        <pt x="164" y="626" on="0"/>
        <pt x="164" y="739" on="0"/>
        <pt x="177" y="788" on="1"/>
        <pt x="179" y="796" on="0"/>
        <pt x="188" y="803" on="0"/>
        <pt x="190" y="803" on="1"/>
        <pt x="200" y="803" on="0"/>
        <pt x="192" y="754" on="0"/>
        <pt x="192" y="663" on="0"/>
        <pt x="205" y="593" on="1"/>
        <pt x="285" y="696" on="0"/>
        <pt x="393" y="743" on="1"/>
        <pt x="476" y="779" on="0"/>
        <pt x="567" y="779" on="1"/>
        <pt x="593" y="779" on="0"/>
        <pt x="621" y="776" on="1"/>
        <pt x="775" y="759" on="0"/>
        <pt x="829" y="658" on="1"/>
        <pt x="851" y="616" on="0"/>
        <pt x="851" y="526" on="0"/>
        <pt x="830" y="478" on="1"/>
        <pt x="786" y="382" on="0"/>
        <pt x="679" y="336" on="1"/>
        <pt x="610" y="306" on="0"/>
        <pt x="528" y="306" on="1"/>
        <pt x="493" y="306" on="0"/>
        <pt x="457" y="311" on="1"/>
        <pt x="278" y="337" on="0"/>
        <pt x="209" y="481" on="1"/>
        <pt x="185" y="447" on="0"/>
        <pt x="134" y="287" on="0"/>
        <pt x="126" y="201" on="0"/>
        <pt x="126" y="143" on="0"/>
        <pt x="130" y="112" on="1"/>
        <pt x="137" y="57" on="0"/>
        <pt x="207" y="-32" on="0"/>
        <pt x="324" y="-67" on="0"/>
        <pt x="367" y="-67" on="1"/>
        <pt x="506" y="-67" on="0"/>
        <pt x="604" y="-9" on="1"/>
        <pt x="663" y="26" on="0"/>
        <pt x="730" y="115" on="0"/>
        <pt x="768" y="193" on="1"/>
        <pt x="774" y="206" on="0"/>
        <pt x="787" y="198" on="0"/>
        <pt x="780" y="183" on="1"/>
        <pt x="742" y="106" on="0"/>
        <pt x="677" y="16" on="0"/>
        <pt x="621" y="-23" on="1"/>
        <pt x="509" y="-101" on="0"/>
      </contour>
      <contour>
        <pt x="229" y="513" on="1"/>
        <pt x="300" y="332" on="0"/>
        <pt x="525" y="332" on="1"/>
        <pt x="652" y="332" on="0"/>
        <pt x="805" y="474" on="0"/>
        <pt x="805" y="654" on="0"/>
        <pt x="727" y="704" on="1"/>
        <pt x="669" y="741" on="0"/>
        <pt x="499" y="741" on="0"/>
        <pt x="413" y="692" on="1"/>
        <pt x="305" y="629" on="0"/>
      </contour>
    </TTGlyph>
    <TTGlyph name="C.alt" xMin="39" yMin="-154" xMax="849" yMax="783">
      <contour>
        <pt x="806" y="615" on="1"/>
        <pt x="806" y="761" on="0"/>
        <pt x="610" y="761" on="1"/>
        <pt x="464" y="761" on="0"/>
        <pt x="236" y="565" on="0"/>
        <pt x="173" y="420" on="1"/>
        <pt x="111" y="279" on="0"/>
        <pt x="111" y="154" on="1"/>
        <pt x="111" y="78" on="0"/>
        <pt x="137" y="11" on="1"/>
        <pt x="172" y="-80" on="0"/>
        <pt x="256" y="-114" on="1"/>
        <pt x="306" y="-131" on="0"/>
        <pt x="407" y="-131" on="0"/>
        <pt x="457" y="-117" on="1"/>
        <pt x="563" y="-87" on="0"/>
        <pt x="637" y="-16" on="1"/>
        <pt x="694" y="39" on="0"/>
        <pt x="772" y="147" on="0"/>
        <pt x="805" y="226" on="1"/>
        <pt x="811" y="241" on="0"/>
        <pt x="821" y="229" on="0"/>
        <pt x="816" y="216" on="1"/>
        <pt x="787" y="144" on="0"/>
        <pt x="691" y="-5" on="0"/>
        <pt x="644" y="-48" on="1"/>
        <pt x="569" y="-116" on="0"/>
        <pt x="465" y="-142" on="1"/>
        <pt x="418" y="-154" on="0"/>
        <pt x="309" y="-154" on="0"/>
        <pt x="245" y="-136" on="1"/>
        <pt x="138" y="-100" on="0"/>
        <pt x="86" y="-6" on="1"/>
        <pt x="40" y="76" on="0"/>
        <pt x="40" y="177" on="1"/>
        <pt x="40" y="308" on="0"/>
        <pt x="184" y="586" on="0"/>
        <pt x="461" y="783" on="0"/>
        <pt x="621" y="783" on="1"/>
        <pt x="849" y="783" on="0"/>
        <pt x="849" y="586" on="1"/>
        <pt x="849" y="487" on="0"/>
        <pt x="700" y="296" on="0"/>
        <pt x="597" y="241" on="1"/>
        <pt x="514" y="200" on="0"/>
        <pt x="443" y="200" on="1"/>
        <pt x="353" y="200" on="0"/>
        <pt x="323" y="249" on="1"/>
        <pt x="306" y="277" on="0"/>
        <pt x="306" y="347" on="0"/>
        <pt x="351" y="435" on="0"/>
        <pt x="447" y="514" on="0"/>
        <pt x="557" y="552" on="0"/>
        <pt x="599" y="552" on="1"/>
        <pt x="643" y="552" on="0"/>
        <pt x="695" y="539" on="0"/>
        <pt x="696" y="537" on="1"/>
        <pt x="698" y="533" on="0"/>
        <pt x="688" y="530" on="1"/>
        <pt x="672" y="534" on="0"/>
        <pt x="614" y="534" on="0"/>
        <pt x="485" y="491" on="0"/>
        <pt x="429" y="445" on="1"/>
        <pt x="334" y="361" on="0"/>
        <pt x="334" y="299" on="1"/>
        <pt x="334" y="230" on="0"/>
        <pt x="428" y="230" on="1"/>
        <pt x="503" y="230" on="0"/>
        <pt x="679" y="341" on="0"/>
        <pt x="736" y="418" on="1"/>
        <pt x="806" y="514" on="0"/>
      </contour>
    </TTGlyph>
    <TTGlyph name="Cacute" xMin="64" yMin="-102" xMax="844" yMax="850">
      <contour>
        <pt x="527" y="371" on="1"/>
        <pt x="299" y="371" on="0"/>
        <pt x="216" y="507" on="1"/>
        <pt x="204" y="494" on="0"/>
        <pt x="161" y="392" on="0"/>
        <pt x="145" y="318" on="1"/>
        <pt x="127" y="236" on="0"/>
        <pt x="127" y="93" on="0"/>
        <pt x="196" y="-28" on="0"/>
        <pt x="269" y="-51" on="1"/>
        <pt x="324" y="-67" on="0"/>
        <pt x="367" y="-67" on="1"/>
        <pt x="506" y="-67" on="0"/>
        <pt x="604" y="-9" on="1"/>
        <pt x="663" y="26" on="0"/>
        <pt x="730" y="115" on="0"/>
        <pt x="768" y="193" on="1"/>
        <pt x="774" y="206" on="0"/>
        <pt x="787" y="198" on="0"/>
        <pt x="780" y="183" on="1"/>
        <pt x="742" y="106" on="0"/>
        <pt x="677" y="16" on="0"/>
        <pt x="621" y="-23" on="1"/>
        <pt x="509" y="-101" on="0"/>
        <pt x="379" y="-101" on="1"/>
        <pt x="301" y="-101" on="0"/>
        <pt x="158" y="-40" on="0"/>
        <pt x="75" y="87" on="0"/>
        <pt x="68" y="162" on="1"/>
        <pt x="65" y="190" on="0"/>
        <pt x="65" y="266" on="0"/>
        <pt x="85" y="393" on="0"/>
        <pt x="148" y="527" on="0"/>
        <pt x="189" y="568" on="1"/>
        <pt x="172" y="620" on="0"/>
        <pt x="172" y="709" on="0"/>
        <pt x="185" y="747" on="1"/>
        <pt x="187" y="753" on="0"/>
        <pt x="198" y="760" on="0"/>
        <pt x="206" y="753" on="0"/>
        <pt x="199" y="720" on="0"/>
        <pt x="199" y="650" on="0"/>
        <pt x="212" y="595" on="1"/>
        <pt x="290" y="675" on="0"/>
        <pt x="396" y="712" on="1"/>
        <pt x="477" y="740" on="0"/>
        <pt x="564" y="740" on="1"/>
        <pt x="591" y="740" on="0"/>
        <pt x="618" y="737" on="1"/>
        <pt x="776" y="723" on="0"/>
        <pt x="825" y="639" on="1"/>
        <pt x="843" y="608" on="0"/>
        <pt x="843" y="538" on="0"/>
        <pt x="817" y="498" on="1"/>
        <pt x="764" y="416" on="0"/>
        <pt x="642" y="385" on="1"/>
        <pt x="588" y="371" on="0"/>
      </contour>
      <contour>
        <pt x="235" y="532" on="1"/>
        <pt x="305" y="391" on="0"/>
        <pt x="525" y="391" on="1"/>
        <pt x="656" y="391" on="0"/>
        <pt x="736" y="456" on="1"/>
        <pt x="797" y="507" on="0"/>
        <pt x="797" y="569" on="1"/>
        <pt x="797" y="648" on="0"/>
        <pt x="710" y="687" on="1"/>
        <pt x="656" y="710" on="0"/>
        <pt x="499" y="710" on="0"/>
        <pt x="310" y="623" on="0"/>
      </contour>
      <contour>
        <pt x="801" y="824" on="1"/>
        <pt x="797" y="814" on="0"/>
        <pt x="658" y="751" on="0"/>
        <pt x="653" y="751" on="1"/>
        <pt x="643" y="751" on="0"/>
        <pt x="643" y="757" on="1"/>
        <pt x="643" y="759" on="0"/>
        <pt x="646" y="765" on="0"/>
        <pt x="668" y="781" on="1"/>
        <pt x="736" y="829" on="0"/>
        <pt x="764" y="850" on="0"/>
        <pt x="775" y="850" on="1"/>
        <pt x="803" y="850" on="0"/>
        <pt x="803" y="833" on="1"/>
        <pt x="803" y="829" on="0"/>
      </contour>
    </TTGlyph>
    <TTGlyph name="Ccaron" xMin="59" yMin="-102" xMax="834" yMax="850">
      <contour>
        <pt x="803" y="843" on="1"/>
        <pt x="810" y="849" on="0"/>
        <pt x="830" y="849" on="0"/>
        <pt x="830" y="844" on="0"/>
        <pt x="828" y="843" on="1"/>
        <pt x="679" y="737" on="1"/>
        <pt x="660" y="734" on="0"/>
        <pt x="642" y="734" on="0"/>
        <pt x="641" y="737" on="1"/>
        <pt x="605" y="843" on="1"/>
        <pt x="602" y="849" on="0"/>
        <pt x="611" y="849" on="1"/>
        <pt x="611" y="849" on="0"/>
        <pt x="622" y="849" on="0"/>
        <pt x="625" y="843" on="1"/>
        <pt x="671" y="772" on="1"/>
        <pt x="790" y="836" on="0"/>
      </contour>
      <contour>
        <pt x="517" y="342" on="1"/>
        <pt x="289" y="342" on="0"/>
        <pt x="206" y="478" on="1"/>
        <pt x="194" y="465" on="0"/>
        <pt x="153" y="369" on="0"/>
        <pt x="124" y="229" on="0"/>
        <pt x="124" y="90" on="0"/>
        <pt x="196" y="-28" on="0"/>
        <pt x="324" y="-67" on="0"/>
        <pt x="367" y="-67" on="1"/>
        <pt x="506" y="-67" on="0"/>
        <pt x="604" y="-9" on="1"/>
        <pt x="663" y="26" on="0"/>
        <pt x="730" y="115" on="0"/>
        <pt x="768" y="193" on="1"/>
        <pt x="774" y="206" on="0"/>
        <pt x="787" y="198" on="0"/>
        <pt x="780" y="183" on="1"/>
        <pt x="742" y="106" on="0"/>
        <pt x="677" y="16" on="0"/>
        <pt x="621" y="-23" on="1"/>
        <pt x="509" y="-101" on="0"/>
        <pt x="379" y="-101" on="1"/>
        <pt x="301" y="-101" on="0"/>
        <pt x="158" y="-40" on="0"/>
        <pt x="73" y="81" on="0"/>
        <pt x="64" y="152" on="1"/>
        <pt x="60" y="183" on="0"/>
        <pt x="60" y="255" on="0"/>
        <pt x="77" y="370" on="0"/>
        <pt x="138" y="498" on="0"/>
        <pt x="179" y="539" on="1"/>
        <pt x="162" y="591" on="0"/>
        <pt x="162" y="680" on="0"/>
        <pt x="175" y="718" on="1"/>
        <pt x="179" y="729" on="0"/>
        <pt x="188" y="729" on="1"/>
        <pt x="197" y="729" on="0"/>
        <pt x="189" y="691" on="0"/>
        <pt x="189" y="621" on="0"/>
        <pt x="202" y="566" on="1"/>
        <pt x="280" y="646" on="0"/>
        <pt x="386" y="682" on="1"/>
        <pt x="467" y="711" on="0"/>
        <pt x="554" y="711" on="1"/>
        <pt x="581" y="711" on="0"/>
        <pt x="608" y="708" on="1"/>
        <pt x="766" y="694" on="0"/>
        <pt x="815" y="610" on="1"/>
        <pt x="833" y="579" on="0"/>
        <pt x="833" y="509" on="0"/>
        <pt x="807" y="469" on="1"/>
        <pt x="754" y="387" on="0"/>
        <pt x="632" y="356" on="1"/>
        <pt x="578" y="342" on="0"/>
      </contour>
      <contour>
        <pt x="225" y="503" on="1"/>
        <pt x="295" y="362" on="0"/>
        <pt x="515" y="362" on="1"/>
        <pt x="646" y="362" on="0"/>
        <pt x="726" y="427" on="1"/>
        <pt x="787" y="478" on="0"/>
        <pt x="787" y="540" on="1"/>
        <pt x="787" y="619" on="0"/>
        <pt x="700" y="658" on="1"/>
        <pt x="646" y="681" on="0"/>
        <pt x="489" y="681" on="0"/>
        <pt x="300" y="594" on="0"/>
      </contour>
    </TTGlyph>
    <TTGlyph name="Ccedilla" xMin="60" yMin="-302" xMax="852" yMax="803">
      <contour>
        <pt x="414" y="-133" on="0"/>
        <pt x="490" y="-171" on="0"/>
        <pt x="490" y="-250" on="0"/>
        <pt x="438" y="-285" on="1"/>
        <pt x="412" y="-302" on="0"/>
        <pt x="329" y="-302" on="0"/>
        <pt x="236" y="-279" on="0"/>
        <pt x="236" y="-256" on="1"/>
        <pt x="236" y="-249" on="0"/>
        <pt x="246" y="-249" on="0"/>
        <pt x="257" y="-260" on="1"/>
        <pt x="281" y="-285" on="0"/>
        <pt x="416" y="-285" on="0"/>
        <pt x="439" y="-249" on="1"/>
        <pt x="453" y="-228" on="0"/>
        <pt x="453" y="-181" on="0"/>
        <pt x="407" y="-151" on="0"/>
        <pt x="356" y="-151" on="0"/>
        <pt x="308" y="-175" on="0"/>
        <pt x="299" y="-175" on="0"/>
        <pt x="287" y="-166" on="0"/>
        <pt x="287" y="-155" on="0"/>
        <pt x="298" y="-143" on="0"/>
        <pt x="355" y="-100" on="1"/>
        <pt x="289" y="-95" on="0"/>
        <pt x="158" y="-40" on="0"/>
        <pt x="73" y="78" on="0"/>
        <pt x="64" y="148" on="1"/>
        <pt x="60" y="178" on="0"/>
        <pt x="60" y="250" on="0"/>
        <pt x="78" y="368" on="0"/>
        <pt x="139" y="506" on="0"/>
        <pt x="181" y="559" on="1"/>
        <pt x="164" y="626" on="0"/>
        <pt x="164" y="739" on="0"/>
        <pt x="177" y="788" on="1"/>
        <pt x="179" y="796" on="0"/>
        <pt x="188" y="803" on="0"/>
        <pt x="190" y="803" on="1"/>
        <pt x="200" y="803" on="0"/>
        <pt x="192" y="754" on="0"/>
        <pt x="192" y="663" on="0"/>
        <pt x="205" y="593" on="1"/>
        <pt x="285" y="696" on="0"/>
        <pt x="393" y="743" on="1"/>
        <pt x="476" y="779" on="0"/>
        <pt x="567" y="779" on="1"/>
        <pt x="593" y="779" on="0"/>
        <pt x="621" y="776" on="1"/>
        <pt x="775" y="759" on="0"/>
        <pt x="829" y="658" on="1"/>
        <pt x="851" y="616" on="0"/>
        <pt x="851" y="526" on="0"/>
        <pt x="830" y="478" on="1"/>
        <pt x="786" y="382" on="0"/>
        <pt x="679" y="336" on="1"/>
        <pt x="610" y="306" on="0"/>
        <pt x="528" y="306" on="1"/>
        <pt x="493" y="306" on="0"/>
        <pt x="457" y="311" on="1"/>
        <pt x="278" y="337" on="0"/>
        <pt x="209" y="481" on="1"/>
        <pt x="185" y="447" on="0"/>
        <pt x="134" y="287" on="0"/>
        <pt x="126" y="201" on="0"/>
        <pt x="126" y="143" on="0"/>
        <pt x="130" y="112" on="1"/>
        <pt x="137" y="57" on="0"/>
        <pt x="207" y="-32" on="0"/>
        <pt x="324" y="-67" on="0"/>
        <pt x="367" y="-67" on="1"/>
        <pt x="506" y="-67" on="0"/>
        <pt x="604" y="-9" on="1"/>
        <pt x="663" y="26" on="0"/>
        <pt x="730" y="115" on="0"/>
        <pt x="768" y="193" on="1"/>
        <pt x="774" y="206" on="0"/>
        <pt x="787" y="198" on="0"/>
        <pt x="780" y="183" on="1"/>
        <pt x="742" y="106" on="0"/>
        <pt x="677" y="16" on="0"/>
        <pt x="619" y="-25" on="1"/>
        <pt x="507" y="-101" on="0"/>
        <pt x="384" y="-101" on="1"/>
        <pt x="380" y="-101" on="0"/>
        <pt x="375" y="-101" on="1"/>
        <pt x="373" y="-103" on="0"/>
        <pt x="361" y="-111" on="1"/>
        <pt x="332" y="-130" on="0"/>
        <pt x="332" y="-136" on="1"/>
        <pt x="352" y="-133" on="0"/>
      </contour>
      <contour>
        <pt x="305" y="629" on="0"/>
        <pt x="229" y="513" on="1"/>
        <pt x="300" y="332" on="0"/>
        <pt x="525" y="332" on="1"/>
        <pt x="652" y="332" on="0"/>
        <pt x="805" y="474" on="0"/>
        <pt x="805" y="654" on="0"/>
        <pt x="727" y="704" on="1"/>
        <pt x="669" y="741" on="0"/>
        <pt x="499" y="741" on="0"/>
        <pt x="413" y="692" on="1"/>
      </contour>
    </TTGlyph>
    <TTGlyph name="Ccircumflex" xMin="64" yMin="-102" xMax="844" yMax="850">
      <contour>
        <pt x="736" y="850" on="0"/>
        <pt x="752" y="850" on="0"/>
        <pt x="753" y="848" on="1"/>
        <pt x="786" y="752" on="1"/>
        <pt x="788" y="746" on="0"/>
        <pt x="781" y="746" on="1"/>
        <pt x="772" y="746" on="0"/>
        <pt x="768" y="752" on="1"/>
        <pt x="726" y="816" on="1"/>
        <pt x="627" y="769" on="0"/>
        <pt x="615" y="763" on="1"/>
        <pt x="606" y="754" on="0"/>
        <pt x="593" y="758" on="1"/>
        <pt x="591" y="761" on="0"/>
        <pt x="592" y="763" on="1"/>
        <pt x="719" y="848" on="1"/>
      </contour>
      <contour>
        <pt x="527" y="371" on="1"/>
        <pt x="299" y="371" on="0"/>
        <pt x="216" y="507" on="1"/>
        <pt x="204" y="494" on="0"/>
        <pt x="161" y="392" on="0"/>
        <pt x="145" y="318" on="1"/>
        <pt x="127" y="236" on="0"/>
        <pt x="127" y="93" on="0"/>
        <pt x="196" y="-28" on="0"/>
        <pt x="269" y="-51" on="1"/>
        <pt x="324" y="-67" on="0"/>
        <pt x="367" y="-67" on="1"/>
        <pt x="506" y="-67" on="0"/>
        <pt x="604" y="-9" on="1"/>
        <pt x="663" y="26" on="0"/>
        <pt x="730" y="115" on="0"/>
        <pt x="768" y="193" on="1"/>
        <pt x="774" y="206" on="0"/>
        <pt x="787" y="198" on="0"/>
        <pt x="780" y="183" on="1"/>
        <pt x="742" y="106" on="0"/>
        <pt x="677" y="16" on="0"/>
        <pt x="621" y="-23" on="1"/>
        <pt x="509" y="-101" on="0"/>
        <pt x="379" y="-101" on="1"/>
        <pt x="301" y="-101" on="0"/>
        <pt x="158" y="-40" on="0"/>
        <pt x="75" y="87" on="0"/>
        <pt x="68" y="162" on="1"/>
        <pt x="65" y="190" on="0"/>
        <pt x="65" y="266" on="0"/>
        <pt x="85" y="393" on="0"/>
        <pt x="148" y="527" on="0"/>
        <pt x="189" y="568" on="1"/>
        <pt x="172" y="620" on="0"/>
        <pt x="172" y="709" on="0"/>
        <pt x="185" y="747" on="1"/>
        <pt x="189" y="758" on="0"/>
        <pt x="198" y="758" on="1"/>
        <pt x="207" y="758" on="0"/>
        <pt x="199" y="720" on="0"/>
        <pt x="199" y="650" on="0"/>
        <pt x="212" y="595" on="1"/>
        <pt x="290" y="675" on="0"/>
        <pt x="396" y="712" on="1"/>
        <pt x="477" y="740" on="0"/>
        <pt x="564" y="740" on="1"/>
        <pt x="591" y="740" on="0"/>
        <pt x="618" y="737" on="1"/>
        <pt x="776" y="723" on="0"/>
        <pt x="825" y="639" on="1"/>
        <pt x="843" y="608" on="0"/>
        <pt x="843" y="538" on="0"/>
        <pt x="817" y="498" on="1"/>
        <pt x="764" y="416" on="0"/>
        <pt x="642" y="385" on="1"/>
        <pt x="588" y="371" on="0"/>
      </contour>
      <contour>
        <pt x="235" y="532" on="1"/>
        <pt x="305" y="391" on="0"/>
        <pt x="525" y="391" on="1"/>
        <pt x="656" y="391" on="0"/>
        <pt x="736" y="456" on="1"/>
        <pt x="797" y="507" on="0"/>
        <pt x="797" y="569" on="1"/>
        <pt x="797" y="648" on="0"/>
        <pt x="710" y="687" on="1"/>
        <pt x="656" y="710" on="0"/>
        <pt x="499" y="710" on="0"/>
        <pt x="310" y="623" on="0"/>
      </contour>
    </TTGlyph>
    <TTGlyph name="Cdotaccent" xMin="64" yMin="-102" xMax="844" yMax="850">
      <contour>
        <pt x="730" y="850" on="1"/>
        <pt x="754" y="850" on="0"/>
        <pt x="754" y="820" on="1"/>
        <pt x="754" y="805" on="0"/>
        <pt x="724" y="774" on="0"/>
        <pt x="683" y="774" on="0"/>
        <pt x="683" y="794" on="1"/>
        <pt x="683" y="811" on="0"/>
        <pt x="714" y="850" on="0"/>
      </contour>
      <contour>
        <pt x="527" y="371" on="1"/>
        <pt x="299" y="371" on="0"/>
        <pt x="216" y="507" on="1"/>
        <pt x="204" y="494" on="0"/>
        <pt x="161" y="392" on="0"/>
        <pt x="145" y="318" on="1"/>
        <pt x="127" y="236" on="0"/>
        <pt x="127" y="93" on="0"/>
        <pt x="196" y="-28" on="0"/>
        <pt x="269" y="-51" on="1"/>
        <pt x="324" y="-67" on="0"/>
        <pt x="367" y="-67" on="1"/>
        <pt x="506" y="-67" on="0"/>
        <pt x="604" y="-9" on="1"/>
        <pt x="663" y="26" on="0"/>
        <pt x="730" y="115" on="0"/>
        <pt x="768" y="193" on="1"/>
        <pt x="774" y="206" on="0"/>
        <pt x="787" y="198" on="0"/>
        <pt x="780" y="183" on="1"/>
        <pt x="742" y="106" on="0"/>
        <pt x="677" y="16" on="0"/>
        <pt x="621" y="-23" on="1"/>
        <pt x="509" y="-101" on="0"/>
        <pt x="379" y="-101" on="1"/>
        <pt x="301" y="-101" on="0"/>
        <pt x="158" y="-40" on="0"/>
        <pt x="75" y="87" on="0"/>
        <pt x="68" y="162" on="1"/>
        <pt x="65" y="190" on="0"/>
        <pt x="65" y="266" on="0"/>
        <pt x="85" y="393" on="0"/>
        <pt x="148" y="527" on="0"/>
        <pt x="189" y="568" on="1"/>
        <pt x="172" y="620" on="0"/>
        <pt x="172" y="709" on="0"/>
        <pt x="185" y="747" on="1"/>
        <pt x="189" y="758" on="0"/>
        <pt x="198" y="758" on="1"/>
        <pt x="207" y="758" on="0"/>
        <pt x="199" y="720" on="0"/>
        <pt x="199" y="650" on="0"/>
        <pt x="212" y="595" on="1"/>
        <pt x="290" y="675" on="0"/>
        <pt x="396" y="712" on="1"/>
        <pt x="477" y="740" on="0"/>
        <pt x="564" y="740" on="1"/>
        <pt x="591" y="740" on="0"/>
        <pt x="618" y="737" on="1"/>
        <pt x="776" y="723" on="0"/>
        <pt x="825" y="639" on="1"/>
        <pt x="843" y="608" on="0"/>
        <pt x="843" y="538" on="0"/>
        <pt x="817" y="498" on="1"/>
        <pt x="764" y="416" on="0"/>
        <pt x="642" y="385" on="1"/>
        <pt x="588" y="371" on="0"/>
      </contour>
      <contour>
        <pt x="235" y="532" on="1"/>
        <pt x="305" y="391" on="0"/>
        <pt x="525" y="391" on="1"/>
        <pt x="656" y="391" on="0"/>
        <pt x="736" y="456" on="1"/>
        <pt x="797" y="507" on="0"/>
        <pt x="797" y="569" on="1"/>
        <pt x="797" y="648" on="0"/>
        <pt x="710" y="687" on="1"/>
        <pt x="656" y="710" on="0"/>
        <pt x="499" y="710" on="0"/>
        <pt x="310" y="623" on="0"/>
      </contour>
    </TTGlyph>
    <TTGlyph name="D" xMin="2" yMin="-39" xMax="1026" yMax="786">
      <contour>
        <pt x="375" y="36" on="1"/>
        <pt x="282" y="-39" on="0"/>
        <pt x="169" y="-39" on="1"/>
        <pt x="40" y="-39" on="0"/>
        <pt x="10" y="33" on="1"/>
        <pt x="3" y="50" on="0"/>
        <pt x="3" y="95" on="0"/>
        <pt x="26" y="121" on="1"/>
        <pt x="62" y="162" on="0"/>
        <pt x="126" y="162" on="1"/>
        <pt x="169" y="162" on="0"/>
        <pt x="256" y="131" on="0"/>
        <pt x="367" y="72" on="1"/>
        <pt x="417" y="120" on="0"/>
        <pt x="517" y="280" on="0"/>
        <pt x="590" y="429" on="0"/>
        <pt x="695" y="605" on="0"/>
        <pt x="747" y="663" on="1"/>
        <pt x="635" y="730" on="0"/>
        <pt x="509" y="730" on="1"/>
        <pt x="457" y="730" on="0"/>
        <pt x="403" y="719" on="1"/>
        <pt x="248" y="686" on="0"/>
        <pt x="167" y="584" on="1"/>
        <pt x="117" y="522" on="0"/>
        <pt x="117" y="466" on="1"/>
        <pt x="117" y="390" on="0"/>
        <pt x="190" y="367" on="1"/>
        <pt x="216" y="360" on="0"/>
        <pt x="254" y="360" on="0"/>
        <pt x="301" y="372" on="0"/>
        <pt x="324" y="394" on="1"/>
        <pt x="368" y="438" on="0"/>
        <pt x="371" y="476" on="1"/>
        <pt x="372" y="485" on="0"/>
        <pt x="393" y="480" on="0"/>
        <pt x="391" y="467" on="1"/>
        <pt x="381" y="394" on="0"/>
        <pt x="314" y="356" on="1"/>
        <pt x="273" y="334" on="0"/>
        <pt x="232" y="334" on="1"/>
        <pt x="180" y="343" on="1"/>
        <pt x="104" y="369" on="0"/>
        <pt x="80" y="440" on="1"/>
        <pt x="70" y="467" on="0"/>
        <pt x="70" y="494" on="1"/>
        <pt x="70" y="549" on="0"/>
        <pt x="111" y="603" on="1"/>
        <pt x="199" y="721" on="0"/>
        <pt x="423" y="754" on="1"/>
        <pt x="467" y="760" on="0"/>
        <pt x="510" y="760" on="1"/>
        <pt x="649" y="760" on="0"/>
        <pt x="775" y="694" on="1"/>
        <pt x="814" y="739" on="0"/>
        <pt x="880" y="786" on="0"/>
        <pt x="900" y="786" on="1"/>
        <pt x="911" y="786" on="0"/>
        <pt x="915" y="777" on="0"/>
        <pt x="910" y="772" on="0"/>
        <pt x="906" y="772" on="1"/>
        <pt x="889" y="772" on="0"/>
        <pt x="835" y="700" on="0"/>
        <pt x="818" y="669" on="1"/>
        <pt x="925" y="598" on="0"/>
        <pt x="981" y="487" on="1"/>
        <pt x="1026" y="398" on="0"/>
        <pt x="1026" y="293" on="1"/>
        <pt x="1026" y="163" on="0"/>
        <pt x="964" y="86" on="1"/>
        <pt x="913" y="23" on="0"/>
        <pt x="840" y="-3" on="1"/>
        <pt x="753" y="-34" on="0"/>
        <pt x="668" y="-34" on="1"/>
        <pt x="496" y="-34" on="0"/>
      </contour>
      <contour>
        <pt x="399" y="54" on="1"/>
        <pt x="500" y="-6" on="0"/>
        <pt x="636" y="-6" on="1"/>
        <pt x="794" y="-6" on="0"/>
        <pt x="888" y="84" on="1"/>
        <pt x="963" y="157" on="0"/>
        <pt x="963" y="286" on="1"/>
        <pt x="963" y="378" on="0"/>
        <pt x="927" y="459" on="1"/>
        <pt x="882" y="562" on="0"/>
        <pt x="794" y="631" on="1"/>
        <pt x="765" y="586" on="0"/>
        <pt x="600" y="313" on="0"/>
        <pt x="486" y="143" on="0"/>
        <pt x="420" y="72" on="0"/>
      </contour>
      <contour>
        <pt x="341" y="52" on="1"/>
        <pt x="224" y="108" on="0"/>
        <pt x="162" y="130" on="0"/>
        <pt x="103" y="130" on="0"/>
        <pt x="68" y="86" on="0"/>
        <pt x="68" y="51" on="0"/>
        <pt x="76" y="35" on="1"/>
        <pt x="97" y="-8" on="0"/>
        <pt x="162" y="-8" on="1"/>
        <pt x="258" y="-8" on="0"/>
      </contour>
    </TTGlyph>
    <TTGlyph name="Dcaron" xMin="2" yMin="-40" xMax="1030" yMax="851">
      <contour>
        <pt x="665" y="-34" on="1"/>
        <pt x="496" y="-34" on="0"/>
        <pt x="375" y="30" on="1"/>
        <pt x="283" y="-40" on="0"/>
        <pt x="169" y="-40" on="1"/>
        <pt x="40" y="-40" on="0"/>
        <pt x="10" y="27" on="1"/>
        <pt x="3" y="42" on="0"/>
        <pt x="3" y="85" on="0"/>
        <pt x="27" y="109" on="1"/>
        <pt x="64" y="146" on="0"/>
        <pt x="126" y="146" on="1"/>
        <pt x="168" y="146" on="0"/>
        <pt x="266" y="114" on="0"/>
        <pt x="367" y="63" on="1"/>
        <pt x="417" y="107" on="0"/>
        <pt x="517" y="255" on="0"/>
        <pt x="590" y="393" on="0"/>
        <pt x="695" y="555" on="0"/>
        <pt x="747" y="609" on="1"/>
        <pt x="634" y="671" on="0"/>
        <pt x="508" y="671" on="1"/>
        <pt x="457" y="671" on="0"/>
        <pt x="403" y="661" on="1"/>
        <pt x="245" y="630" on="0"/>
        <pt x="164" y="533" on="1"/>
        <pt x="117" y="477" on="0"/>
        <pt x="117" y="427" on="1"/>
        <pt x="117" y="356" on="0"/>
        <pt x="190" y="335" on="1"/>
        <pt x="215" y="329" on="0"/>
        <pt x="253" y="329" on="0"/>
        <pt x="301" y="340" on="0"/>
        <pt x="324" y="361" on="1"/>
        <pt x="369" y="402" on="0"/>
        <pt x="371" y="436" on="1"/>
        <pt x="372" y="444" on="0"/>
        <pt x="393" y="440" on="0"/>
        <pt x="391" y="428" on="1"/>
        <pt x="381" y="361" on="0"/>
        <pt x="314" y="326" on="1"/>
        <pt x="274" y="305" on="0"/>
        <pt x="206" y="305" on="0"/>
        <pt x="180" y="313" on="1"/>
        <pt x="103" y="338" on="0"/>
        <pt x="79" y="405" on="1"/>
        <pt x="70" y="429" on="0"/>
        <pt x="70" y="453" on="1"/>
        <pt x="70" y="505" on="0"/>
        <pt x="113" y="556" on="1"/>
        <pt x="201" y="663" on="0"/>
        <pt x="423" y="693" on="1"/>
        <pt x="468" y="699" on="0"/>
        <pt x="512" y="699" on="1"/>
        <pt x="649" y="699" on="0"/>
        <pt x="775" y="638" on="1"/>
        <pt x="814" y="680" on="0"/>
        <pt x="880" y="723" on="0"/>
        <pt x="899" y="723" on="1"/>
        <pt x="911" y="723" on="0"/>
        <pt x="915" y="715" on="0"/>
        <pt x="910" y="710" on="0"/>
        <pt x="906" y="710" on="1"/>
        <pt x="889" y="710" on="0"/>
        <pt x="835" y="644" on="0"/>
        <pt x="818" y="615" on="1"/>
        <pt x="925" y="549" on="0"/>
        <pt x="981" y="446" on="1"/>
        <pt x="1026" y="364" on="0"/>
        <pt x="1026" y="267" on="1"/>
        <pt x="1026" y="125" on="0"/>
        <pt x="938" y="50" on="1"/>
        <pt x="863" y="-13" on="0"/>
        <pt x="762" y="-27" on="1"/>
        <pt x="714" y="-34" on="0"/>
      </contour>
      <contour>
        <pt x="399" y="46" on="1"/>
        <pt x="498" y="-9" on="0"/>
        <pt x="634" y="-9" on="1"/>
        <pt x="793" y="-9" on="0"/>
        <pt x="888" y="74" on="1"/>
        <pt x="963" y="141" on="0"/>
        <pt x="963" y="261" on="1"/>
        <pt x="963" y="346" on="0"/>
        <pt x="927" y="420" on="1"/>
        <pt x="882" y="515" on="0"/>
        <pt x="794" y="579" on="1"/>
        <pt x="766" y="538" on="0"/>
        <pt x="600" y="285" on="0"/>
        <pt x="544" y="207" on="1"/>
        <pt x="461" y="94" on="0"/>
      </contour>
      <contour>
        <pt x="341" y="44" on="1"/>
        <pt x="234" y="93" on="0"/>
        <pt x="161" y="116" on="0"/>
        <pt x="102" y="116" on="0"/>
        <pt x="68" y="75" on="0"/>
        <pt x="68" y="43" on="0"/>
        <pt x="76" y="28" on="1"/>
        <pt x="98" y="-11" on="0"/>
        <pt x="163" y="-11" on="1"/>
        <pt x="259" y="-11" on="0"/>
      </contour>
      <contour>
        <pt x="1003" y="844" on="1"/>
        <pt x="1011" y="850" on="0"/>
        <pt x="1030" y="850" on="0"/>
        <pt x="1030" y="845" on="0"/>
        <pt x="1028" y="844" on="1"/>
        <pt x="879" y="746" on="1"/>
        <pt x="860" y="744" on="0"/>
        <pt x="842" y="744" on="0"/>
        <pt x="841" y="746" on="1"/>
        <pt x="805" y="844" on="1"/>
        <pt x="804" y="845" on="0"/>
        <pt x="804" y="849" on="0"/>
        <pt x="821" y="849" on="0"/>
        <pt x="825" y="844" on="1"/>
        <pt x="871" y="778" on="1"/>
        <pt x="990" y="838" on="0"/>
      </contour>
    </TTGlyph>
    <TTGlyph name="Dcroat" xMin="2" yMin="-39" xMax="1026" yMax="786">
      <contour>
        <pt x="375" y="36" on="1"/>
        <pt x="282" y="-39" on="0"/>
        <pt x="169" y="-39" on="1"/>
        <pt x="40" y="-39" on="0"/>
        <pt x="10" y="33" on="1"/>
        <pt x="3" y="50" on="0"/>
        <pt x="3" y="95" on="0"/>
        <pt x="26" y="121" on="1"/>
        <pt x="62" y="162" on="0"/>
        <pt x="126" y="162" on="1"/>
        <pt x="169" y="162" on="0"/>
        <pt x="256" y="131" on="0"/>
        <pt x="367" y="72" on="1"/>
        <pt x="434" y="137" on="0"/>
        <pt x="513" y="280" on="1"/>
        <pt x="431" y="271" on="1"/>
        <pt x="424" y="270" on="0"/>
        <pt x="412" y="294" on="0"/>
        <pt x="418" y="319" on="0"/>
        <pt x="431" y="319" on="1"/>
        <pt x="488" y="319" on="0"/>
        <pt x="534" y="318" on="1"/>
        <pt x="566" y="381" on="0"/>
        <pt x="653" y="537" on="0"/>
        <pt x="668" y="558" on="1"/>
        <pt x="708" y="618" on="0"/>
        <pt x="747" y="663" on="1"/>
        <pt x="635" y="730" on="0"/>
        <pt x="509" y="730" on="1"/>
        <pt x="457" y="730" on="0"/>
        <pt x="403" y="719" on="1"/>
        <pt x="248" y="686" on="0"/>
        <pt x="167" y="584" on="1"/>
        <pt x="117" y="522" on="0"/>
        <pt x="117" y="466" on="1"/>
        <pt x="117" y="390" on="0"/>
        <pt x="190" y="367" on="1"/>
        <pt x="216" y="360" on="0"/>
        <pt x="254" y="360" on="0"/>
        <pt x="301" y="372" on="0"/>
        <pt x="324" y="394" on="1"/>
        <pt x="368" y="438" on="0"/>
        <pt x="371" y="476" on="1"/>
        <pt x="372" y="485" on="0"/>
        <pt x="393" y="480" on="0"/>
        <pt x="391" y="467" on="1"/>
        <pt x="381" y="394" on="0"/>
        <pt x="314" y="356" on="1"/>
        <pt x="273" y="334" on="0"/>
        <pt x="232" y="334" on="1"/>
        <pt x="180" y="343" on="1"/>
        <pt x="104" y="369" on="0"/>
        <pt x="80" y="440" on="1"/>
        <pt x="70" y="467" on="0"/>
        <pt x="70" y="494" on="1"/>
        <pt x="70" y="549" on="0"/>
        <pt x="111" y="603" on="1"/>
        <pt x="199" y="721" on="0"/>
        <pt x="423" y="754" on="1"/>
        <pt x="467" y="760" on="0"/>
        <pt x="510" y="760" on="1"/>
        <pt x="649" y="760" on="0"/>
        <pt x="775" y="694" on="1"/>
        <pt x="814" y="739" on="0"/>
        <pt x="880" y="786" on="0"/>
        <pt x="900" y="786" on="1"/>
        <pt x="911" y="786" on="0"/>
        <pt x="915" y="777" on="0"/>
        <pt x="910" y="772" on="0"/>
        <pt x="906" y="772" on="1"/>
        <pt x="889" y="772" on="0"/>
        <pt x="835" y="700" on="0"/>
        <pt x="818" y="669" on="1"/>
        <pt x="925" y="598" on="0"/>
        <pt x="981" y="487" on="1"/>
        <pt x="1026" y="398" on="0"/>
        <pt x="1026" y="293" on="1"/>
        <pt x="1026" y="163" on="0"/>
        <pt x="964" y="86" on="1"/>
        <pt x="913" y="23" on="0"/>
        <pt x="840" y="-3" on="1"/>
        <pt x="753" y="-34" on="0"/>
        <pt x="668" y="-34" on="1"/>
        <pt x="496" y="-34" on="0"/>
      </contour>
      <contour>
        <pt x="399" y="54" on="1"/>
        <pt x="500" y="-6" on="0"/>
        <pt x="636" y="-6" on="1"/>
        <pt x="794" y="-6" on="0"/>
        <pt x="888" y="84" on="1"/>
        <pt x="963" y="157" on="0"/>
        <pt x="963" y="286" on="1"/>
        <pt x="963" y="378" on="0"/>
        <pt x="927" y="459" on="1"/>
        <pt x="882" y="562" on="0"/>
        <pt x="794" y="631" on="1"/>
        <pt x="758" y="576" on="0"/>
        <pt x="624" y="353" on="0"/>
        <pt x="601" y="316" on="1"/>
        <pt x="651" y="315" on="1"/>
        <pt x="668" y="314" on="0"/>
        <pt x="672" y="302" on="1"/>
        <pt x="670" y="290" on="0"/>
        <pt x="655" y="288" on="1"/>
        <pt x="627" y="288" on="0"/>
        <pt x="581" y="286" on="1"/>
        <pt x="474" y="118" on="0"/>
      </contour>
      <contour>
        <pt x="341" y="52" on="1"/>
        <pt x="224" y="108" on="0"/>
        <pt x="162" y="130" on="0"/>
        <pt x="103" y="130" on="0"/>
        <pt x="68" y="86" on="0"/>
        <pt x="68" y="51" on="0"/>
        <pt x="76" y="35" on="1"/>
        <pt x="97" y="-8" on="0"/>
        <pt x="162" y="-8" on="1"/>
        <pt x="258" y="-8" on="0"/>
      </contour>
    </TTGlyph>
    <TTGlyph name="Delta" xMin="79" yMin="-10" xMax="525" yMax="448">
      <contour>
        <pt x="102" y="-10" on="1"/>
        <pt x="94" y="-10" on="0"/>
        <pt x="79" y="14" on="0"/>
        <pt x="79" y="23" on="1"/>
        <pt x="80" y="27" on="0"/>
        <pt x="305" y="415" on="0"/>
        <pt x="308" y="417" on="1"/>
        <pt x="312" y="427" on="0"/>
        <pt x="335" y="448" on="0"/>
        <pt x="350" y="448" on="0"/>
        <pt x="354" y="444" on="1"/>
        <pt x="523" y="64" on="1"/>
        <pt x="525" y="55" on="1"/>
        <pt x="524" y="15" on="0"/>
        <pt x="476" y="-10" on="1"/>
      </contour>
      <contour>
        <pt x="318" y="360" on="1"/>
        <pt x="131" y="41" on="1"/>
        <pt x="456" y="41" on="1"/>
      </contour>
    </TTGlyph>
    <TTGlyph name="E" xMin="20" yMin="-55" xMax="870" yMax="805">
      <contour>
        <pt x="492" y="375" on="1"/>
        <pt x="385" y="376" on="1"/>
        <pt x="253" y="376" on="0"/>
        <pt x="179" y="312" on="1"/>
        <pt x="92" y="238" on="0"/>
        <pt x="92" y="140" on="1"/>
        <pt x="92" y="94" on="0"/>
        <pt x="135" y="17" on="0"/>
        <pt x="246" y="-33" on="0"/>
        <pt x="435" y="-33" on="0"/>
        <pt x="645" y="47" on="0"/>
        <pt x="717" y="103" on="1"/>
        <pt x="799" y="167" on="0"/>
        <pt x="799" y="215" on="1"/>
        <pt x="799" y="238" on="0"/>
        <pt x="751" y="249" on="0"/>
        <pt x="750" y="256" on="1"/>
        <pt x="748" y="265" on="0"/>
        <pt x="782" y="263" on="0"/>
        <pt x="793" y="257" on="1"/>
        <pt x="838" y="233" on="0"/>
        <pt x="838" y="195" on="1"/>
        <pt x="838" y="139" on="0"/>
        <pt x="683" y="17" on="0"/>
        <pt x="447" y="-55" on="0"/>
        <pt x="241" y="-55" on="0"/>
        <pt x="177" y="-35" on="1"/>
        <pt x="64" y="0" on="0"/>
        <pt x="30" y="94" on="1"/>
        <pt x="21" y="118" on="0"/>
        <pt x="21" y="162" on="0"/>
        <pt x="37" y="227" on="0"/>
        <pt x="93" y="311" on="0"/>
        <pt x="199" y="383" on="0"/>
        <pt x="320" y="418" on="0"/>
        <pt x="368" y="420" on="1"/>
        <pt x="318" y="438" on="0"/>
        <pt x="248" y="502" on="0"/>
        <pt x="248" y="539" on="1"/>
        <pt x="248" y="542" on="0"/>
        <pt x="248" y="545" on="1"/>
        <pt x="255" y="626" on="0"/>
        <pt x="423" y="755" on="0"/>
        <pt x="607" y="804" on="0"/>
        <pt x="674" y="804" on="1"/>
        <pt x="695" y="804" on="0"/>
        <pt x="715" y="802" on="1"/>
        <pt x="798" y="792" on="0"/>
        <pt x="870" y="729" on="0"/>
        <pt x="870" y="697" on="1"/>
        <pt x="870" y="652" on="0"/>
        <pt x="767" y="569" on="0"/>
        <pt x="694" y="553" on="1"/>
        <pt x="676" y="549" on="0"/>
        <pt x="653" y="549" on="0"/>
        <pt x="654" y="555" on="1"/>
        <pt x="658" y="567" on="0"/>
        <pt x="718" y="574" on="0"/>
        <pt x="746" y="594" on="1"/>
        <pt x="802" y="635" on="0"/>
        <pt x="810" y="700" on="1"/>
        <pt x="810" y="703" on="0"/>
        <pt x="810" y="706" on="1"/>
        <pt x="810" y="731" on="0"/>
        <pt x="786" y="752" on="1"/>
        <pt x="756" y="780" on="0"/>
        <pt x="614" y="780" on="0"/>
        <pt x="462" y="735" on="0"/>
        <pt x="398" y="683" on="1"/>
        <pt x="322" y="621" on="0"/>
        <pt x="322" y="548" on="1"/>
        <pt x="322" y="519" on="0"/>
        <pt x="357" y="471" on="0"/>
        <pt x="424" y="448" on="0"/>
        <pt x="458" y="440" on="1"/>
        <pt x="535" y="424" on="0"/>
        <pt x="535" y="398" on="1"/>
        <pt x="535" y="375" on="0"/>
      </contour>
    </TTGlyph>
    <TTGlyph name="Eacute" xMin="19" yMin="-120" xMax="894" yMax="850">
      <contour>
        <pt x="777" y="795" on="0"/>
        <pt x="829" y="832" on="0"/>
        <pt x="853" y="849" on="0"/>
        <pt x="876" y="849" on="0"/>
        <pt x="893" y="841" on="0"/>
        <pt x="893" y="828" on="0"/>
        <pt x="886" y="813" on="0"/>
        <pt x="743" y="748" on="0"/>
        <pt x="732" y="748" on="0"/>
        <pt x="732" y="748" on="1"/>
        <pt x="725" y="752" on="0"/>
        <pt x="731" y="762" on="0"/>
      </contour>
      <contour>
        <pt x="491" y="310" on="1"/>
        <pt x="384" y="311" on="1"/>
        <pt x="252" y="311" on="0"/>
        <pt x="178" y="247" on="1"/>
        <pt x="91" y="173" on="0"/>
        <pt x="91" y="75" on="1"/>
        <pt x="91" y="29" on="0"/>
        <pt x="134" y="-48" on="0"/>
        <pt x="245" y="-98" on="0"/>
        <pt x="434" y="-98" on="0"/>
        <pt x="644" y="-18" on="0"/>
        <pt x="716" y="38" on="1"/>
        <pt x="798" y="102" on="0"/>
        <pt x="798" y="150" on="1"/>
        <pt x="798" y="173" on="0"/>
        <pt x="750" y="184" on="0"/>
        <pt x="749" y="191" on="1"/>
        <pt x="747" y="200" on="0"/>
        <pt x="781" y="198" on="0"/>
        <pt x="792" y="192" on="1"/>
        <pt x="837" y="168" on="0"/>
        <pt x="837" y="130" on="1"/>
        <pt x="837" y="74" on="0"/>
        <pt x="682" y="-48" on="0"/>
        <pt x="446" y="-120" on="0"/>
        <pt x="240" y="-120" on="0"/>
        <pt x="176" y="-100" on="1"/>
        <pt x="63" y="-65" on="0"/>
        <pt x="28" y="29" on="1"/>
        <pt x="20" y="53" on="0"/>
        <pt x="20" y="97" on="0"/>
        <pt x="36" y="162" on="0"/>
        <pt x="92" y="246" on="0"/>
        <pt x="198" y="318" on="0"/>
        <pt x="319" y="353" on="0"/>
        <pt x="367" y="355" on="1"/>
        <pt x="318" y="373" on="0"/>
        <pt x="247" y="437" on="0"/>
        <pt x="247" y="474" on="1"/>
        <pt x="247" y="477" on="0"/>
        <pt x="247" y="480" on="1"/>
        <pt x="254" y="561" on="0"/>
        <pt x="419" y="685" on="0"/>
        <pt x="597" y="729" on="0"/>
        <pt x="662" y="729" on="1"/>
        <pt x="776" y="729" on="0"/>
        <pt x="829" y="683" on="1"/>
        <pt x="862" y="654" on="0"/>
        <pt x="862" y="622" on="1"/>
        <pt x="862" y="577" on="0"/>
        <pt x="759" y="494" on="0"/>
        <pt x="686" y="478" on="1"/>
        <pt x="668" y="474" on="0"/>
        <pt x="645" y="474" on="0"/>
        <pt x="646" y="480" on="1"/>
        <pt x="650" y="492" on="0"/>
        <pt x="710" y="499" on="0"/>
        <pt x="738" y="520" on="1"/>
        <pt x="794" y="560" on="0"/>
        <pt x="802" y="624" on="1"/>
        <pt x="802" y="628" on="0"/>
        <pt x="802" y="631" on="1"/>
        <pt x="802" y="656" on="0"/>
        <pt x="778" y="677" on="1"/>
        <pt x="747" y="705" on="0"/>
        <pt x="560" y="705" on="0"/>
        <pt x="460" y="656" on="1"/>
        <pt x="340" y="597" on="0"/>
        <pt x="323" y="505" on="1"/>
        <pt x="321" y="494" on="0"/>
        <pt x="321" y="454" on="0"/>
        <pt x="356" y="406" on="0"/>
        <pt x="423" y="383" on="0"/>
        <pt x="458" y="376" on="1"/>
        <pt x="534" y="359" on="0"/>
        <pt x="534" y="333" on="1"/>
        <pt x="534" y="310" on="0"/>
      </contour>
    </TTGlyph>
    <TTGlyph name="Ecaron" xMin="19" yMin="-120" xMax="866" yMax="846">
      <contour>
        <pt x="491" y="310" on="1"/>
        <pt x="384" y="311" on="1"/>
        <pt x="252" y="311" on="0"/>
        <pt x="178" y="247" on="1"/>
        <pt x="91" y="173" on="0"/>
        <pt x="91" y="75" on="1"/>
        <pt x="91" y="29" on="0"/>
        <pt x="134" y="-48" on="0"/>
        <pt x="245" y="-98" on="0"/>
        <pt x="434" y="-98" on="0"/>
        <pt x="644" y="-18" on="0"/>
        <pt x="716" y="38" on="1"/>
        <pt x="798" y="102" on="0"/>
        <pt x="798" y="150" on="1"/>
        <pt x="798" y="173" on="0"/>
        <pt x="750" y="184" on="0"/>
        <pt x="749" y="191" on="1"/>
        <pt x="747" y="200" on="0"/>
        <pt x="781" y="198" on="0"/>
        <pt x="792" y="192" on="1"/>
        <pt x="837" y="168" on="0"/>
        <pt x="837" y="130" on="1"/>
        <pt x="837" y="74" on="0"/>
        <pt x="682" y="-48" on="0"/>
        <pt x="446" y="-120" on="0"/>
        <pt x="240" y="-120" on="0"/>
        <pt x="176" y="-100" on="1"/>
        <pt x="63" y="-65" on="0"/>
        <pt x="28" y="29" on="1"/>
        <pt x="20" y="53" on="0"/>
        <pt x="20" y="97" on="0"/>
        <pt x="36" y="162" on="0"/>
        <pt x="92" y="246" on="0"/>
        <pt x="198" y="318" on="0"/>
        <pt x="319" y="353" on="0"/>
        <pt x="367" y="355" on="1"/>
        <pt x="318" y="373" on="0"/>
        <pt x="247" y="437" on="0"/>
        <pt x="247" y="474" on="1"/>
        <pt x="247" y="477" on="0"/>
        <pt x="247" y="480" on="1"/>
        <pt x="254" y="561" on="0"/>
        <pt x="419" y="685" on="0"/>
        <pt x="597" y="729" on="0"/>
        <pt x="662" y="729" on="1"/>
        <pt x="776" y="729" on="0"/>
        <pt x="829" y="683" on="1"/>
        <pt x="862" y="654" on="0"/>
        <pt x="862" y="622" on="1"/>
        <pt x="862" y="577" on="0"/>
        <pt x="759" y="494" on="0"/>
        <pt x="686" y="478" on="1"/>
        <pt x="668" y="474" on="0"/>
        <pt x="645" y="474" on="0"/>
        <pt x="646" y="480" on="1"/>
        <pt x="650" y="492" on="0"/>
        <pt x="710" y="499" on="0"/>
        <pt x="738" y="520" on="1"/>
        <pt x="794" y="560" on="0"/>
        <pt x="802" y="624" on="1"/>
        <pt x="802" y="628" on="0"/>
        <pt x="802" y="631" on="1"/>
        <pt x="802" y="656" on="0"/>
        <pt x="778" y="677" on="1"/>
        <pt x="747" y="705" on="0"/>
        <pt x="560" y="705" on="0"/>
        <pt x="460" y="656" on="1"/>
        <pt x="340" y="597" on="0"/>
        <pt x="323" y="505" on="1"/>
        <pt x="321" y="494" on="0"/>
        <pt x="321" y="454" on="0"/>
        <pt x="356" y="406" on="0"/>
        <pt x="423" y="383" on="0"/>
        <pt x="458" y="376" on="1"/>
        <pt x="534" y="359" on="0"/>
        <pt x="534" y="333" on="1"/>
        <pt x="534" y="310" on="0"/>
      </contour>
      <contour>
        <pt x="829" y="834" on="0"/>
        <pt x="841" y="840" on="1"/>
        <pt x="847" y="845" on="0"/>
        <pt x="865" y="845" on="0"/>
        <pt x="865" y="841" on="0"/>
        <pt x="864" y="840" on="1"/>
        <pt x="728" y="758" on="1"/>
        <pt x="712" y="756" on="0"/>
        <pt x="694" y="756" on="0"/>
        <pt x="694" y="758" on="1"/>
        <pt x="661" y="840" on="1"/>
        <pt x="659" y="844" on="0"/>
        <pt x="667" y="845" on="0"/>
        <pt x="676" y="845" on="0"/>
        <pt x="679" y="840" on="1"/>
        <pt x="721" y="785" on="1"/>
      </contour>
    </TTGlyph>
    <TTGlyph name="Ecircumflex" xMin="19" yMin="-117" xMax="863" yMax="850">
      <contour>
        <pt x="491" y="313" on="1"/>
        <pt x="384" y="314" on="1"/>
        <pt x="252" y="314" on="0"/>
        <pt x="178" y="250" on="1"/>
        <pt x="91" y="176" on="0"/>
        <pt x="91" y="78" on="1"/>
        <pt x="91" y="32" on="0"/>
        <pt x="134" y="-45" on="0"/>
        <pt x="245" y="-95" on="0"/>
        <pt x="434" y="-95" on="0"/>
        <pt x="644" y="-15" on="0"/>
        <pt x="716" y="41" on="1"/>
        <pt x="798" y="105" on="0"/>
        <pt x="798" y="153" on="1"/>
        <pt x="798" y="176" on="0"/>
        <pt x="750" y="187" on="0"/>
        <pt x="749" y="194" on="1"/>
        <pt x="747" y="203" on="0"/>
        <pt x="781" y="201" on="0"/>
        <pt x="792" y="195" on="1"/>
        <pt x="837" y="171" on="0"/>
        <pt x="837" y="133" on="1"/>
        <pt x="837" y="77" on="0"/>
        <pt x="682" y="-45" on="0"/>
        <pt x="446" y="-117" on="0"/>
        <pt x="240" y="-117" on="0"/>
        <pt x="176" y="-97" on="1"/>
        <pt x="63" y="-62" on="0"/>
        <pt x="28" y="32" on="1"/>
        <pt x="20" y="56" on="0"/>
        <pt x="20" y="100" on="0"/>
        <pt x="36" y="165" on="0"/>
        <pt x="92" y="249" on="0"/>
        <pt x="198" y="321" on="0"/>
        <pt x="319" y="356" on="0"/>
        <pt x="367" y="358" on="1"/>
        <pt x="316" y="376" on="0"/>
        <pt x="248" y="433" on="0"/>
        <pt x="248" y="467" on="1"/>
        <pt x="248" y="470" on="0"/>
        <pt x="248" y="473" on="1"/>
        <pt x="255" y="550" on="0"/>
        <pt x="421" y="673" on="0"/>
        <pt x="602" y="720" on="0"/>
        <pt x="667" y="720" on="1"/>
        <pt x="778" y="720" on="0"/>
        <pt x="830" y="676" on="1"/>
        <pt x="863" y="648" on="0"/>
        <pt x="863" y="617" on="1"/>
        <pt x="863" y="575" on="0"/>
        <pt x="761" y="497" on="0"/>
        <pt x="689" y="481" on="1"/>
        <pt x="671" y="477" on="0"/>
        <pt x="649" y="477" on="0"/>
        <pt x="649" y="483" on="1"/>
        <pt x="649" y="494" on="0"/>
        <pt x="713" y="501" on="0"/>
        <pt x="768" y="539" on="0"/>
        <pt x="784" y="566" on="1"/>
        <pt x="803" y="599" on="0"/>
        <pt x="803" y="649" on="0"/>
        <pt x="780" y="670" on="1"/>
        <pt x="748" y="697" on="0"/>
        <pt x="609" y="697" on="0"/>
        <pt x="460" y="654" on="0"/>
        <pt x="397" y="605" on="1"/>
        <pt x="321" y="546" on="0"/>
        <pt x="321" y="476" on="1"/>
        <pt x="321" y="448" on="0"/>
        <pt x="356" y="403" on="0"/>
        <pt x="423" y="383" on="0"/>
        <pt x="458" y="376" on="1"/>
        <pt x="534" y="362" on="0"/>
        <pt x="534" y="336" on="1"/>
        <pt x="534" y="313" on="0"/>
      </contour>
      <contour>
        <pt x="736" y="814" on="1"/>
        <pt x="618" y="753" on="0"/>
        <pt x="599" y="740" on="0"/>
        <pt x="579" y="740" on="0"/>
        <pt x="579" y="745" on="0"/>
        <pt x="581" y="746" on="1"/>
        <pt x="728" y="847" on="1"/>
        <pt x="746" y="850" on="0"/>
        <pt x="766" y="850" on="0"/>
        <pt x="766" y="847" on="1"/>
        <pt x="801" y="746" on="1"/>
        <pt x="802" y="745" on="0"/>
        <pt x="802" y="741" on="0"/>
        <pt x="785" y="741" on="0"/>
        <pt x="781" y="746" on="1"/>
      </contour>
    </TTGlyph>
    <TTGlyph name="Edieresis" xMin="19" yMin="-115" xMax="863" yMax="850">
      <contour>
        <pt x="809" y="850" on="0"/>
        <pt x="828" y="832" on="0"/>
        <pt x="828" y="803" on="0"/>
        <pt x="810" y="784" on="0"/>
        <pt x="781" y="784" on="0"/>
        <pt x="762" y="802" on="0"/>
        <pt x="762" y="831" on="0"/>
        <pt x="780" y="850" on="0"/>
      </contour>
      <contour>
        <pt x="680" y="850" on="0"/>
        <pt x="699" y="832" on="0"/>
        <pt x="699" y="803" on="0"/>
        <pt x="681" y="784" on="0"/>
        <pt x="652" y="784" on="0"/>
        <pt x="633" y="802" on="0"/>
        <pt x="633" y="831" on="0"/>
        <pt x="651" y="850" on="0"/>
      </contour>
      <contour>
        <pt x="491" y="315" on="1"/>
        <pt x="384" y="316" on="1"/>
        <pt x="252" y="316" on="0"/>
        <pt x="178" y="252" on="1"/>
        <pt x="91" y="178" on="0"/>
        <pt x="91" y="80" on="1"/>
        <pt x="91" y="34" on="0"/>
        <pt x="134" y="-43" on="0"/>
        <pt x="245" y="-93" on="0"/>
        <pt x="434" y="-93" on="0"/>
        <pt x="644" y="-13" on="0"/>
        <pt x="716" y="43" on="1"/>
        <pt x="798" y="107" on="0"/>
        <pt x="798" y="155" on="1"/>
        <pt x="798" y="178" on="0"/>
        <pt x="750" y="189" on="0"/>
        <pt x="749" y="196" on="1"/>
        <pt x="747" y="205" on="0"/>
        <pt x="781" y="203" on="0"/>
        <pt x="792" y="197" on="1"/>
        <pt x="837" y="173" on="0"/>
        <pt x="837" y="135" on="1"/>
        <pt x="837" y="79" on="0"/>
        <pt x="682" y="-43" on="0"/>
        <pt x="446" y="-115" on="0"/>
        <pt x="240" y="-115" on="0"/>
        <pt x="176" y="-95" on="1"/>
        <pt x="63" y="-60" on="0"/>
        <pt x="28" y="34" on="1"/>
        <pt x="20" y="58" on="0"/>
        <pt x="20" y="102" on="0"/>
        <pt x="36" y="167" on="0"/>
        <pt x="92" y="251" on="0"/>
        <pt x="198" y="323" on="0"/>
        <pt x="319" y="358" on="0"/>
        <pt x="367" y="360" on="1"/>
        <pt x="316" y="378" on="0"/>
        <pt x="248" y="435" on="0"/>
        <pt x="248" y="469" on="1"/>
        <pt x="248" y="472" on="0"/>
        <pt x="248" y="475" on="1"/>
        <pt x="255" y="552" on="0"/>
        <pt x="421" y="675" on="0"/>
        <pt x="602" y="722" on="0"/>
        <pt x="667" y="722" on="1"/>
        <pt x="778" y="722" on="0"/>
        <pt x="830" y="678" on="1"/>
        <pt x="863" y="650" on="0"/>
        <pt x="863" y="619" on="1"/>
        <pt x="863" y="577" on="0"/>
        <pt x="761" y="499" on="0"/>
        <pt x="689" y="483" on="1"/>
        <pt x="671" y="479" on="0"/>
        <pt x="649" y="479" on="0"/>
        <pt x="649" y="485" on="1"/>
        <pt x="649" y="496" on="0"/>
        <pt x="713" y="503" on="0"/>
        <pt x="768" y="541" on="0"/>
        <pt x="784" y="568" on="1"/>
        <pt x="803" y="601" on="0"/>
        <pt x="803" y="651" on="0"/>
        <pt x="780" y="672" on="1"/>
        <pt x="748" y="699" on="0"/>
        <pt x="609" y="699" on="0"/>
        <pt x="460" y="656" on="0"/>
        <pt x="397" y="607" on="1"/>
        <pt x="321" y="548" on="0"/>
        <pt x="321" y="478" on="1"/>
        <pt x="321" y="450" on="0"/>
        <pt x="356" y="405" on="0"/>
        <pt x="423" y="385" on="0"/>
        <pt x="458" y="378" on="1"/>
        <pt x="534" y="364" on="0"/>
        <pt x="534" y="338" on="1"/>
        <pt x="534" y="315" on="0"/>
      </contour>
    </TTGlyph>
    <TTGlyph name="Edotaccent" xMin="22" yMin="-104" xMax="864" yMax="850">
      <contour>
        <pt x="494" y="326" on="1"/>
        <pt x="387" y="327" on="1"/>
        <pt x="255" y="327" on="0"/>
        <pt x="181" y="263" on="1"/>
        <pt x="94" y="189" on="0"/>
        <pt x="94" y="91" on="1"/>
        <pt x="94" y="45" on="0"/>
        <pt x="137" y="-32" on="0"/>
        <pt x="248" y="-82" on="0"/>
        <pt x="437" y="-82" on="0"/>
        <pt x="647" y="-2" on="0"/>
        <pt x="719" y="54" on="1"/>
        <pt x="801" y="118" on="0"/>
        <pt x="801" y="166" on="1"/>
        <pt x="801" y="189" on="0"/>
        <pt x="753" y="200" on="0"/>
        <pt x="752" y="207" on="1"/>
        <pt x="750" y="216" on="0"/>
        <pt x="784" y="214" on="0"/>
        <pt x="795" y="208" on="1"/>
        <pt x="840" y="184" on="0"/>
        <pt x="840" y="146" on="1"/>
        <pt x="840" y="90" on="0"/>
        <pt x="685" y="-32" on="0"/>
        <pt x="449" y="-104" on="0"/>
        <pt x="243" y="-104" on="0"/>
        <pt x="179" y="-84" on="1"/>
        <pt x="66" y="-49" on="0"/>
        <pt x="32" y="45" on="1"/>
        <pt x="23" y="69" on="0"/>
        <pt x="23" y="113" on="0"/>
        <pt x="39" y="178" on="0"/>
        <pt x="95" y="262" on="0"/>
        <pt x="201" y="334" on="0"/>
        <pt x="322" y="369" on="0"/>
        <pt x="370" y="371" on="1"/>
        <pt x="321" y="389" on="0"/>
        <pt x="250" y="453" on="0"/>
        <pt x="250" y="490" on="1"/>
        <pt x="250" y="552" on="0"/>
        <pt x="302" y="605" on="1"/>
        <pt x="395" y="700" on="0"/>
        <pt x="572" y="730" on="1"/>
        <pt x="621" y="738" on="0"/>
        <pt x="655" y="738" on="1"/>
        <pt x="778" y="738" on="0"/>
        <pt x="831" y="692" on="1"/>
        <pt x="864" y="663" on="0"/>
        <pt x="864" y="631" on="1"/>
        <pt x="864" y="586" on="0"/>
        <pt x="761" y="503" on="0"/>
        <pt x="688" y="487" on="1"/>
        <pt x="670" y="483" on="0"/>
        <pt x="647" y="483" on="0"/>
        <pt x="648" y="489" on="1"/>
        <pt x="652" y="501" on="0"/>
        <pt x="712" y="508" on="0"/>
        <pt x="740" y="528" on="1"/>
        <pt x="796" y="569" on="0"/>
        <pt x="804" y="634" on="1"/>
        <pt x="804" y="637" on="0"/>
        <pt x="804" y="640" on="1"/>
        <pt x="804" y="665" on="0"/>
        <pt x="780" y="686" on="1"/>
        <pt x="749" y="714" on="0"/>
        <pt x="604" y="714" on="0"/>
        <pt x="461" y="677" on="0"/>
        <pt x="399" y="630" on="1"/>
        <pt x="324" y="572" on="0"/>
        <pt x="324" y="499" on="1"/>
        <pt x="324" y="470" on="0"/>
        <pt x="359" y="422" on="0"/>
        <pt x="426" y="399" on="0"/>
        <pt x="460" y="392" on="1"/>
        <pt x="537" y="375" on="0"/>
        <pt x="537" y="349" on="1"/>
        <pt x="537" y="326" on="0"/>
      </contour>
      <contour>
        <pt x="764" y="850" on="1"/>
        <pt x="788" y="850" on="0"/>
        <pt x="788" y="820" on="1"/>
        <pt x="788" y="805" on="0"/>
        <pt x="758" y="774" on="0"/>
        <pt x="717" y="774" on="0"/>
        <pt x="717" y="794" on="1"/>
        <pt x="717" y="811" on="0"/>
        <pt x="748" y="850" on="0"/>
      </contour>
    </TTGlyph>
    <TTGlyph name="Egrave" xMin="19" yMin="-117" xMax="863" yMax="850">
      <contour>
        <pt x="805" y="743" on="1"/>
        <pt x="805" y="736" on="0"/>
        <pt x="796" y="736" on="1"/>
        <pt x="792" y="736" on="0"/>
        <pt x="685" y="792" on="0"/>
        <pt x="681" y="794" on="1"/>
        <pt x="649" y="808" on="0"/>
        <pt x="649" y="850" on="0"/>
        <pt x="665" y="850" on="1"/>
        <pt x="677" y="850" on="0"/>
        <pt x="805" y="748" on="0"/>
      </contour>
      <contour>
        <pt x="491" y="313" on="1"/>
        <pt x="384" y="314" on="1"/>
        <pt x="252" y="314" on="0"/>
        <pt x="178" y="250" on="1"/>
        <pt x="91" y="176" on="0"/>
        <pt x="91" y="78" on="1"/>
        <pt x="91" y="32" on="0"/>
        <pt x="134" y="-45" on="0"/>
        <pt x="245" y="-95" on="0"/>
        <pt x="434" y="-95" on="0"/>
        <pt x="644" y="-15" on="0"/>
        <pt x="716" y="41" on="1"/>
        <pt x="798" y="105" on="0"/>
        <pt x="798" y="153" on="1"/>
        <pt x="798" y="176" on="0"/>
        <pt x="750" y="187" on="0"/>
        <pt x="749" y="194" on="1"/>
        <pt x="747" y="203" on="0"/>
        <pt x="781" y="201" on="0"/>
        <pt x="792" y="195" on="1"/>
        <pt x="837" y="171" on="0"/>
        <pt x="837" y="133" on="1"/>
        <pt x="837" y="77" on="0"/>
        <pt x="682" y="-45" on="0"/>
        <pt x="446" y="-117" on="0"/>
        <pt x="240" y="-117" on="0"/>
        <pt x="176" y="-97" on="1"/>
        <pt x="63" y="-62" on="0"/>
        <pt x="28" y="32" on="1"/>
        <pt x="20" y="56" on="0"/>
        <pt x="20" y="100" on="0"/>
        <pt x="36" y="165" on="0"/>
        <pt x="92" y="249" on="0"/>
        <pt x="198" y="321" on="0"/>
        <pt x="319" y="356" on="0"/>
        <pt x="367" y="358" on="1"/>
        <pt x="316" y="376" on="0"/>
        <pt x="248" y="433" on="0"/>
        <pt x="248" y="467" on="1"/>
        <pt x="248" y="470" on="0"/>
        <pt x="248" y="473" on="1"/>
        <pt x="255" y="550" on="0"/>
        <pt x="421" y="673" on="0"/>
        <pt x="602" y="720" on="0"/>
        <pt x="667" y="720" on="1"/>
        <pt x="778" y="720" on="0"/>
        <pt x="830" y="676" on="1"/>
        <pt x="863" y="648" on="0"/>
        <pt x="863" y="617" on="1"/>
        <pt x="863" y="575" on="0"/>
        <pt x="761" y="497" on="0"/>
        <pt x="689" y="481" on="1"/>
        <pt x="671" y="477" on="0"/>
        <pt x="649" y="477" on="0"/>
        <pt x="649" y="483" on="1"/>
        <pt x="649" y="494" on="0"/>
        <pt x="713" y="501" on="0"/>
        <pt x="768" y="539" on="0"/>
        <pt x="784" y="566" on="1"/>
        <pt x="803" y="599" on="0"/>
        <pt x="803" y="649" on="0"/>
        <pt x="780" y="670" on="1"/>
        <pt x="748" y="697" on="0"/>
        <pt x="609" y="697" on="0"/>
        <pt x="460" y="654" on="0"/>
        <pt x="397" y="605" on="1"/>
        <pt x="321" y="546" on="0"/>
        <pt x="321" y="476" on="1"/>
        <pt x="321" y="448" on="0"/>
        <pt x="356" y="403" on="0"/>
        <pt x="423" y="383" on="0"/>
        <pt x="458" y="376" on="1"/>
        <pt x="534" y="362" on="0"/>
        <pt x="534" y="336" on="1"/>
        <pt x="534" y="313" on="0"/>
      </contour>
    </TTGlyph>
    <TTGlyph name="Emacron" xMin="22" yMin="-105" xMax="864" yMax="850">
      <contour>
        <pt x="857" y="850" on="1"/>
        <pt x="845" y="820" on="1"/>
        <pt x="631" y="820" on="1"/>
        <pt x="644" y="850" on="1"/>
      </contour>
      <contour>
        <pt x="494" y="325" on="1"/>
        <pt x="387" y="326" on="1"/>
        <pt x="255" y="326" on="0"/>
        <pt x="181" y="262" on="1"/>
        <pt x="94" y="188" on="0"/>
        <pt x="94" y="90" on="1"/>
        <pt x="94" y="44" on="0"/>
        <pt x="137" y="-33" on="0"/>
        <pt x="248" y="-83" on="0"/>
        <pt x="437" y="-83" on="0"/>
        <pt x="647" y="-3" on="0"/>
        <pt x="719" y="53" on="1"/>
        <pt x="801" y="117" on="0"/>
        <pt x="801" y="165" on="1"/>
        <pt x="801" y="188" on="0"/>
        <pt x="753" y="199" on="0"/>
        <pt x="752" y="206" on="1"/>
        <pt x="750" y="215" on="0"/>
        <pt x="784" y="213" on="0"/>
        <pt x="795" y="207" on="1"/>
        <pt x="840" y="183" on="0"/>
        <pt x="840" y="145" on="1"/>
        <pt x="840" y="89" on="0"/>
        <pt x="685" y="-33" on="0"/>
        <pt x="449" y="-105" on="0"/>
        <pt x="243" y="-105" on="0"/>
        <pt x="179" y="-85" on="1"/>
        <pt x="66" y="-50" on="0"/>
        <pt x="32" y="44" on="1"/>
        <pt x="23" y="68" on="0"/>
        <pt x="23" y="112" on="0"/>
        <pt x="39" y="177" on="0"/>
        <pt x="95" y="261" on="0"/>
        <pt x="201" y="333" on="0"/>
        <pt x="322" y="368" on="0"/>
        <pt x="370" y="370" on="1"/>
        <pt x="321" y="388" on="0"/>
        <pt x="250" y="452" on="0"/>
        <pt x="250" y="489" on="1"/>
        <pt x="250" y="551" on="0"/>
        <pt x="302" y="604" on="1"/>
        <pt x="395" y="699" on="0"/>
        <pt x="572" y="729" on="1"/>
        <pt x="621" y="737" on="0"/>
        <pt x="655" y="737" on="1"/>
        <pt x="778" y="737" on="0"/>
        <pt x="831" y="691" on="1"/>
        <pt x="864" y="662" on="0"/>
        <pt x="864" y="630" on="1"/>
        <pt x="864" y="585" on="0"/>
        <pt x="761" y="502" on="0"/>
        <pt x="688" y="486" on="1"/>
        <pt x="670" y="482" on="0"/>
        <pt x="647" y="482" on="0"/>
        <pt x="648" y="488" on="1"/>
        <pt x="652" y="500" on="0"/>
        <pt x="712" y="507" on="0"/>
        <pt x="740" y="528" on="1"/>
        <pt x="796" y="568" on="0"/>
        <pt x="804" y="632" on="1"/>
        <pt x="804" y="636" on="0"/>
        <pt x="804" y="639" on="1"/>
        <pt x="804" y="664" on="0"/>
        <pt x="780" y="685" on="1"/>
        <pt x="749" y="713" on="0"/>
        <pt x="604" y="713" on="0"/>
        <pt x="461" y="676" on="0"/>
        <pt x="399" y="628" on="1"/>
        <pt x="324" y="571" on="0"/>
        <pt x="324" y="498" on="1"/>
        <pt x="324" y="469" on="0"/>
        <pt x="359" y="421" on="0"/>
        <pt x="426" y="398" on="0"/>
        <pt x="460" y="390" on="1"/>
        <pt x="537" y="374" on="0"/>
        <pt x="537" y="348" on="1"/>
        <pt x="537" y="325" on="0"/>
      </contour>
    </TTGlyph>
    <TTGlyph name="Eng" xMin="-3" yMin="-400" xMax="1150" yMax="793">
      <contour>
        <pt x="957" y="175" on="0"/>
        <pt x="1020" y="358" on="0"/>
        <pt x="1071" y="582" on="0"/>
        <pt x="1071" y="716" on="0"/>
        <pt x="1015" y="716" on="1"/>
        <pt x="983" y="716" on="0"/>
        <pt x="944" y="694" on="1"/>
        <pt x="741" y="591" on="0"/>
        <pt x="596" y="223" on="1"/>
        <pt x="563" y="141" on="0"/>
        <pt x="506" y="-25" on="0"/>
        <pt x="502" y="-36" on="1"/>
        <pt x="492" y="-65" on="0"/>
        <pt x="449" y="-65" on="1"/>
        <pt x="423" y="-65" on="0"/>
        <pt x="420" y="-48" on="1"/>
        <pt x="419" y="-45" on="0"/>
        <pt x="420" y="-42" on="1"/>
        <pt x="460" y="29" on="0"/>
        <pt x="585" y="412" on="0"/>
        <pt x="600" y="554" on="1"/>
        <pt x="603" y="579" on="0"/>
        <pt x="603" y="646" on="0"/>
        <pt x="589" y="687" on="1"/>
        <pt x="563" y="764" on="0"/>
        <pt x="469" y="764" on="1"/>
        <pt x="379" y="764" on="0"/>
        <pt x="270" y="690" on="1"/>
        <pt x="131" y="597" on="0"/>
        <pt x="80" y="446" on="1"/>
        <pt x="59" y="382" on="0"/>
        <pt x="59" y="274" on="0"/>
        <pt x="78" y="229" on="1"/>
        <pt x="118" y="143" on="0"/>
        <pt x="205" y="141" on="1"/>
        <pt x="307" y="141" on="0"/>
        <pt x="374" y="226" on="1"/>
        <pt x="421" y="286" on="0"/>
        <pt x="421" y="346" on="1"/>
        <pt x="421" y="417" on="0"/>
        <pt x="361" y="426" on="1"/>
        <pt x="354" y="427" on="0"/>
        <pt x="337" y="427" on="0"/>
        <pt x="319" y="425" on="0"/>
        <pt x="313" y="432" on="0"/>
        <pt x="316" y="436" on="1"/>
        <pt x="324" y="448" on="0"/>
        <pt x="426" y="448" on="0"/>
        <pt x="448" y="403" on="1"/>
        <pt x="459" y="380" on="0"/>
        <pt x="459" y="315" on="0"/>
        <pt x="437" y="269" on="1"/>
        <pt x="396" y="182" on="0"/>
        <pt x="309" y="144" on="1"/>
        <pt x="260" y="122" on="0"/>
        <pt x="139" y="122" on="0"/>
        <pt x="32" y="203" on="0"/>
        <pt x="8" y="277" on="1"/>
        <pt x="-2" y="310" on="0"/>
        <pt x="-2" y="397" on="0"/>
        <pt x="14" y="454" on="1"/>
        <pt x="38" y="537" on="0"/>
        <pt x="169" y="683" on="0"/>
        <pt x="242" y="726" on="1"/>
        <pt x="356" y="792" on="0"/>
        <pt x="467" y="792" on="1"/>
        <pt x="491" y="792" on="0"/>
        <pt x="515" y="789" on="1"/>
        <pt x="578" y="780" on="0"/>
        <pt x="661" y="679" on="0"/>
        <pt x="661" y="592" on="1"/>
        <pt x="661" y="516" on="0"/>
        <pt x="626" y="417" on="1"/>
        <pt x="623" y="410" on="0"/>
        <pt x="608" y="364" on="0"/>
        <pt x="587" y="303" on="0"/>
        <pt x="587" y="298" on="1"/>
        <pt x="587" y="295" on="0"/>
        <pt x="599" y="322" on="1"/>
        <pt x="612" y="348" on="1"/>
        <pt x="665" y="447" on="0"/>
        <pt x="723" y="528" on="1"/>
        <pt x="836" y="688" on="0"/>
        <pt x="934" y="736" on="1"/>
        <pt x="990" y="764" on="0"/>
        <pt x="1077" y="764" on="0"/>
        <pt x="1110" y="742" on="1"/>
        <pt x="1150" y="715" on="0"/>
        <pt x="1150" y="650" on="1"/>
        <pt x="1150" y="551" on="0"/>
        <pt x="973" y="29" on="0"/>
        <pt x="915" y="-86" on="1"/>
        <pt x="774" y="-360" on="0"/>
        <pt x="575" y="-394" on="1"/>
        <pt x="538" y="-400" on="0"/>
        <pt x="447" y="-400" on="0"/>
        <pt x="398" y="-383" on="1"/>
        <pt x="319" y="-356" on="0"/>
        <pt x="282" y="-286" on="1"/>
        <pt x="260" y="-244" on="0"/>
        <pt x="260" y="-157" on="0"/>
        <pt x="280" y="-78" on="0"/>
        <pt x="341" y="-12" on="0"/>
        <pt x="380" y="-10" on="0"/>
        <pt x="361" y="-23" on="1"/>
        <pt x="340" y="-33" on="0"/>
        <pt x="316" y="-70" on="1"/>
        <pt x="283" y="-118" on="0"/>
        <pt x="283" y="-183" on="1"/>
        <pt x="283" y="-250" on="0"/>
        <pt x="320" y="-294" on="1"/>
        <pt x="370" y="-350" on="0"/>
        <pt x="436" y="-364" on="1"/>
        <pt x="483" y="-375" on="0"/>
        <pt x="541" y="-375" on="0"/>
        <pt x="563" y="-368" on="1"/>
        <pt x="649" y="-346" on="0"/>
        <pt x="723" y="-278" on="1"/>
        <pt x="776" y="-229" on="0"/>
        <pt x="840" y="-110" on="1"/>
        <pt x="880" y="-37" on="0"/>
      </contour>
    </TTGlyph>
    <TTGlyph name="Eogonek" xMin="20" yMin="-279" xMax="870" yMax="805">
      <contour>
        <pt x="492" y="375" on="1"/>
        <pt x="385" y="376" on="1"/>
        <pt x="253" y="376" on="0"/>
        <pt x="179" y="312" on="1"/>
        <pt x="92" y="238" on="0"/>
        <pt x="92" y="140" on="1"/>
        <pt x="92" y="94" on="0"/>
        <pt x="135" y="17" on="0"/>
        <pt x="246" y="-33" on="0"/>
        <pt x="435" y="-33" on="0"/>
        <pt x="645" y="47" on="0"/>
        <pt x="717" y="103" on="1"/>
        <pt x="799" y="167" on="0"/>
        <pt x="799" y="215" on="1"/>
        <pt x="799" y="238" on="0"/>
        <pt x="751" y="249" on="0"/>
        <pt x="750" y="256" on="1"/>
        <pt x="748" y="265" on="0"/>
        <pt x="782" y="263" on="0"/>
        <pt x="793" y="257" on="1"/>
        <pt x="838" y="233" on="0"/>
        <pt x="838" y="195" on="1"/>
        <pt x="838" y="139" on="0"/>
        <pt x="690" y="22" on="0"/>
        <pt x="478" y="-48" on="0"/>
        <pt x="364" y="-54" on="1"/>
        <pt x="320" y="-89" on="0"/>
        <pt x="247" y="-184" on="0"/>
        <pt x="246" y="-249" on="0"/>
        <pt x="275" y="-249" on="1"/>
        <pt x="296" y="-249" on="0"/>
        <pt x="326" y="-219" on="1"/>
        <pt x="333" y="-216" on="0"/>
        <pt x="337" y="-219" on="0"/>
        <pt x="336" y="-223" on="1"/>
        <pt x="332" y="-241" on="0"/>
        <pt x="276" y="-279" on="0"/>
        <pt x="248" y="-279" on="1"/>
        <pt x="196" y="-279" on="0"/>
        <pt x="196" y="-237" on="1"/>
        <pt x="196" y="-198" on="0"/>
        <pt x="290" y="-86" on="0"/>
        <pt x="337" y="-55" on="1"/>
        <pt x="324" y="-55" on="1"/>
        <pt x="241" y="-55" on="0"/>
        <pt x="177" y="-35" on="1"/>
        <pt x="64" y="0" on="0"/>
        <pt x="30" y="94" on="1"/>
        <pt x="21" y="118" on="0"/>
        <pt x="21" y="162" on="0"/>
        <pt x="37" y="227" on="0"/>
        <pt x="93" y="311" on="0"/>
        <pt x="199" y="383" on="0"/>
        <pt x="320" y="418" on="0"/>
        <pt x="368" y="420" on="1"/>
        <pt x="318" y="438" on="0"/>
        <pt x="248" y="502" on="0"/>
        <pt x="248" y="539" on="1"/>
        <pt x="248" y="542" on="0"/>
        <pt x="248" y="545" on="1"/>
        <pt x="255" y="626" on="0"/>
        <pt x="423" y="755" on="0"/>
        <pt x="607" y="804" on="0"/>
        <pt x="674" y="804" on="1"/>
        <pt x="695" y="804" on="0"/>
        <pt x="715" y="802" on="1"/>
        <pt x="798" y="792" on="0"/>
        <pt x="870" y="729" on="0"/>
        <pt x="870" y="697" on="1"/>
        <pt x="870" y="652" on="0"/>
        <pt x="767" y="569" on="0"/>
        <pt x="694" y="553" on="1"/>
        <pt x="676" y="549" on="0"/>
        <pt x="653" y="549" on="0"/>
        <pt x="654" y="555" on="1"/>
        <pt x="658" y="567" on="0"/>
        <pt x="718" y="574" on="0"/>
        <pt x="746" y="594" on="1"/>
        <pt x="802" y="635" on="0"/>
        <pt x="810" y="700" on="1"/>
        <pt x="810" y="703" on="0"/>
        <pt x="810" y="706" on="1"/>
        <pt x="810" y="731" on="0"/>
        <pt x="786" y="752" on="1"/>
        <pt x="756" y="780" on="0"/>
        <pt x="614" y="780" on="0"/>
        <pt x="462" y="735" on="0"/>
        <pt x="398" y="683" on="1"/>
        <pt x="322" y="621" on="0"/>
        <pt x="322" y="548" on="1"/>
        <pt x="322" y="519" on="0"/>
        <pt x="357" y="471" on="0"/>
        <pt x="424" y="448" on="0"/>
        <pt x="458" y="440" on="1"/>
        <pt x="535" y="424" on="0"/>
        <pt x="535" y="398" on="1"/>
        <pt x="535" y="375" on="0"/>
      </contour>
    </TTGlyph>
    <TTGlyph name="Eth" xMin="2" yMin="-39" xMax="1026" yMax="785">
      <contour>
        <pt x="694" y="-38" on="1"/>
        <pt x="670" y="-38" on="0"/>
        <pt x="646" y="-35" on="1"/>
        <pt x="492" y="-16" on="0"/>
        <pt x="375" y="36" on="1"/>
        <pt x="282" y="-39" on="0"/>
        <pt x="169" y="-39" on="1"/>
        <pt x="40" y="-39" on="0"/>
        <pt x="10" y="33" on="1"/>
        <pt x="3" y="50" on="0"/>
        <pt x="3" y="95" on="0"/>
        <pt x="26" y="121" on="1"/>
        <pt x="62" y="162" on="0"/>
        <pt x="126" y="162" on="1"/>
        <pt x="169" y="162" on="0"/>
        <pt x="256" y="131" on="0"/>
        <pt x="367" y="72" on="1"/>
        <pt x="434" y="137" on="0"/>
        <pt x="513" y="280" on="1"/>
        <pt x="431" y="271" on="1"/>
        <pt x="424" y="270" on="0"/>
        <pt x="412" y="294" on="0"/>
        <pt x="418" y="319" on="0"/>
        <pt x="431" y="319" on="1"/>
        <pt x="488" y="319" on="0"/>
        <pt x="534" y="318" on="1"/>
        <pt x="566" y="381" on="0"/>
        <pt x="653" y="537" on="0"/>
        <pt x="668" y="558" on="1"/>
        <pt x="708" y="618" on="0"/>
        <pt x="747" y="663" on="1"/>
        <pt x="635" y="730" on="0"/>
        <pt x="509" y="730" on="1"/>
        <pt x="457" y="730" on="0"/>
        <pt x="403" y="719" on="1"/>
        <pt x="248" y="686" on="0"/>
        <pt x="167" y="584" on="1"/>
        <pt x="117" y="522" on="0"/>
        <pt x="117" y="466" on="1"/>
        <pt x="117" y="390" on="0"/>
        <pt x="190" y="367" on="1"/>
        <pt x="216" y="360" on="0"/>
        <pt x="254" y="360" on="0"/>
        <pt x="301" y="372" on="0"/>
        <pt x="324" y="394" on="1"/>
        <pt x="368" y="438" on="0"/>
        <pt x="371" y="476" on="1"/>
        <pt x="372" y="485" on="0"/>
        <pt x="393" y="480" on="0"/>
        <pt x="391" y="467" on="1"/>
        <pt x="381" y="394" on="0"/>
        <pt x="314" y="356" on="1"/>
        <pt x="273" y="334" on="0"/>
        <pt x="232" y="334" on="1"/>
        <pt x="180" y="343" on="1"/>
        <pt x="104" y="369" on="0"/>
        <pt x="80" y="440" on="1"/>
        <pt x="70" y="467" on="0"/>
        <pt x="70" y="494" on="1"/>
        <pt x="70" y="549" on="0"/>
        <pt x="111" y="603" on="1"/>
        <pt x="199" y="721" on="0"/>
        <pt x="423" y="754" on="1"/>
        <pt x="467" y="760" on="0"/>
        <pt x="510" y="760" on="1"/>
        <pt x="649" y="760" on="0"/>
        <pt x="775" y="694" on="1"/>
        <pt x="800" y="723" on="1"/>
        <pt x="814" y="735" on="0"/>
        <pt x="843" y="755" on="1"/>
        <pt x="886" y="785" on="0"/>
        <pt x="905" y="785" on="1"/>
        <pt x="913" y="785" on="0"/>
        <pt x="906" y="771" on="0"/>
        <pt x="876" y="751" on="0"/>
        <pt x="865" y="737" on="1"/>
        <pt x="818" y="669" on="1"/>
        <pt x="925" y="598" on="0"/>
        <pt x="981" y="487" on="1"/>
        <pt x="1026" y="398" on="0"/>
        <pt x="1026" y="293" on="1"/>
        <pt x="1026" y="163" on="0"/>
        <pt x="958" y="82" on="1"/>
        <pt x="902" y="14" on="0"/>
        <pt x="819" y="-16" on="1"/>
        <pt x="758" y="-38" on="0"/>
      </contour>
      <contour>
        <pt x="601" y="316" on="1"/>
        <pt x="651" y="315" on="1"/>
        <pt x="668" y="314" on="0"/>
        <pt x="672" y="302" on="1"/>
        <pt x="670" y="290" on="0"/>
        <pt x="655" y="288" on="1"/>
        <pt x="627" y="288" on="0"/>
        <pt x="581" y="286" on="1"/>
        <pt x="474" y="118" on="0"/>
        <pt x="399" y="54" on="1"/>
        <pt x="508" y="5" on="0"/>
        <pt x="645" y="-8" on="1"/>
        <pt x="662" y="-10" on="0"/>
        <pt x="679" y="-10" on="1"/>
        <pt x="782" y="-10" on="0"/>
        <pt x="859" y="54" on="1"/>
        <pt x="948" y="129" on="0"/>
        <pt x="960" y="237" on="1"/>
        <pt x="963" y="262" on="0"/>
        <pt x="963" y="286" on="1"/>
        <pt x="963" y="378" on="0"/>
        <pt x="927" y="459" on="1"/>
        <pt x="882" y="562" on="0"/>
        <pt x="794" y="631" on="1"/>
        <pt x="758" y="576" on="0"/>
        <pt x="624" y="353" on="0"/>
      </contour>
      <contour>
        <pt x="341" y="52" on="1"/>
        <pt x="224" y="108" on="0"/>
        <pt x="162" y="130" on="0"/>
        <pt x="103" y="130" on="0"/>
        <pt x="68" y="86" on="0"/>
        <pt x="68" y="51" on="0"/>
        <pt x="76" y="35" on="1"/>
        <pt x="97" y="-8" on="0"/>
        <pt x="162" y="-8" on="1"/>
        <pt x="258" y="-8" on="0"/>
      </contour>
    </TTGlyph>
    <TTGlyph name="Euro" xMin="63" yMin="-28" xMax="673" yMax="758">
      <contour>
        <pt x="673" y="622" on="1"/>
        <pt x="673" y="580" on="0"/>
        <pt x="628" y="483" on="0"/>
        <pt x="592" y="483" on="1"/>
        <pt x="581" y="483" on="0"/>
        <pt x="581" y="490" on="1"/>
        <pt x="587" y="500" on="1"/>
        <pt x="624" y="566" on="0"/>
        <pt x="641" y="635" on="0"/>
        <pt x="641" y="656" on="1"/>
        <pt x="641" y="729" on="0"/>
        <pt x="577" y="729" on="1"/>
        <pt x="518" y="729" on="0"/>
        <pt x="401" y="673" on="0"/>
        <pt x="354" y="626" on="1"/>
        <pt x="261" y="533" on="0"/>
        <pt x="210" y="423" on="1"/>
        <pt x="439" y="423" on="1"/>
        <pt x="426" y="398" on="1"/>
        <pt x="198" y="398" on="1"/>
        <pt x="191" y="381" on="0"/>
        <pt x="183" y="355" on="1"/>
        <pt x="409" y="355" on="1"/>
        <pt x="398" y="329" on="1"/>
        <pt x="177" y="329" on="1"/>
        <pt x="161" y="263" on="0"/>
        <pt x="161" y="204" on="1"/>
        <pt x="161" y="112" on="0"/>
        <pt x="240" y="-8" on="0"/>
        <pt x="399" y="-8" on="0"/>
        <pt x="559" y="119" on="0"/>
        <pt x="619" y="196" on="1"/>
        <pt x="631" y="214" on="0"/>
        <pt x="632" y="198" on="1"/>
        <pt x="629" y="181" on="1"/>
        <pt x="486" y="-28" on="0"/>
        <pt x="283" y="-28" on="1"/>
        <pt x="185" y="-28" on="0"/>
        <pt x="92" y="94" on="0"/>
        <pt x="92" y="195" on="1"/>
        <pt x="92" y="257" on="0"/>
        <pt x="110" y="329" on="1"/>
        <pt x="63" y="329" on="1"/>
        <pt x="74" y="355" on="1"/>
        <pt x="116" y="355" on="1"/>
        <pt x="126" y="389" on="0"/>
        <pt x="130" y="398" on="1"/>
        <pt x="91" y="398" on="1"/>
        <pt x="104" y="423" on="1"/>
        <pt x="141" y="423" on="1"/>
        <pt x="192" y="541" on="0"/>
        <pt x="292" y="643" on="1"/>
        <pt x="341" y="694" on="0"/>
        <pt x="464" y="758" on="0"/>
        <pt x="589" y="758" on="0"/>
        <pt x="673" y="686" on="0"/>
      </contour>
    </TTGlyph>
    <TTGlyph name="F" xMin="51" yMin="-130" xMax="1388" yMax="760">
      <contour>
        <pt x="1003" y="610" on="1"/>
        <pt x="801" y="710" on="0"/>
        <pt x="555" y="710" on="0"/>
        <pt x="472" y="640" on="1"/>
        <pt x="393" y="573" on="0"/>
        <pt x="393" y="496" on="1"/>
        <pt x="393" y="456" on="0"/>
        <pt x="422" y="438" on="1"/>
        <pt x="461" y="416" on="0"/>
        <pt x="496" y="416" on="1"/>
        <pt x="509" y="416" on="0"/>
        <pt x="522" y="419" on="1"/>
        <pt x="568" y="430" on="0"/>
        <pt x="632" y="482" on="0"/>
        <pt x="632" y="514" on="0"/>
        <pt x="651" y="526" on="0"/>
        <pt x="651" y="516" on="1"/>
        <pt x="651" y="510" on="0"/>
        <pt x="648" y="502" on="1"/>
        <pt x="627" y="431" on="0"/>
        <pt x="550" y="405" on="1"/>
        <pt x="517" y="394" on="0"/>
        <pt x="447" y="394" on="0"/>
        <pt x="413" y="415" on="1"/>
        <pt x="349" y="451" on="0"/>
        <pt x="349" y="525" on="1"/>
        <pt x="349" y="614" on="0"/>
        <pt x="513" y="760" on="0"/>
        <pt x="631" y="760" on="1"/>
        <pt x="689" y="760" on="0"/>
        <pt x="748" y="743" on="1"/>
        <pt x="896" y="703" on="0"/>
        <pt x="1016" y="627" on="1"/>
        <pt x="1047" y="661" on="0"/>
        <pt x="1080" y="661" on="1"/>
        <pt x="1117" y="661" on="0"/>
        <pt x="1118" y="636" on="1"/>
        <pt x="1119" y="625" on="0"/>
        <pt x="1111" y="626" on="1"/>
        <pt x="1106" y="627" on="0"/>
        <pt x="1100" y="634" on="1"/>
        <pt x="1092" y="637" on="0"/>
        <pt x="1085" y="637" on="1"/>
        <pt x="1063" y="637" on="0"/>
        <pt x="1040" y="615" on="1"/>
        <pt x="1114" y="578" on="0"/>
        <pt x="1214" y="552" on="1"/>
        <pt x="1253" y="543" on="0"/>
        <pt x="1299" y="543" on="0"/>
        <pt x="1311" y="544" on="1"/>
        <pt x="1355" y="549" on="0"/>
        <pt x="1368" y="577" on="1"/>
        <pt x="1375" y="592" on="0"/>
        <pt x="1386" y="599" on="0"/>
        <pt x="1387" y="592" on="1"/>
        <pt x="1387" y="589" on="0"/>
        <pt x="1387" y="584" on="1"/>
        <pt x="1387" y="543" on="0"/>
        <pt x="1345" y="522" on="1"/>
        <pt x="1319" y="509" on="0"/>
        <pt x="1273" y="509" on="0"/>
        <pt x="1219" y="518" on="0"/>
        <pt x="1133" y="546" on="0"/>
        <pt x="1079" y="570" on="0"/>
        <pt x="1053" y="583" on="1"/>
        <pt x="1025" y="597" on="1"/>
        <pt x="973" y="538" on="0"/>
        <pt x="914" y="394" on="1"/>
        <pt x="895" y="346" on="0"/>
        <pt x="892" y="339" on="1"/>
        <pt x="950" y="331" on="0"/>
        <pt x="1048" y="331" on="0"/>
        <pt x="1105" y="334" on="0"/>
        <pt x="1106" y="326" on="1"/>
        <pt x="1107" y="304" on="0"/>
        <pt x="957" y="304" on="1"/>
        <pt x="909" y="304" on="0"/>
        <pt x="880" y="308" on="1"/>
        <pt x="818" y="138" on="0"/>
        <pt x="756" y="56" on="1"/>
        <pt x="730" y="22" on="0"/>
        <pt x="652" y="-53" on="0"/>
        <pt x="608" y="-76" on="1"/>
        <pt x="509" y="-130" on="0"/>
        <pt x="265" y="-130" on="0"/>
        <pt x="180" y="-76" on="1"/>
        <pt x="51" y="4" on="0"/>
        <pt x="51" y="155" on="1"/>
        <pt x="51" y="206" on="0"/>
        <pt x="68" y="264" on="1"/>
        <pt x="80" y="302" on="0"/>
        <pt x="145" y="360" on="0"/>
        <pt x="189" y="373" on="0"/>
        <pt x="186" y="365" on="0"/>
        <pt x="153" y="342" on="1"/>
        <pt x="88" y="295" on="0"/>
        <pt x="76" y="226" on="1"/>
        <pt x="71" y="201" on="0"/>
        <pt x="71" y="135" on="0"/>
        <pt x="86" y="96" on="1"/>
        <pt x="127" y="-10" on="0"/>
        <pt x="256" y="-60" on="1"/>
        <pt x="317" y="-83" on="0"/>
        <pt x="457" y="-83" on="0"/>
        <pt x="595" y="-27" on="0"/>
        <pt x="654" y="29" on="1"/>
        <pt x="769" y="138" on="0"/>
        <pt x="844" y="311" on="1"/>
        <pt x="780" y="312" on="1"/>
        <pt x="663" y="312" on="0"/>
        <pt x="626" y="258" on="1"/>
        <pt x="617" y="247" on="0"/>
        <pt x="606" y="258" on="0"/>
        <pt x="610" y="267" on="1"/>
        <pt x="632" y="315" on="0"/>
        <pt x="712" y="357" on="0"/>
        <pt x="791" y="357" on="0"/>
        <pt x="858" y="348" on="1"/>
        <pt x="889" y="424" on="0"/>
        <pt x="984" y="588" on="0"/>
      </contour>
    </TTGlyph>
    <TTGlyph name="G" xMin="-49" yMin="-375" xMax="796" yMax="819">
      <contour>
        <pt x="158" y="462" on="1"/>
        <pt x="110" y="358" on="0"/>
        <pt x="110" y="276" on="1"/>
        <pt x="110" y="107" on="0"/>
        <pt x="226" y="69" on="1"/>
        <pt x="260" y="60" on="0"/>
        <pt x="331" y="60" on="0"/>
        <pt x="367" y="69" on="1"/>
        <pt x="439" y="88" on="0"/>
        <pt x="553" y="164" on="0"/>
        <pt x="568" y="199" on="1"/>
        <pt x="608" y="292" on="0"/>
        <pt x="654" y="292" on="1"/>
        <pt x="677" y="292" on="0"/>
        <pt x="685" y="266" on="1"/>
        <pt x="689" y="256" on="0"/>
        <pt x="687" y="244" on="1"/>
        <pt x="677" y="166" on="0"/>
        <pt x="611" y="13" on="0"/>
        <pt x="551" y="-86" on="1"/>
        <pt x="671" y="-87" on="0"/>
        <pt x="770" y="-112" on="1"/>
        <pt x="791" y="-117" on="0"/>
        <pt x="791" y="-126" on="1"/>
        <pt x="791" y="-137" on="0"/>
        <pt x="762" y="-130" on="1"/>
        <pt x="693" y="-112" on="0"/>
        <pt x="563" y="-112" on="1"/>
        <pt x="551" y="-112" on="0"/>
        <pt x="537" y="-112" on="1"/>
        <pt x="476" y="-200" on="0"/>
        <pt x="273" y="-335" on="0"/>
        <pt x="177" y="-360" on="1"/>
        <pt x="124" y="-374" on="0"/>
        <pt x="50" y="-374" on="0"/>
        <pt x="25" y="-365" on="1"/>
        <pt x="-48" y="-338" on="0"/>
        <pt x="-48" y="-294" on="1"/>
        <pt x="-48" y="-281" on="0"/>
        <pt x="-41" y="-266" on="1"/>
        <pt x="-14" y="-206" on="0"/>
        <pt x="101" y="-155" on="1"/>
        <pt x="188" y="-116" on="0"/>
        <pt x="381" y="-88" on="0"/>
        <pt x="501" y="-86" on="1"/>
        <pt x="575" y="39" on="0"/>
        <pt x="602" y="160" on="1"/>
        <pt x="606" y="177" on="1"/>
        <pt x="558" y="131" on="0"/>
        <pt x="437" y="60" on="0"/>
        <pt x="392" y="46" on="1"/>
        <pt x="320" y="23" on="0"/>
        <pt x="227" y="23" on="0"/>
        <pt x="192" y="36" on="1"/>
        <pt x="128" y="58" on="0"/>
        <pt x="88" y="124" on="1"/>
        <pt x="45" y="194" on="0"/>
        <pt x="45" y="388" on="0"/>
        <pt x="96" y="499" on="1"/>
        <pt x="30" y="567" on="0"/>
        <pt x="30" y="720" on="0"/>
        <pt x="92" y="789" on="1"/>
        <pt x="104" y="802" on="0"/>
        <pt x="115" y="795" on="0"/>
        <pt x="105" y="781" on="1"/>
        <pt x="60" y="721" on="0"/>
        <pt x="60" y="660" on="1"/>
        <pt x="60" y="590" on="0"/>
        <pt x="112" y="529" on="1"/>
        <pt x="118" y="542" on="0"/>
        <pt x="134" y="568" on="1"/>
        <pt x="212" y="696" on="0"/>
        <pt x="346" y="764" on="1"/>
        <pt x="451" y="818" on="0"/>
        <pt x="549" y="818" on="1"/>
        <pt x="576" y="818" on="0"/>
        <pt x="603" y="814" on="1"/>
        <pt x="732" y="794" on="0"/>
        <pt x="777" y="708" on="1"/>
        <pt x="795" y="674" on="0"/>
        <pt x="795" y="595" on="0"/>
        <pt x="770" y="550" on="1"/>
        <pt x="714" y="453" on="0"/>
        <pt x="574" y="414" on="1"/>
        <pt x="500" y="393" on="0"/>
        <pt x="423" y="393" on="1"/>
        <pt x="261" y="393" on="0"/>
      </contour>
      <contour>
        <pt x="572" y="787" on="1"/>
        <pt x="486" y="787" on="0"/>
        <pt x="390" y="729" on="1"/>
        <pt x="249" y="645" on="0"/>
        <pt x="171" y="488" on="1"/>
        <pt x="218" y="452" on="0"/>
        <pt x="341" y="422" on="0"/>
        <pt x="378" y="422" on="1"/>
        <pt x="589" y="422" on="0"/>
        <pt x="697" y="535" on="1"/>
        <pt x="751" y="593" on="0"/>
        <pt x="751" y="651" on="1"/>
        <pt x="751" y="743" on="0"/>
        <pt x="648" y="775" on="1"/>
        <pt x="610" y="787" on="0"/>
      </contour>
      <contour>
        <pt x="3" y="-301" on="1"/>
        <pt x="3" y="-329" on="0"/>
        <pt x="51" y="-339" on="1"/>
        <pt x="67" y="-343" on="0"/>
        <pt x="86" y="-343" on="1"/>
        <pt x="157" y="-343" on="0"/>
        <pt x="266" y="-292" on="1"/>
        <pt x="404" y="-229" on="0"/>
        <pt x="485" y="-113" on="1"/>
        <pt x="380" y="-116" on="0"/>
        <pt x="301" y="-129" on="1"/>
        <pt x="187" y="-146" on="0"/>
        <pt x="84" y="-212" on="1"/>
        <pt x="3" y="-264" on="0"/>
      </contour>
    </TTGlyph>
    <TTGlyph name="Gbreve" xMin="-41" yMin="-401" xMax="800" yMax="850">
      <contour>
        <pt x="664" y="771" on="1"/>
        <pt x="640" y="771" on="0"/>
        <pt x="618" y="782" on="1"/>
        <pt x="592" y="795" on="0"/>
        <pt x="592" y="830" on="1"/>
        <pt x="592" y="850" on="0"/>
        <pt x="605" y="850" on="1"/>
        <pt x="610" y="850" on="0"/>
        <pt x="612" y="842" on="1"/>
        <pt x="618" y="826" on="0"/>
        <pt x="625" y="819" on="1"/>
        <pt x="646" y="799" on="0"/>
        <pt x="711" y="799" on="0"/>
        <pt x="741" y="818" on="0"/>
        <pt x="758" y="841" on="1"/>
        <pt x="766" y="851" on="0"/>
        <pt x="777" y="844" on="0"/>
        <pt x="776" y="840" on="1"/>
        <pt x="743" y="771" on="0"/>
      </contour>
      <contour>
        <pt x="130" y="455" on="1"/>
        <pt x="72" y="520" on="0"/>
        <pt x="72" y="660" on="0"/>
        <pt x="127" y="725" on="1"/>
        <pt x="138" y="738" on="0"/>
        <pt x="143" y="733" on="1"/>
        <pt x="146" y="729" on="0"/>
        <pt x="138" y="718" on="1"/>
        <pt x="99" y="663" on="0"/>
        <pt x="99" y="606" on="1"/>
        <pt x="99" y="540" on="0"/>
        <pt x="145" y="483" on="1"/>
        <pt x="150" y="495" on="0"/>
        <pt x="164" y="519" on="1"/>
        <pt x="234" y="639" on="0"/>
        <pt x="354" y="703" on="1"/>
        <pt x="447" y="753" on="0"/>
        <pt x="534" y="753" on="1"/>
        <pt x="559" y="753" on="0"/>
        <pt x="583" y="749" on="1"/>
        <pt x="699" y="730" on="0"/>
        <pt x="739" y="649" on="1"/>
        <pt x="754" y="617" on="0"/>
        <pt x="754" y="541" on="0"/>
        <pt x="728" y="497" on="1"/>
        <pt x="673" y="403" on="0"/>
        <pt x="537" y="370" on="1"/>
        <pt x="478" y="356" on="0"/>
        <pt x="353" y="356" on="0"/>
        <pt x="229" y="390" on="0"/>
        <pt x="186" y="421" on="1"/>
        <pt x="135" y="309" on="0"/>
        <pt x="135" y="215" on="1"/>
        <pt x="135" y="75" on="0"/>
        <pt x="234" y="43" on="1"/>
        <pt x="268" y="34" on="0"/>
        <pt x="339" y="34" on="0"/>
        <pt x="375" y="43" on="1"/>
        <pt x="447" y="62" on="0"/>
        <pt x="561" y="138" on="0"/>
        <pt x="576" y="173" on="1"/>
        <pt x="616" y="266" on="0"/>
        <pt x="662" y="266" on="1"/>
        <pt x="685" y="266" on="0"/>
        <pt x="693" y="240" on="1"/>
        <pt x="697" y="230" on="0"/>
        <pt x="695" y="218" on="1"/>
        <pt x="685" y="140" on="0"/>
        <pt x="619" y="-13" on="0"/>
        <pt x="559" y="-112" on="1"/>
        <pt x="679" y="-113" on="0"/>
        <pt x="778" y="-138" on="1"/>
        <pt x="799" y="-143" on="0"/>
        <pt x="799" y="-152" on="1"/>
        <pt x="799" y="-163" on="0"/>
        <pt x="770" y="-156" on="1"/>
        <pt x="701" y="-138" on="0"/>
        <pt x="571" y="-138" on="1"/>
        <pt x="559" y="-138" on="0"/>
        <pt x="545" y="-138" on="1"/>
        <pt x="484" y="-226" on="0"/>
        <pt x="281" y="-361" on="0"/>
        <pt x="185" y="-386" on="1"/>
        <pt x="132" y="-400" on="0"/>
        <pt x="58" y="-400" on="0"/>
        <pt x="33" y="-391" on="1"/>
        <pt x="-40" y="-364" on="0"/>
        <pt x="-40" y="-320" on="1"/>
        <pt x="-40" y="-307" on="0"/>
        <pt x="-33" y="-292" on="1"/>
        <pt x="-6" y="-232" on="0"/>
        <pt x="109" y="-181" on="1"/>
        <pt x="196" y="-142" on="0"/>
        <pt x="389" y="-114" on="0"/>
        <pt x="509" y="-112" on="1"/>
        <pt x="583" y="13" on="0"/>
        <pt x="610" y="134" on="1"/>
        <pt x="614" y="151" on="1"/>
        <pt x="566" y="105" on="0"/>
        <pt x="445" y="34" on="0"/>
        <pt x="400" y="20" on="1"/>
        <pt x="277" y="-20" on="0"/>
        <pt x="200" y="10" on="1"/>
        <pt x="138" y="31" on="0"/>
        <pt x="77" y="152" on="0"/>
        <pt x="77" y="230" on="1"/>
        <pt x="77" y="338" on="0"/>
      </contour>
      <contour>
        <pt x="557" y="723" on="1"/>
        <pt x="480" y="723" on="0"/>
        <pt x="392" y="669" on="1"/>
        <pt x="265" y="590" on="0"/>
        <pt x="197" y="445" on="1"/>
        <pt x="240" y="411" on="0"/>
        <pt x="349" y="383" on="0"/>
        <pt x="382" y="383" on="1"/>
        <pt x="573" y="383" on="0"/>
        <pt x="668" y="491" on="1"/>
        <pt x="715" y="544" on="0"/>
        <pt x="715" y="597" on="1"/>
        <pt x="715" y="612" on="0"/>
        <pt x="711" y="627" on="1"/>
        <pt x="692" y="704" on="0"/>
        <pt x="587" y="721" on="1"/>
        <pt x="572" y="723" on="0"/>
      </contour>
      <contour>
        <pt x="11" y="-327" on="1"/>
        <pt x="11" y="-355" on="0"/>
        <pt x="59" y="-365" on="1"/>
        <pt x="75" y="-369" on="0"/>
        <pt x="94" y="-369" on="1"/>
        <pt x="165" y="-369" on="0"/>
        <pt x="274" y="-318" on="1"/>
        <pt x="412" y="-255" on="0"/>
        <pt x="493" y="-139" on="1"/>
        <pt x="388" y="-142" on="0"/>
        <pt x="309" y="-155" on="1"/>
        <pt x="195" y="-172" on="0"/>
        <pt x="92" y="-238" on="1"/>
        <pt x="11" y="-290" on="0"/>
      </contour>
    </TTGlyph>
    <TTGlyph name="Gcircumflex" xMin="-41" yMin="-401" xMax="800" yMax="850">
      <contour>
        <pt x="705" y="850" on="0"/>
        <pt x="720" y="850" on="0"/>
        <pt x="720" y="848" on="1"/>
        <pt x="749" y="763" on="1"/>
        <pt x="751" y="759" on="0"/>
        <pt x="745" y="758" on="1"/>
        <pt x="736" y="757" on="0"/>
        <pt x="733" y="763" on="1"/>
        <pt x="696" y="820" on="1"/>
        <pt x="601" y="768" on="0"/>
        <pt x="591" y="763" on="1"/>
        <pt x="583" y="756" on="0"/>
        <pt x="572" y="759" on="1"/>
        <pt x="570" y="761" on="0"/>
        <pt x="571" y="763" on="1"/>
        <pt x="690" y="848" on="1"/>
      </contour>
      <contour>
        <pt x="130" y="455" on="1"/>
        <pt x="72" y="520" on="0"/>
        <pt x="72" y="660" on="0"/>
        <pt x="127" y="725" on="1"/>
        <pt x="138" y="738" on="0"/>
        <pt x="143" y="733" on="1"/>
        <pt x="146" y="729" on="0"/>
        <pt x="138" y="718" on="1"/>
        <pt x="99" y="663" on="0"/>
        <pt x="99" y="606" on="1"/>
        <pt x="99" y="540" on="0"/>
        <pt x="145" y="483" on="1"/>
        <pt x="150" y="495" on="0"/>
        <pt x="164" y="519" on="1"/>
        <pt x="232" y="636" on="0"/>
        <pt x="359" y="695" on="1"/>
        <pt x="456" y="740" on="0"/>
        <pt x="545" y="740" on="1"/>
        <pt x="573" y="740" on="0"/>
        <pt x="599" y="736" on="1"/>
        <pt x="716" y="717" on="0"/>
        <pt x="752" y="638" on="1"/>
        <pt x="765" y="610" on="0"/>
        <pt x="765" y="536" on="0"/>
        <pt x="733" y="490" on="1"/>
        <pt x="671" y="398" on="0"/>
        <pt x="528" y="368" on="1"/>
        <pt x="472" y="356" on="0"/>
        <pt x="353" y="356" on="0"/>
        <pt x="229" y="390" on="0"/>
        <pt x="186" y="421" on="1"/>
        <pt x="135" y="309" on="0"/>
        <pt x="135" y="215" on="1"/>
        <pt x="135" y="75" on="0"/>
        <pt x="234" y="43" on="1"/>
        <pt x="268" y="34" on="0"/>
        <pt x="339" y="34" on="0"/>
        <pt x="375" y="43" on="1"/>
        <pt x="447" y="62" on="0"/>
        <pt x="561" y="138" on="0"/>
        <pt x="576" y="173" on="1"/>
        <pt x="616" y="266" on="0"/>
        <pt x="662" y="266" on="1"/>
        <pt x="685" y="266" on="0"/>
        <pt x="693" y="240" on="1"/>
        <pt x="697" y="230" on="0"/>
        <pt x="695" y="218" on="1"/>
        <pt x="685" y="140" on="0"/>
        <pt x="619" y="-13" on="0"/>
        <pt x="559" y="-112" on="1"/>
        <pt x="679" y="-113" on="0"/>
        <pt x="778" y="-138" on="1"/>
        <pt x="799" y="-143" on="0"/>
        <pt x="799" y="-152" on="1"/>
        <pt x="799" y="-163" on="0"/>
        <pt x="770" y="-156" on="1"/>
        <pt x="701" y="-138" on="0"/>
        <pt x="571" y="-138" on="1"/>
        <pt x="559" y="-138" on="0"/>
        <pt x="545" y="-138" on="1"/>
        <pt x="484" y="-226" on="0"/>
        <pt x="281" y="-361" on="0"/>
        <pt x="185" y="-386" on="1"/>
        <pt x="132" y="-400" on="0"/>
        <pt x="58" y="-400" on="0"/>
        <pt x="33" y="-391" on="1"/>
        <pt x="-40" y="-364" on="0"/>
        <pt x="-40" y="-320" on="1"/>
        <pt x="-40" y="-307" on="0"/>
        <pt x="-33" y="-292" on="1"/>
        <pt x="-6" y="-232" on="0"/>
        <pt x="109" y="-181" on="1"/>
        <pt x="196" y="-142" on="0"/>
        <pt x="389" y="-114" on="0"/>
        <pt x="509" y="-112" on="1"/>
        <pt x="583" y="13" on="0"/>
        <pt x="610" y="134" on="1"/>
        <pt x="614" y="151" on="1"/>
        <pt x="566" y="105" on="0"/>
        <pt x="445" y="34" on="0"/>
        <pt x="400" y="20" on="1"/>
        <pt x="277" y="-20" on="0"/>
        <pt x="200" y="10" on="1"/>
        <pt x="138" y="31" on="0"/>
        <pt x="77" y="152" on="0"/>
        <pt x="77" y="230" on="1"/>
        <pt x="77" y="338" on="0"/>
      </contour>
      <contour>
        <pt x="567" y="711" on="1"/>
        <pt x="489" y="711" on="0"/>
        <pt x="398" y="662" on="1"/>
        <pt x="265" y="590" on="0"/>
        <pt x="197" y="445" on="1"/>
        <pt x="240" y="411" on="0"/>
        <pt x="349" y="383" on="0"/>
        <pt x="415" y="383" on="0"/>
        <pt x="435" y="385" on="1"/>
        <pt x="592" y="402" on="0"/>
        <pt x="675" y="489" on="1"/>
        <pt x="726" y="542" on="0"/>
        <pt x="726" y="594" on="1"/>
        <pt x="726" y="688" on="0"/>
        <pt x="603" y="708" on="1"/>
        <pt x="586" y="711" on="0"/>
      </contour>
      <contour>
        <pt x="11" y="-327" on="1"/>
        <pt x="11" y="-355" on="0"/>
        <pt x="59" y="-365" on="1"/>
        <pt x="75" y="-369" on="0"/>
        <pt x="94" y="-369" on="1"/>
        <pt x="165" y="-369" on="0"/>
        <pt x="274" y="-318" on="1"/>
        <pt x="412" y="-255" on="0"/>
        <pt x="493" y="-139" on="1"/>
        <pt x="388" y="-142" on="0"/>
        <pt x="309" y="-155" on="1"/>
        <pt x="195" y="-172" on="0"/>
        <pt x="92" y="-238" on="1"/>
        <pt x="11" y="-290" on="0"/>
      </contour>
    </TTGlyph>
    <TTGlyph name="Gcommaaccent" xMin="-41" yMin="-396" xMax="800" yMax="828">
      <contour>
        <pt x="354" y="-272" on="1"/>
        <pt x="386" y="-272" on="0"/>
        <pt x="386" y="-338" on="0"/>
        <pt x="339" y="-385" on="0"/>
        <pt x="311" y="-394" on="1"/>
        <pt x="309" y="-395" on="0"/>
        <pt x="305" y="-395" on="0"/>
        <pt x="304" y="-393" on="1"/>
        <pt x="303" y="-388" on="0"/>
        <pt x="310" y="-386" on="1"/>
        <pt x="359" y="-371" on="0"/>
        <pt x="365" y="-324" on="1"/>
        <pt x="354" y="-331" on="0"/>
        <pt x="332" y="-331" on="0"/>
        <pt x="318" y="-314" on="0"/>
        <pt x="321" y="-289" on="0"/>
        <pt x="342" y="-272" on="0"/>
      </contour>
      <contour>
        <pt x="130" y="530" on="1"/>
        <pt x="72" y="595" on="0"/>
        <pt x="72" y="735" on="0"/>
        <pt x="127" y="800" on="1"/>
        <pt x="138" y="813" on="0"/>
        <pt x="143" y="808" on="1"/>
        <pt x="146" y="804" on="0"/>
        <pt x="138" y="793" on="1"/>
        <pt x="99" y="738" on="0"/>
        <pt x="99" y="681" on="1"/>
        <pt x="99" y="615" on="0"/>
        <pt x="145" y="558" on="1"/>
        <pt x="150" y="570" on="0"/>
        <pt x="164" y="594" on="1"/>
        <pt x="234" y="714" on="0"/>
        <pt x="354" y="778" on="1"/>
        <pt x="447" y="828" on="0"/>
        <pt x="534" y="828" on="1"/>
        <pt x="559" y="828" on="0"/>
        <pt x="583" y="824" on="1"/>
        <pt x="699" y="805" on="0"/>
        <pt x="739" y="724" on="1"/>
        <pt x="754" y="692" on="0"/>
        <pt x="754" y="616" on="0"/>
        <pt x="728" y="572" on="1"/>
        <pt x="673" y="478" on="0"/>
        <pt x="537" y="445" on="1"/>
        <pt x="478" y="431" on="0"/>
        <pt x="353" y="431" on="0"/>
        <pt x="229" y="465" on="0"/>
        <pt x="186" y="496" on="1"/>
        <pt x="135" y="384" on="0"/>
        <pt x="135" y="290" on="1"/>
        <pt x="135" y="150" on="0"/>
        <pt x="234" y="118" on="1"/>
        <pt x="268" y="108" on="0"/>
        <pt x="339" y="108" on="0"/>
        <pt x="375" y="118" on="1"/>
        <pt x="447" y="137" on="0"/>
        <pt x="561" y="213" on="0"/>
        <pt x="576" y="248" on="1"/>
        <pt x="616" y="341" on="0"/>
        <pt x="662" y="341" on="1"/>
        <pt x="685" y="341" on="0"/>
        <pt x="693" y="315" on="1"/>
        <pt x="697" y="305" on="0"/>
        <pt x="695" y="293" on="1"/>
        <pt x="685" y="215" on="0"/>
        <pt x="619" y="62" on="0"/>
        <pt x="559" y="-37" on="1"/>
        <pt x="679" y="-38" on="0"/>
        <pt x="778" y="-63" on="1"/>
        <pt x="799" y="-68" on="0"/>
        <pt x="799" y="-77" on="1"/>
        <pt x="799" y="-88" on="0"/>
        <pt x="770" y="-81" on="1"/>
        <pt x="701" y="-63" on="0"/>
        <pt x="571" y="-63" on="1"/>
        <pt x="559" y="-63" on="0"/>
        <pt x="545" y="-63" on="1"/>
        <pt x="484" y="-151" on="0"/>
        <pt x="281" y="-286" on="0"/>
        <pt x="185" y="-312" on="1"/>
        <pt x="132" y="-325" on="0"/>
        <pt x="58" y="-325" on="0"/>
        <pt x="33" y="-316" on="1"/>
        <pt x="-40" y="-289" on="0"/>
        <pt x="-40" y="-245" on="1"/>
        <pt x="-40" y="-232" on="0"/>
        <pt x="-33" y="-217" on="1"/>
        <pt x="-6" y="-157" on="0"/>
        <pt x="109" y="-106" on="1"/>
        <pt x="196" y="-67" on="0"/>
        <pt x="389" y="-39" on="0"/>
        <pt x="509" y="-37" on="1"/>
        <pt x="583" y="88" on="0"/>
        <pt x="610" y="209" on="1"/>
        <pt x="614" y="226" on="1"/>
        <pt x="566" y="180" on="0"/>
        <pt x="445" y="109" on="0"/>
        <pt x="400" y="94" on="1"/>
        <pt x="328" y="72" on="0"/>
        <pt x="235" y="72" on="0"/>
        <pt x="200" y="85" on="1"/>
        <pt x="138" y="106" on="0"/>
        <pt x="77" y="227" on="0"/>
        <pt x="77" y="305" on="1"/>
        <pt x="77" y="413" on="0"/>
      </contour>
      <contour>
        <pt x="557" y="798" on="1"/>
        <pt x="480" y="798" on="0"/>
        <pt x="392" y="744" on="1"/>
        <pt x="265" y="665" on="0"/>
        <pt x="197" y="520" on="1"/>
        <pt x="240" y="486" on="0"/>
        <pt x="349" y="458" on="0"/>
        <pt x="382" y="458" on="1"/>
        <pt x="573" y="458" on="0"/>
        <pt x="668" y="566" on="1"/>
        <pt x="715" y="619" on="0"/>
        <pt x="715" y="672" on="1"/>
        <pt x="715" y="687" on="0"/>
        <pt x="711" y="702" on="1"/>
        <pt x="692" y="779" on="0"/>
        <pt x="587" y="796" on="1"/>
        <pt x="572" y="798" on="0"/>
      </contour>
      <contour>
        <pt x="11" y="-252" on="1"/>
        <pt x="11" y="-280" on="0"/>
        <pt x="59" y="-290" on="1"/>
        <pt x="75" y="-294" on="0"/>
        <pt x="94" y="-294" on="1"/>
        <pt x="165" y="-294" on="0"/>
        <pt x="274" y="-244" on="1"/>
        <pt x="412" y="-180" on="0"/>
        <pt x="493" y="-64" on="1"/>
        <pt x="388" y="-67" on="0"/>
        <pt x="309" y="-80" on="1"/>
        <pt x="195" y="-97" on="0"/>
        <pt x="92" y="-163" on="1"/>
        <pt x="11" y="-215" on="0"/>
      </contour>
    </TTGlyph>
    <TTGlyph name="Gdotaccent" xMin="-41" yMin="-401" xMax="800" yMax="850">
      <contour>
        <pt x="130" y="455" on="1"/>
        <pt x="72" y="520" on="0"/>
        <pt x="72" y="660" on="0"/>
        <pt x="127" y="725" on="1"/>
        <pt x="138" y="738" on="0"/>
        <pt x="143" y="733" on="1"/>
        <pt x="146" y="729" on="0"/>
        <pt x="138" y="718" on="1"/>
        <pt x="99" y="663" on="0"/>
        <pt x="99" y="606" on="1"/>
        <pt x="99" y="540" on="0"/>
        <pt x="145" y="483" on="1"/>
        <pt x="150" y="495" on="0"/>
        <pt x="164" y="519" on="1"/>
        <pt x="234" y="639" on="0"/>
        <pt x="354" y="703" on="1"/>
        <pt x="447" y="753" on="0"/>
        <pt x="534" y="753" on="1"/>
        <pt x="559" y="753" on="0"/>
        <pt x="583" y="749" on="1"/>
        <pt x="699" y="730" on="0"/>
        <pt x="739" y="649" on="1"/>
        <pt x="754" y="617" on="0"/>
        <pt x="754" y="541" on="0"/>
        <pt x="728" y="497" on="1"/>
        <pt x="673" y="403" on="0"/>
        <pt x="537" y="370" on="1"/>
        <pt x="478" y="356" on="0"/>
        <pt x="353" y="356" on="0"/>
        <pt x="229" y="390" on="0"/>
        <pt x="186" y="421" on="1"/>
        <pt x="135" y="309" on="0"/>
        <pt x="135" y="215" on="1"/>
        <pt x="135" y="75" on="0"/>
        <pt x="234" y="43" on="1"/>
        <pt x="268" y="34" on="0"/>
        <pt x="339" y="34" on="0"/>
        <pt x="375" y="43" on="1"/>
        <pt x="447" y="62" on="0"/>
        <pt x="561" y="138" on="0"/>
        <pt x="576" y="173" on="1"/>
        <pt x="616" y="266" on="0"/>
        <pt x="662" y="266" on="1"/>
        <pt x="685" y="266" on="0"/>
        <pt x="693" y="240" on="1"/>
        <pt x="697" y="230" on="0"/>
        <pt x="695" y="218" on="1"/>
        <pt x="685" y="140" on="0"/>
        <pt x="619" y="-13" on="0"/>
        <pt x="559" y="-112" on="1"/>
        <pt x="679" y="-113" on="0"/>
        <pt x="778" y="-138" on="1"/>
        <pt x="799" y="-143" on="0"/>
        <pt x="799" y="-152" on="1"/>
        <pt x="799" y="-163" on="0"/>
        <pt x="770" y="-156" on="1"/>
        <pt x="701" y="-138" on="0"/>
        <pt x="571" y="-138" on="1"/>
        <pt x="559" y="-138" on="0"/>
        <pt x="545" y="-138" on="1"/>
        <pt x="484" y="-226" on="0"/>
        <pt x="281" y="-361" on="0"/>
        <pt x="185" y="-386" on="1"/>
        <pt x="132" y="-400" on="0"/>
        <pt x="58" y="-400" on="0"/>
        <pt x="33" y="-391" on="1"/>
        <pt x="-40" y="-364" on="0"/>
        <pt x="-40" y="-320" on="1"/>
        <pt x="-40" y="-307" on="0"/>
        <pt x="-33" y="-292" on="1"/>
        <pt x="-6" y="-232" on="0"/>
        <pt x="109" y="-181" on="1"/>
        <pt x="196" y="-142" on="0"/>
        <pt x="389" y="-114" on="0"/>
        <pt x="509" y="-112" on="1"/>
        <pt x="583" y="13" on="0"/>
        <pt x="610" y="134" on="1"/>
        <pt x="614" y="151" on="1"/>
        <pt x="566" y="105" on="0"/>
        <pt x="445" y="34" on="0"/>
        <pt x="400" y="20" on="1"/>
        <pt x="277" y="-20" on="0"/>
        <pt x="200" y="10" on="1"/>
        <pt x="138" y="31" on="0"/>
        <pt x="77" y="152" on="0"/>
        <pt x="77" y="230" on="1"/>
        <pt x="77" y="338" on="0"/>
      </contour>
      <contour>
        <pt x="557" y="723" on="1"/>
        <pt x="480" y="723" on="0"/>
        <pt x="392" y="669" on="1"/>
        <pt x="265" y="590" on="0"/>
        <pt x="197" y="445" on="1"/>
        <pt x="240" y="411" on="0"/>
        <pt x="349" y="383" on="0"/>
        <pt x="382" y="383" on="1"/>
        <pt x="573" y="383" on="0"/>
        <pt x="668" y="491" on="1"/>
        <pt x="715" y="544" on="0"/>
        <pt x="715" y="597" on="1"/>
        <pt x="715" y="612" on="0"/>
        <pt x="711" y="627" on="1"/>
        <pt x="692" y="704" on="0"/>
        <pt x="587" y="721" on="1"/>
        <pt x="572" y="723" on="0"/>
      </contour>
      <contour>
        <pt x="11" y="-327" on="1"/>
        <pt x="11" y="-355" on="0"/>
        <pt x="59" y="-365" on="1"/>
        <pt x="75" y="-369" on="0"/>
        <pt x="94" y="-369" on="1"/>
        <pt x="165" y="-369" on="0"/>
        <pt x="274" y="-318" on="1"/>
        <pt x="412" y="-255" on="0"/>
        <pt x="493" y="-139" on="1"/>
        <pt x="388" y="-142" on="0"/>
        <pt x="309" y="-155" on="1"/>
        <pt x="195" y="-172" on="0"/>
        <pt x="92" y="-238" on="1"/>
        <pt x="11" y="-290" on="0"/>
      </contour>
      <contour>
        <pt x="647" y="850" on="1"/>
        <pt x="666" y="850" on="0"/>
        <pt x="666" y="825" on="1"/>
        <pt x="666" y="813" on="0"/>
        <pt x="642" y="789" on="0"/>
        <pt x="609" y="789" on="0"/>
        <pt x="609" y="805" on="1"/>
        <pt x="609" y="818" on="0"/>
        <pt x="634" y="850" on="0"/>
      </contour>
    </TTGlyph>
    <TTGlyph name="H" xMin="4" yMin="-172" xMax="1537" yMax="803">
      <contour>
        <pt x="1375" y="629" on="0"/>
        <pt x="1449" y="740" on="0"/>
        <pt x="1514" y="763" on="0"/>
        <pt x="1537" y="763" on="0"/>
        <pt x="1537" y="760" on="1"/>
        <pt x="1537" y="757" on="0"/>
        <pt x="1511" y="744" on="0"/>
        <pt x="1448" y="652" on="0"/>
        <pt x="1352" y="462" on="0"/>
        <pt x="1316" y="356" on="1"/>
        <pt x="1377" y="356" on="0"/>
        <pt x="1410" y="368" on="0"/>
        <pt x="1417" y="360" on="0"/>
        <pt x="1404" y="351" on="1"/>
        <pt x="1371" y="328" on="0"/>
        <pt x="1307" y="324" on="1"/>
        <pt x="1306" y="322" on="0"/>
        <pt x="1291" y="276" on="1"/>
        <pt x="1241" y="121" on="0"/>
        <pt x="1241" y="59" on="1"/>
        <pt x="1241" y="24" on="0"/>
        <pt x="1266" y="-4" on="0"/>
        <pt x="1294" y="-4" on="0"/>
        <pt x="1311" y="8" on="1"/>
        <pt x="1368" y="50" on="0"/>
        <pt x="1436" y="189" on="1"/>
        <pt x="1444" y="206" on="0"/>
        <pt x="1459" y="200" on="0"/>
        <pt x="1451" y="182" on="1"/>
        <pt x="1414" y="103" on="0"/>
        <pt x="1365" y="29" on="0"/>
        <pt x="1334" y="-2" on="1"/>
        <pt x="1293" y="-41" on="0"/>
        <pt x="1252" y="-41" on="1"/>
        <pt x="1206" y="-41" on="0"/>
        <pt x="1188" y="-3" on="1"/>
        <pt x="1179" y="15" on="0"/>
        <pt x="1179" y="45" on="0"/>
        <pt x="1180" y="78" on="0"/>
        <pt x="1186" y="131" on="0"/>
        <pt x="1209" y="210" on="0"/>
        <pt x="1222" y="251" on="0"/>
        <pt x="1248" y="321" on="0"/>
        <pt x="1249" y="324" on="1"/>
        <pt x="1206" y="324" on="0"/>
        <pt x="910" y="337" on="1"/>
        <pt x="849" y="155" on="0"/>
        <pt x="718" y="11" on="1"/>
        <pt x="654" y="-60" on="0"/>
        <pt x="569" y="-108" on="1"/>
        <pt x="455" y="-171" on="0"/>
        <pt x="329" y="-171" on="1"/>
        <pt x="276" y="-171" on="0"/>
        <pt x="146" y="-140" on="0"/>
        <pt x="30" y="-53" on="0"/>
        <pt x="-19" y="95" on="0"/>
        <pt x="4" y="185" on="1"/>
        <pt x="16" y="231" on="0"/>
        <pt x="99" y="311" on="0"/>
        <pt x="126" y="312" on="1"/>
        <pt x="136" y="312" on="0"/>
        <pt x="140" y="307" on="0"/>
        <pt x="133" y="300" on="0"/>
        <pt x="128" y="298" on="1"/>
        <pt x="98" y="285" on="0"/>
        <pt x="66" y="241" on="1"/>
        <pt x="24" y="183" on="0"/>
        <pt x="24" y="106" on="1"/>
        <pt x="24" y="-14" on="0"/>
        <pt x="140" y="-73" on="1"/>
        <pt x="210" y="-108" on="0"/>
        <pt x="304" y="-108" on="1"/>
        <pt x="345" y="-108" on="0"/>
        <pt x="381" y="-100" on="1"/>
        <pt x="720" y="-24" on="0"/>
        <pt x="858" y="339" on="1"/>
        <pt x="832" y="339" on="0"/>
        <pt x="783" y="316" on="0"/>
        <pt x="768" y="316" on="0"/>
        <pt x="767" y="322" on="1"/>
        <pt x="767" y="339" on="0"/>
        <pt x="815" y="370" on="0"/>
        <pt x="833" y="372" on="1"/>
        <pt x="872" y="372" on="1"/>
        <pt x="936" y="532" on="0"/>
        <pt x="1018" y="696" on="1"/>
        <pt x="992" y="693" on="0"/>
        <pt x="896" y="685" on="0"/>
        <pt x="836" y="679" on="0"/>
        <pt x="748" y="665" on="0"/>
        <pt x="690" y="646" on="0"/>
        <pt x="619" y="612" on="0"/>
        <pt x="595" y="590" on="1"/>
        <pt x="538" y="536" on="0"/>
        <pt x="514" y="458" on="1"/>
        <pt x="504" y="426" on="0"/>
        <pt x="504" y="354" on="0"/>
        <pt x="556" y="286" on="0"/>
        <pt x="599" y="286" on="1"/>
        <pt x="684" y="286" on="0"/>
        <pt x="720" y="384" on="1"/>
        <pt x="737" y="430" on="0"/>
        <pt x="737" y="467" on="0"/>
        <pt x="724" y="486" on="0"/>
        <pt x="734" y="488" on="1"/>
        <pt x="741" y="489" on="0"/>
        <pt x="746" y="480" on="1"/>
        <pt x="758" y="454" on="0"/>
        <pt x="758" y="394" on="0"/>
        <pt x="738" y="359" on="1"/>
        <pt x="704" y="297" on="0"/>
        <pt x="646" y="276" on="1"/>
        <pt x="618" y="266" on="0"/>
        <pt x="562" y="266" on="0"/>
        <pt x="534" y="278" on="1"/>
        <pt x="481" y="301" on="0"/>
        <pt x="456" y="356" on="1"/>
        <pt x="440" y="389" on="0"/>
        <pt x="440" y="449" on="0"/>
        <pt x="459" y="526" on="0"/>
        <pt x="515" y="606" on="0"/>
        <pt x="599" y="655" on="0"/>
        <pt x="683" y="687" on="0"/>
        <pt x="798" y="703" on="0"/>
        <pt x="883" y="711" on="0"/>
        <pt x="1003" y="717" on="0"/>
        <pt x="1032" y="720" on="1"/>
        <pt x="1043" y="739" on="0"/>
        <pt x="1088" y="794" on="0"/>
        <pt x="1120" y="803" on="0"/>
        <pt x="1129" y="803" on="1"/>
        <pt x="1166" y="803" on="0"/>
        <pt x="1166" y="740" on="0"/>
        <pt x="1084" y="698" on="0"/>
        <pt x="1048" y="698" on="1"/>
        <pt x="1021" y="646" on="0"/>
        <pt x="922" y="379" on="0"/>
        <pt x="919" y="372" on="1"/>
        <pt x="994" y="372" on="0"/>
        <pt x="1231" y="355" on="0"/>
        <pt x="1258" y="355" on="1"/>
        <pt x="1278" y="413" on="0"/>
      </contour>
      <contour>
        <pt x="1116" y="772" on="1"/>
        <pt x="1104" y="772" on="0"/>
        <pt x="1066" y="723" on="1"/>
        <pt x="1131" y="733" on="0"/>
        <pt x="1130" y="758" on="1"/>
        <pt x="1129" y="769" on="0"/>
        <pt x="1119" y="771" on="1"/>
        <pt x="1118" y="772" on="0"/>
      </contour>
    </TTGlyph>
    <TTGlyph name="Hbar" xMin="4" yMin="-172" xMax="1565" yMax="803">
      <contour>
        <pt x="1129" y="803" on="1"/>
        <pt x="1166" y="803" on="0"/>
        <pt x="1166" y="740" on="0"/>
        <pt x="1084" y="698" on="0"/>
        <pt x="1048" y="698" on="1"/>
        <pt x="1025" y="653" on="0"/>
        <pt x="992" y="568" on="1"/>
        <pt x="1348" y="568" on="1"/>
        <pt x="1426" y="732" on="0"/>
        <pt x="1476" y="749" on="1"/>
        <pt x="1514" y="763" on="0"/>
        <pt x="1533" y="763" on="0"/>
        <pt x="1540" y="760" on="0"/>
        <pt x="1526" y="752" on="0"/>
        <pt x="1523" y="750" on="1"/>
        <pt x="1511" y="744" on="0"/>
        <pt x="1443" y="643" on="0"/>
        <pt x="1405" y="568" on="1"/>
        <pt x="1565" y="568" on="1"/>
        <pt x="1556" y="528" on="1"/>
        <pt x="1386" y="528" on="1"/>
        <pt x="1346" y="442" on="0"/>
        <pt x="1316" y="356" on="1"/>
        <pt x="1377" y="356" on="0"/>
        <pt x="1410" y="368" on="0"/>
        <pt x="1417" y="360" on="0"/>
        <pt x="1404" y="351" on="1"/>
        <pt x="1371" y="328" on="0"/>
        <pt x="1307" y="324" on="1"/>
        <pt x="1306" y="322" on="0"/>
        <pt x="1291" y="276" on="1"/>
        <pt x="1241" y="121" on="0"/>
        <pt x="1241" y="59" on="1"/>
        <pt x="1241" y="24" on="0"/>
        <pt x="1266" y="-4" on="0"/>
        <pt x="1294" y="-4" on="0"/>
        <pt x="1311" y="8" on="1"/>
        <pt x="1368" y="50" on="0"/>
        <pt x="1436" y="189" on="1"/>
        <pt x="1444" y="206" on="0"/>
        <pt x="1459" y="200" on="0"/>
        <pt x="1451" y="182" on="1"/>
        <pt x="1414" y="103" on="0"/>
        <pt x="1365" y="29" on="0"/>
        <pt x="1334" y="-2" on="1"/>
        <pt x="1293" y="-41" on="0"/>
        <pt x="1252" y="-41" on="1"/>
        <pt x="1206" y="-41" on="0"/>
        <pt x="1188" y="-3" on="1"/>
        <pt x="1179" y="15" on="0"/>
        <pt x="1179" y="45" on="0"/>
        <pt x="1180" y="78" on="0"/>
        <pt x="1186" y="131" on="0"/>
        <pt x="1209" y="210" on="0"/>
        <pt x="1222" y="251" on="0"/>
        <pt x="1248" y="321" on="0"/>
        <pt x="1249" y="324" on="1"/>
        <pt x="1206" y="324" on="0"/>
        <pt x="910" y="337" on="1"/>
        <pt x="849" y="155" on="0"/>
        <pt x="718" y="11" on="1"/>
        <pt x="654" y="-60" on="0"/>
        <pt x="569" y="-108" on="1"/>
        <pt x="455" y="-171" on="0"/>
        <pt x="329" y="-171" on="1"/>
        <pt x="276" y="-171" on="0"/>
        <pt x="146" y="-140" on="0"/>
        <pt x="30" y="-53" on="0"/>
        <pt x="-19" y="95" on="0"/>
        <pt x="4" y="185" on="1"/>
        <pt x="16" y="231" on="0"/>
        <pt x="99" y="311" on="0"/>
        <pt x="126" y="312" on="1"/>
        <pt x="136" y="312" on="0"/>
        <pt x="140" y="307" on="0"/>
        <pt x="133" y="300" on="0"/>
        <pt x="128" y="298" on="1"/>
        <pt x="98" y="285" on="0"/>
        <pt x="66" y="241" on="1"/>
        <pt x="24" y="183" on="0"/>
        <pt x="24" y="106" on="1"/>
        <pt x="24" y="-14" on="0"/>
        <pt x="140" y="-73" on="1"/>
        <pt x="210" y="-108" on="0"/>
        <pt x="304" y="-108" on="1"/>
        <pt x="345" y="-108" on="0"/>
        <pt x="381" y="-100" on="1"/>
        <pt x="720" y="-24" on="0"/>
        <pt x="858" y="339" on="1"/>
        <pt x="832" y="339" on="0"/>
        <pt x="783" y="316" on="0"/>
        <pt x="768" y="316" on="0"/>
        <pt x="767" y="322" on="1"/>
        <pt x="767" y="339" on="0"/>
        <pt x="815" y="370" on="0"/>
        <pt x="833" y="372" on="1"/>
        <pt x="872" y="372" on="1"/>
        <pt x="906" y="457" on="0"/>
        <pt x="938" y="528" on="1"/>
        <pt x="740" y="528" on="1"/>
        <pt x="750" y="568" on="1"/>
        <pt x="957" y="568" on="1"/>
        <pt x="999" y="659" on="0"/>
        <pt x="1018" y="696" on="1"/>
        <pt x="992" y="693" on="0"/>
        <pt x="896" y="685" on="0"/>
        <pt x="836" y="679" on="0"/>
        <pt x="748" y="665" on="0"/>
        <pt x="690" y="646" on="0"/>
        <pt x="619" y="612" on="0"/>
        <pt x="595" y="590" on="1"/>
        <pt x="538" y="536" on="0"/>
        <pt x="514" y="458" on="1"/>
        <pt x="504" y="426" on="0"/>
        <pt x="504" y="354" on="0"/>
        <pt x="556" y="286" on="0"/>
        <pt x="599" y="286" on="1"/>
        <pt x="684" y="286" on="0"/>
        <pt x="720" y="384" on="1"/>
        <pt x="737" y="430" on="0"/>
        <pt x="737" y="467" on="0"/>
        <pt x="724" y="486" on="0"/>
        <pt x="734" y="488" on="1"/>
        <pt x="741" y="489" on="0"/>
        <pt x="746" y="480" on="1"/>
        <pt x="758" y="454" on="0"/>
        <pt x="758" y="394" on="0"/>
        <pt x="738" y="359" on="1"/>
        <pt x="704" y="297" on="0"/>
        <pt x="646" y="276" on="1"/>
        <pt x="618" y="266" on="0"/>
        <pt x="562" y="266" on="0"/>
        <pt x="534" y="278" on="1"/>
        <pt x="481" y="301" on="0"/>
        <pt x="456" y="356" on="1"/>
        <pt x="440" y="389" on="0"/>
        <pt x="440" y="449" on="0"/>
        <pt x="459" y="526" on="0"/>
        <pt x="515" y="606" on="0"/>
        <pt x="599" y="655" on="0"/>
        <pt x="683" y="687" on="0"/>
        <pt x="798" y="703" on="0"/>
        <pt x="883" y="711" on="0"/>
        <pt x="1003" y="717" on="0"/>
        <pt x="1032" y="720" on="1"/>
        <pt x="1043" y="739" on="0"/>
        <pt x="1088" y="794" on="0"/>
        <pt x="1120" y="803" on="0"/>
      </contour>
      <contour>
        <pt x="1258" y="355" on="1"/>
        <pt x="1278" y="414" on="0"/>
        <pt x="1329" y="528" on="1"/>
        <pt x="977" y="528" on="1"/>
        <pt x="919" y="372" on="1"/>
        <pt x="994" y="372" on="0"/>
        <pt x="1231" y="355" on="0"/>
      </contour>
      <contour>
        <pt x="1116" y="772" on="1"/>
        <pt x="1104" y="772" on="0"/>
        <pt x="1066" y="723" on="1"/>
        <pt x="1131" y="733" on="0"/>
        <pt x="1130" y="758" on="1"/>
        <pt x="1129" y="769" on="0"/>
        <pt x="1119" y="771" on="1"/>
        <pt x="1118" y="772" on="0"/>
      </contour>
    </TTGlyph>
    <TTGlyph name="Hcircumflex" xMin="4" yMin="-172" xMax="1537" yMax="850">
      <contour>
        <pt x="1375" y="629" on="0"/>
        <pt x="1449" y="740" on="0"/>
        <pt x="1514" y="763" on="0"/>
        <pt x="1537" y="763" on="0"/>
        <pt x="1537" y="760" on="1"/>
        <pt x="1537" y="757" on="0"/>
        <pt x="1511" y="744" on="0"/>
        <pt x="1448" y="652" on="0"/>
        <pt x="1352" y="462" on="0"/>
        <pt x="1316" y="356" on="1"/>
        <pt x="1377" y="356" on="0"/>
        <pt x="1410" y="368" on="0"/>
        <pt x="1417" y="360" on="0"/>
        <pt x="1404" y="351" on="1"/>
        <pt x="1371" y="328" on="0"/>
        <pt x="1307" y="324" on="1"/>
        <pt x="1306" y="322" on="0"/>
        <pt x="1291" y="276" on="1"/>
        <pt x="1241" y="121" on="0"/>
        <pt x="1241" y="59" on="1"/>
        <pt x="1241" y="24" on="0"/>
        <pt x="1266" y="-4" on="0"/>
        <pt x="1294" y="-4" on="0"/>
        <pt x="1311" y="8" on="1"/>
        <pt x="1368" y="50" on="0"/>
        <pt x="1436" y="189" on="1"/>
        <pt x="1444" y="206" on="0"/>
        <pt x="1459" y="200" on="0"/>
        <pt x="1451" y="182" on="1"/>
        <pt x="1414" y="103" on="0"/>
        <pt x="1365" y="29" on="0"/>
        <pt x="1334" y="-2" on="1"/>
        <pt x="1293" y="-41" on="0"/>
        <pt x="1252" y="-41" on="1"/>
        <pt x="1206" y="-41" on="0"/>
        <pt x="1188" y="-3" on="1"/>
        <pt x="1179" y="15" on="0"/>
        <pt x="1179" y="45" on="0"/>
        <pt x="1180" y="78" on="0"/>
        <pt x="1186" y="131" on="0"/>
        <pt x="1209" y="210" on="0"/>
        <pt x="1222" y="251" on="0"/>
        <pt x="1248" y="321" on="0"/>
        <pt x="1249" y="324" on="1"/>
        <pt x="1206" y="324" on="0"/>
        <pt x="910" y="337" on="1"/>
        <pt x="849" y="155" on="0"/>
        <pt x="718" y="11" on="1"/>
        <pt x="654" y="-60" on="0"/>
        <pt x="569" y="-108" on="1"/>
        <pt x="455" y="-171" on="0"/>
        <pt x="329" y="-171" on="1"/>
        <pt x="276" y="-171" on="0"/>
        <pt x="146" y="-140" on="0"/>
        <pt x="30" y="-53" on="0"/>
        <pt x="-19" y="95" on="0"/>
        <pt x="4" y="185" on="1"/>
        <pt x="16" y="231" on="0"/>
        <pt x="99" y="311" on="0"/>
        <pt x="126" y="312" on="1"/>
        <pt x="136" y="312" on="0"/>
        <pt x="140" y="307" on="0"/>
        <pt x="133" y="300" on="0"/>
        <pt x="128" y="298" on="1"/>
        <pt x="98" y="285" on="0"/>
        <pt x="66" y="241" on="1"/>
        <pt x="24" y="183" on="0"/>
        <pt x="24" y="106" on="1"/>
        <pt x="24" y="-14" on="0"/>
        <pt x="140" y="-73" on="1"/>
        <pt x="210" y="-108" on="0"/>
        <pt x="304" y="-108" on="1"/>
        <pt x="345" y="-108" on="0"/>
        <pt x="381" y="-100" on="1"/>
        <pt x="720" y="-24" on="0"/>
        <pt x="858" y="339" on="1"/>
        <pt x="832" y="339" on="0"/>
        <pt x="783" y="316" on="0"/>
        <pt x="768" y="316" on="0"/>
        <pt x="767" y="322" on="1"/>
        <pt x="767" y="339" on="0"/>
        <pt x="815" y="370" on="0"/>
        <pt x="833" y="372" on="1"/>
        <pt x="872" y="372" on="1"/>
        <pt x="936" y="532" on="0"/>
        <pt x="1018" y="696" on="1"/>
        <pt x="992" y="693" on="0"/>
        <pt x="896" y="685" on="0"/>
        <pt x="836" y="679" on="0"/>
        <pt x="748" y="665" on="0"/>
        <pt x="690" y="646" on="0"/>
        <pt x="619" y="612" on="0"/>
        <pt x="595" y="590" on="1"/>
        <pt x="538" y="536" on="0"/>
        <pt x="514" y="458" on="1"/>
        <pt x="504" y="426" on="0"/>
        <pt x="504" y="354" on="0"/>
        <pt x="556" y="286" on="0"/>
        <pt x="599" y="286" on="1"/>
        <pt x="684" y="286" on="0"/>
        <pt x="720" y="384" on="1"/>
        <pt x="737" y="430" on="0"/>
        <pt x="737" y="467" on="0"/>
        <pt x="724" y="486" on="0"/>
        <pt x="734" y="488" on="1"/>
        <pt x="741" y="489" on="0"/>
        <pt x="746" y="480" on="1"/>
        <pt x="758" y="454" on="0"/>
        <pt x="758" y="394" on="0"/>
        <pt x="738" y="359" on="1"/>
        <pt x="704" y="297" on="0"/>
        <pt x="646" y="276" on="1"/>
        <pt x="618" y="266" on="0"/>
        <pt x="562" y="266" on="0"/>
        <pt x="534" y="278" on="1"/>
        <pt x="481" y="301" on="0"/>
        <pt x="456" y="356" on="1"/>
        <pt x="440" y="389" on="0"/>
        <pt x="440" y="449" on="0"/>
        <pt x="459" y="526" on="0"/>
        <pt x="515" y="606" on="0"/>
        <pt x="599" y="655" on="0"/>
        <pt x="683" y="687" on="0"/>
        <pt x="798" y="703" on="0"/>
        <pt x="883" y="711" on="0"/>
        <pt x="1003" y="717" on="0"/>
        <pt x="1032" y="720" on="1"/>
        <pt x="1043" y="739" on="0"/>
        <pt x="1088" y="794" on="0"/>
        <pt x="1120" y="803" on="0"/>
        <pt x="1129" y="803" on="1"/>
        <pt x="1166" y="803" on="0"/>
        <pt x="1166" y="740" on="0"/>
        <pt x="1084" y="698" on="0"/>
        <pt x="1048" y="698" on="1"/>
        <pt x="1021" y="646" on="0"/>
        <pt x="922" y="379" on="0"/>
        <pt x="919" y="372" on="1"/>
        <pt x="994" y="372" on="0"/>
        <pt x="1231" y="355" on="0"/>
        <pt x="1258" y="355" on="1"/>
        <pt x="1278" y="413" on="0"/>
      </contour>
      <contour>
        <pt x="1360" y="850" on="0"/>
        <pt x="1376" y="850" on="0"/>
        <pt x="1376" y="848" on="1"/>
        <pt x="1403" y="766" on="1"/>
        <pt x="1405" y="761" on="0"/>
        <pt x="1398" y="761" on="1"/>
        <pt x="1391" y="762" on="0"/>
        <pt x="1388" y="766" on="1"/>
        <pt x="1352" y="821" on="1"/>
        <pt x="1261" y="772" on="0"/>
        <pt x="1251" y="766" on="1"/>
        <pt x="1242" y="758" on="0"/>
        <pt x="1228" y="764" on="0"/>
        <pt x="1231" y="766" on="1"/>
        <pt x="1346" y="848" on="1"/>
      </contour>
      <contour>
        <pt x="1116" y="772" on="1"/>
        <pt x="1104" y="772" on="0"/>
        <pt x="1066" y="723" on="1"/>
        <pt x="1131" y="733" on="0"/>
        <pt x="1130" y="758" on="1"/>
        <pt x="1129" y="769" on="0"/>
        <pt x="1119" y="771" on="1"/>
        <pt x="1118" y="772" on="0"/>
      </contour>
    </TTGlyph>
    <TTGlyph name="I" xMin="-19" yMin="-157" xMax="1196" yMax="834">
      <contour>
        <pt x="1119" y="735" on="1"/>
        <pt x="1077" y="726" on="1"/>
        <pt x="1009" y="600" on="0"/>
        <pt x="954" y="404" on="1"/>
        <pt x="935" y="336" on="0"/>
        <pt x="857" y="169" on="0"/>
        <pt x="803" y="99" on="1"/>
        <pt x="604" y="-156" on="0"/>
        <pt x="294" y="-156" on="1"/>
        <pt x="150" y="-156" on="0"/>
        <pt x="65" y="-94" on="1"/>
        <pt x="7" y="-51" on="0"/>
        <pt x="-12" y="18" on="1"/>
        <pt x="-19" y="43" on="0"/>
        <pt x="-19" y="121" on="0"/>
        <pt x="22" y="228" on="0"/>
        <pt x="114" y="311" on="0"/>
        <pt x="141" y="313" on="1"/>
        <pt x="151" y="313" on="0"/>
        <pt x="153" y="310" on="1"/>
        <pt x="156" y="306" on="0"/>
        <pt x="142" y="299" on="1"/>
        <pt x="111" y="286" on="0"/>
        <pt x="73" y="240" on="1"/>
        <pt x="14" y="170" on="0"/>
        <pt x="14" y="82" on="1"/>
        <pt x="14" y="15" on="0"/>
        <pt x="57" y="-33" on="1"/>
        <pt x="111" y="-93" on="0"/>
        <pt x="210" y="-115" on="1"/>
        <pt x="254" y="-125" on="0"/>
        <pt x="300" y="-125" on="0"/>
        <pt x="349" y="-124" on="0"/>
        <pt x="389" y="-114" on="1"/>
        <pt x="472" y="-93" on="0"/>
        <pt x="624" y="1" on="0"/>
        <pt x="732" y="110" on="0"/>
        <pt x="778" y="176" on="1"/>
        <pt x="856" y="289" on="0"/>
        <pt x="896" y="398" on="1"/>
        <pt x="966" y="583" on="0"/>
        <pt x="1046" y="721" on="1"/>
        <pt x="887" y="688" on="0"/>
        <pt x="793" y="648" on="1"/>
        <pt x="697" y="606" on="0"/>
        <pt x="644" y="554" on="1"/>
        <pt x="578" y="487" on="0"/>
        <pt x="559" y="403" on="1"/>
        <pt x="553" y="379" on="0"/>
        <pt x="553" y="359" on="1"/>
        <pt x="553" y="317" on="0"/>
        <pt x="599" y="265" on="0"/>
        <pt x="652" y="265" on="0"/>
        <pt x="713" y="289" on="0"/>
        <pt x="736" y="317" on="1"/>
        <pt x="768" y="358" on="0"/>
        <pt x="768" y="414" on="1"/>
        <pt x="768" y="442" on="0"/>
        <pt x="760" y="449" on="1"/>
        <pt x="758" y="452" on="0"/>
        <pt x="762" y="458" on="1"/>
        <pt x="772" y="473" on="0"/>
        <pt x="781" y="458" on="1"/>
        <pt x="794" y="433" on="0"/>
        <pt x="794" y="374" on="0"/>
        <pt x="775" y="339" on="1"/>
        <pt x="741" y="275" on="0"/>
        <pt x="677" y="251" on="1"/>
        <pt x="645" y="239" on="0"/>
        <pt x="572" y="239" on="0"/>
        <pt x="488" y="305" on="0"/>
        <pt x="488" y="364" on="1"/>
        <pt x="488" y="382" on="0"/>
        <pt x="492" y="403" on="1"/>
        <pt x="549" y="660" on="0"/>
        <pt x="1062" y="747" on="1"/>
        <pt x="1071" y="766" on="0"/>
        <pt x="1118" y="822" on="0"/>
        <pt x="1151" y="833" on="0"/>
        <pt x="1162" y="833" on="1"/>
        <pt x="1195" y="833" on="0"/>
        <pt x="1196" y="805" on="1"/>
        <pt x="1196" y="775" on="0"/>
        <pt x="1172" y="759" on="1"/>
        <pt x="1150" y="745" on="0"/>
      </contour>
      <contour>
        <pt x="1094" y="751" on="1"/>
        <pt x="1162" y="765" on="0"/>
        <pt x="1159" y="789" on="1"/>
        <pt x="1157" y="801" on="0"/>
        <pt x="1134" y="801" on="0"/>
      </contour>
    </TTGlyph>
    <TTGlyph name="Iacute" xMin="-19" yMin="-255" xMax="1196" yMax="850">
      <contour>
        <pt x="1119" y="637" on="1"/>
        <pt x="1077" y="628" on="1"/>
        <pt x="1009" y="502" on="0"/>
        <pt x="954" y="306" on="1"/>
        <pt x="935" y="238" on="0"/>
        <pt x="857" y="71" on="0"/>
        <pt x="803" y="1" on="1"/>
        <pt x="604" y="-254" on="0"/>
        <pt x="294" y="-254" on="1"/>
        <pt x="150" y="-254" on="0"/>
        <pt x="65" y="-192" on="1"/>
        <pt x="7" y="-149" on="0"/>
        <pt x="-12" y="-80" on="1"/>
        <pt x="-19" y="-55" on="0"/>
        <pt x="-19" y="23" on="0"/>
        <pt x="22" y="130" on="0"/>
        <pt x="114" y="213" on="0"/>
        <pt x="141" y="215" on="1"/>
        <pt x="151" y="215" on="0"/>
        <pt x="153" y="212" on="1"/>
        <pt x="156" y="208" on="0"/>
        <pt x="142" y="201" on="1"/>
        <pt x="111" y="188" on="0"/>
        <pt x="73" y="142" on="1"/>
        <pt x="14" y="72" on="0"/>
        <pt x="14" y="-16" on="1"/>
        <pt x="14" y="-83" on="0"/>
        <pt x="57" y="-131" on="1"/>
        <pt x="111" y="-191" on="0"/>
        <pt x="210" y="-213" on="1"/>
        <pt x="254" y="-223" on="0"/>
        <pt x="300" y="-223" on="0"/>
        <pt x="349" y="-222" on="0"/>
        <pt x="389" y="-212" on="1"/>
        <pt x="472" y="-191" on="0"/>
        <pt x="624" y="-97" on="0"/>
        <pt x="732" y="12" on="0"/>
        <pt x="778" y="78" on="1"/>
        <pt x="856" y="191" on="0"/>
        <pt x="896" y="300" on="1"/>
        <pt x="966" y="485" on="0"/>
        <pt x="1046" y="623" on="1"/>
        <pt x="887" y="590" on="0"/>
        <pt x="793" y="550" on="1"/>
        <pt x="697" y="508" on="0"/>
        <pt x="644" y="456" on="1"/>
        <pt x="578" y="389" on="0"/>
        <pt x="559" y="305" on="1"/>
        <pt x="553" y="281" on="0"/>
        <pt x="553" y="261" on="1"/>
        <pt x="553" y="219" on="0"/>
        <pt x="599" y="167" on="0"/>
        <pt x="652" y="167" on="0"/>
        <pt x="713" y="191" on="0"/>
        <pt x="736" y="219" on="1"/>
        <pt x="768" y="260" on="0"/>
        <pt x="768" y="316" on="1"/>
        <pt x="768" y="344" on="0"/>
        <pt x="760" y="351" on="1"/>
        <pt x="758" y="354" on="0"/>
        <pt x="762" y="360" on="1"/>
        <pt x="772" y="375" on="0"/>
        <pt x="781" y="360" on="1"/>
        <pt x="794" y="335" on="0"/>
        <pt x="794" y="276" on="0"/>
        <pt x="775" y="241" on="1"/>
        <pt x="741" y="177" on="0"/>
        <pt x="677" y="153" on="1"/>
        <pt x="645" y="141" on="0"/>
        <pt x="572" y="141" on="0"/>
        <pt x="488" y="207" on="0"/>
        <pt x="488" y="266" on="1"/>
        <pt x="488" y="284" on="0"/>
        <pt x="492" y="305" on="1"/>
        <pt x="549" y="562" on="0"/>
        <pt x="1062" y="649" on="1"/>
        <pt x="1071" y="668" on="0"/>
        <pt x="1118" y="724" on="0"/>
        <pt x="1151" y="735" on="0"/>
        <pt x="1162" y="735" on="1"/>
        <pt x="1195" y="735" on="0"/>
        <pt x="1196" y="707" on="1"/>
        <pt x="1196" y="677" on="0"/>
        <pt x="1172" y="661" on="1"/>
        <pt x="1150" y="647" on="0"/>
      </contour>
      <contour>
        <pt x="1094" y="653" on="1"/>
        <pt x="1162" y="667" on="0"/>
        <pt x="1159" y="691" on="1"/>
        <pt x="1157" y="703" on="0"/>
        <pt x="1134" y="703" on="0"/>
      </contour>
      <contour>
        <pt x="977" y="729" on="1"/>
        <pt x="976" y="729" on="0"/>
        <pt x="971" y="732" on="0"/>
        <pt x="971" y="739" on="0"/>
        <pt x="975" y="745" on="0"/>
        <pt x="1028" y="785" on="0"/>
        <pt x="1090" y="828" on="0"/>
        <pt x="1118" y="849" on="0"/>
        <pt x="1145" y="849" on="0"/>
        <pt x="1166" y="839" on="0"/>
        <pt x="1166" y="824" on="0"/>
        <pt x="1163" y="818" on="1"/>
        <pt x="1158" y="806" on="0"/>
        <pt x="988" y="729" on="0"/>
      </contour>
    </TTGlyph>
    <TTGlyph name="Icircumflex" xMin="-19" yMin="-255" xMax="1239" yMax="850">
      <contour>
        <pt x="1119" y="637" on="1"/>
        <pt x="1077" y="628" on="1"/>
        <pt x="1009" y="502" on="0"/>
        <pt x="954" y="306" on="1"/>
        <pt x="935" y="238" on="0"/>
        <pt x="857" y="71" on="0"/>
        <pt x="803" y="1" on="1"/>
        <pt x="604" y="-254" on="0"/>
        <pt x="294" y="-254" on="1"/>
        <pt x="150" y="-254" on="0"/>
        <pt x="65" y="-192" on="1"/>
        <pt x="7" y="-149" on="0"/>
        <pt x="-12" y="-80" on="1"/>
        <pt x="-19" y="-55" on="0"/>
        <pt x="-19" y="23" on="0"/>
        <pt x="22" y="130" on="0"/>
        <pt x="114" y="213" on="0"/>
        <pt x="141" y="215" on="1"/>
        <pt x="151" y="215" on="0"/>
        <pt x="153" y="212" on="1"/>
        <pt x="156" y="208" on="0"/>
        <pt x="142" y="201" on="1"/>
        <pt x="111" y="188" on="0"/>
        <pt x="73" y="142" on="1"/>
        <pt x="14" y="72" on="0"/>
        <pt x="14" y="-16" on="1"/>
        <pt x="14" y="-83" on="0"/>
        <pt x="57" y="-131" on="1"/>
        <pt x="111" y="-191" on="0"/>
        <pt x="210" y="-213" on="1"/>
        <pt x="254" y="-223" on="0"/>
        <pt x="300" y="-223" on="0"/>
        <pt x="349" y="-222" on="0"/>
        <pt x="389" y="-212" on="1"/>
        <pt x="472" y="-191" on="0"/>
        <pt x="624" y="-97" on="0"/>
        <pt x="732" y="12" on="0"/>
        <pt x="778" y="78" on="1"/>
        <pt x="856" y="191" on="0"/>
        <pt x="896" y="300" on="1"/>
        <pt x="966" y="485" on="0"/>
        <pt x="1046" y="623" on="1"/>
        <pt x="887" y="590" on="0"/>
        <pt x="793" y="550" on="1"/>
        <pt x="697" y="508" on="0"/>
        <pt x="644" y="456" on="1"/>
        <pt x="578" y="389" on="0"/>
        <pt x="559" y="305" on="1"/>
        <pt x="553" y="281" on="0"/>
        <pt x="553" y="261" on="1"/>
        <pt x="553" y="219" on="0"/>
        <pt x="599" y="167" on="0"/>
        <pt x="652" y="167" on="0"/>
        <pt x="713" y="191" on="0"/>
        <pt x="736" y="219" on="1"/>
        <pt x="768" y="260" on="0"/>
        <pt x="768" y="316" on="1"/>
        <pt x="768" y="344" on="0"/>
        <pt x="760" y="351" on="1"/>
        <pt x="758" y="354" on="0"/>
        <pt x="762" y="360" on="1"/>
        <pt x="772" y="375" on="0"/>
        <pt x="781" y="360" on="1"/>
        <pt x="794" y="335" on="0"/>
        <pt x="794" y="276" on="0"/>
        <pt x="775" y="241" on="1"/>
        <pt x="741" y="177" on="0"/>
        <pt x="677" y="153" on="1"/>
        <pt x="645" y="141" on="0"/>
        <pt x="572" y="141" on="0"/>
        <pt x="488" y="207" on="0"/>
        <pt x="488" y="266" on="1"/>
        <pt x="488" y="284" on="0"/>
        <pt x="492" y="305" on="1"/>
        <pt x="549" y="562" on="0"/>
        <pt x="1062" y="649" on="1"/>
        <pt x="1071" y="668" on="0"/>
        <pt x="1118" y="724" on="0"/>
        <pt x="1151" y="735" on="0"/>
        <pt x="1162" y="735" on="1"/>
        <pt x="1195" y="735" on="0"/>
        <pt x="1196" y="707" on="1"/>
        <pt x="1196" y="677" on="0"/>
        <pt x="1172" y="661" on="1"/>
        <pt x="1150" y="647" on="0"/>
      </contour>
      <contour>
        <pt x="1094" y="653" on="1"/>
        <pt x="1162" y="667" on="0"/>
        <pt x="1159" y="691" on="1"/>
        <pt x="1157" y="703" on="0"/>
        <pt x="1134" y="703" on="0"/>
      </contour>
      <contour>
        <pt x="1040" y="741" on="1"/>
        <pt x="1033" y="735" on="0"/>
        <pt x="1013" y="735" on="0"/>
        <pt x="1013" y="740" on="0"/>
        <pt x="1015" y="741" on="1"/>
        <pt x="1164" y="847" on="1"/>
        <pt x="1182" y="850" on="0"/>
        <pt x="1202" y="850" on="0"/>
        <pt x="1202" y="847" on="1"/>
        <pt x="1238" y="741" on="1"/>
        <pt x="1239" y="740" on="0"/>
        <pt x="1239" y="735" on="0"/>
        <pt x="1221" y="735" on="0"/>
        <pt x="1218" y="741" on="1"/>
        <pt x="1172" y="812" on="1"/>
        <pt x="1053" y="748" on="0"/>
      </contour>
    </TTGlyph>
    <TTGlyph name="Idieresis" xMin="-19" yMin="-255" xMax="1267" yMax="844">
      <contour>
        <pt x="1119" y="637" on="1"/>
        <pt x="1077" y="628" on="1"/>
        <pt x="1009" y="502" on="0"/>
        <pt x="954" y="306" on="1"/>
        <pt x="935" y="238" on="0"/>
        <pt x="857" y="71" on="0"/>
        <pt x="803" y="1" on="1"/>
        <pt x="604" y="-254" on="0"/>
        <pt x="294" y="-254" on="1"/>
        <pt x="150" y="-254" on="0"/>
        <pt x="65" y="-192" on="1"/>
        <pt x="7" y="-149" on="0"/>
        <pt x="-12" y="-80" on="1"/>
        <pt x="-19" y="-55" on="0"/>
        <pt x="-19" y="23" on="0"/>
        <pt x="22" y="130" on="0"/>
        <pt x="114" y="213" on="0"/>
        <pt x="141" y="215" on="1"/>
        <pt x="151" y="215" on="0"/>
        <pt x="153" y="212" on="1"/>
        <pt x="156" y="208" on="0"/>
        <pt x="142" y="201" on="1"/>
        <pt x="111" y="188" on="0"/>
        <pt x="73" y="142" on="1"/>
        <pt x="14" y="72" on="0"/>
        <pt x="14" y="-16" on="1"/>
        <pt x="14" y="-83" on="0"/>
        <pt x="57" y="-131" on="1"/>
        <pt x="111" y="-191" on="0"/>
        <pt x="210" y="-213" on="1"/>
        <pt x="254" y="-223" on="0"/>
        <pt x="300" y="-223" on="0"/>
        <pt x="349" y="-222" on="0"/>
        <pt x="389" y="-212" on="1"/>
        <pt x="472" y="-191" on="0"/>
        <pt x="624" y="-97" on="0"/>
        <pt x="732" y="12" on="0"/>
        <pt x="778" y="78" on="1"/>
        <pt x="856" y="191" on="0"/>
        <pt x="896" y="300" on="1"/>
        <pt x="966" y="485" on="0"/>
        <pt x="1046" y="623" on="1"/>
        <pt x="887" y="590" on="0"/>
        <pt x="793" y="550" on="1"/>
        <pt x="697" y="508" on="0"/>
        <pt x="644" y="456" on="1"/>
        <pt x="578" y="389" on="0"/>
        <pt x="559" y="305" on="1"/>
        <pt x="553" y="281" on="0"/>
        <pt x="553" y="261" on="1"/>
        <pt x="553" y="219" on="0"/>
        <pt x="599" y="167" on="0"/>
        <pt x="652" y="167" on="0"/>
        <pt x="713" y="191" on="0"/>
        <pt x="736" y="219" on="1"/>
        <pt x="768" y="260" on="0"/>
        <pt x="768" y="316" on="1"/>
        <pt x="768" y="344" on="0"/>
        <pt x="760" y="351" on="1"/>
        <pt x="758" y="354" on="0"/>
        <pt x="762" y="360" on="1"/>
        <pt x="772" y="375" on="0"/>
        <pt x="781" y="360" on="1"/>
        <pt x="794" y="335" on="0"/>
        <pt x="794" y="276" on="0"/>
        <pt x="775" y="241" on="1"/>
        <pt x="741" y="177" on="0"/>
        <pt x="677" y="153" on="1"/>
        <pt x="645" y="141" on="0"/>
        <pt x="572" y="141" on="0"/>
        <pt x="488" y="207" on="0"/>
        <pt x="488" y="266" on="1"/>
        <pt x="488" y="284" on="0"/>
        <pt x="492" y="305" on="1"/>
        <pt x="549" y="562" on="0"/>
        <pt x="1062" y="649" on="1"/>
        <pt x="1071" y="668" on="0"/>
        <pt x="1118" y="724" on="0"/>
        <pt x="1151" y="735" on="0"/>
        <pt x="1162" y="735" on="1"/>
        <pt x="1195" y="735" on="0"/>
        <pt x="1196" y="707" on="1"/>
        <pt x="1196" y="677" on="0"/>
        <pt x="1172" y="661" on="1"/>
        <pt x="1150" y="647" on="0"/>
      </contour>
      <contour>
        <pt x="1094" y="653" on="1"/>
        <pt x="1162" y="667" on="0"/>
        <pt x="1159" y="691" on="1"/>
        <pt x="1157" y="703" on="0"/>
        <pt x="1134" y="703" on="0"/>
      </contour>
      <contour>
        <pt x="1248" y="844" on="0"/>
        <pt x="1267" y="826" on="0"/>
        <pt x="1267" y="797" on="0"/>
        <pt x="1249" y="778" on="0"/>
        <pt x="1220" y="778" on="0"/>
        <pt x="1201" y="796" on="0"/>
        <pt x="1201" y="825" on="0"/>
        <pt x="1219" y="844" on="0"/>
      </contour>
      <contour>
        <pt x="1119" y="844" on="0"/>
        <pt x="1138" y="826" on="0"/>
        <pt x="1138" y="797" on="0"/>
        <pt x="1120" y="778" on="0"/>
        <pt x="1091" y="778" on="0"/>
        <pt x="1072" y="796" on="0"/>
        <pt x="1072" y="825" on="0"/>
        <pt x="1090" y="844" on="0"/>
      </contour>
    </TTGlyph>
    <TTGlyph name="Idotaccent" xMin="-19" yMin="-254" xMax="1196" yMax="850">
      <contour>
        <pt x="1119" y="638" on="1"/>
        <pt x="1077" y="629" on="1"/>
        <pt x="1009" y="503" on="0"/>
        <pt x="954" y="307" on="1"/>
        <pt x="935" y="239" on="0"/>
        <pt x="857" y="72" on="0"/>
        <pt x="803" y="2" on="1"/>
        <pt x="604" y="-253" on="0"/>
        <pt x="294" y="-253" on="1"/>
        <pt x="150" y="-253" on="0"/>
        <pt x="65" y="-190" on="1"/>
        <pt x="7" y="-148" on="0"/>
        <pt x="-12" y="-78" on="1"/>
        <pt x="-19" y="-54" on="0"/>
        <pt x="-19" y="24" on="0"/>
        <pt x="22" y="131" on="0"/>
        <pt x="114" y="214" on="0"/>
        <pt x="141" y="216" on="1"/>
        <pt x="151" y="216" on="0"/>
        <pt x="153" y="214" on="1"/>
        <pt x="156" y="209" on="0"/>
        <pt x="142" y="202" on="1"/>
        <pt x="111" y="189" on="0"/>
        <pt x="73" y="144" on="1"/>
        <pt x="14" y="73" on="0"/>
        <pt x="14" y="-15" on="1"/>
        <pt x="14" y="-82" on="0"/>
        <pt x="57" y="-130" on="1"/>
        <pt x="111" y="-190" on="0"/>
        <pt x="210" y="-212" on="1"/>
        <pt x="254" y="-222" on="0"/>
        <pt x="300" y="-222" on="0"/>
        <pt x="349" y="-221" on="0"/>
        <pt x="389" y="-211" on="1"/>
        <pt x="472" y="-190" on="0"/>
        <pt x="624" y="-96" on="0"/>
        <pt x="732" y="13" on="0"/>
        <pt x="778" y="80" on="1"/>
        <pt x="856" y="192" on="0"/>
        <pt x="896" y="301" on="1"/>
        <pt x="966" y="486" on="0"/>
        <pt x="1046" y="624" on="1"/>
        <pt x="887" y="591" on="0"/>
        <pt x="793" y="550" on="1"/>
        <pt x="697" y="509" on="0"/>
        <pt x="644" y="456" on="1"/>
        <pt x="578" y="390" on="0"/>
        <pt x="559" y="306" on="1"/>
        <pt x="553" y="282" on="0"/>
        <pt x="553" y="262" on="1"/>
        <pt x="553" y="220" on="0"/>
        <pt x="599" y="168" on="0"/>
        <pt x="652" y="168" on="0"/>
        <pt x="713" y="192" on="0"/>
        <pt x="736" y="220" on="1"/>
        <pt x="768" y="261" on="0"/>
        <pt x="768" y="317" on="1"/>
        <pt x="768" y="345" on="0"/>
        <pt x="760" y="352" on="1"/>
        <pt x="758" y="355" on="0"/>
        <pt x="762" y="361" on="1"/>
        <pt x="772" y="376" on="0"/>
        <pt x="781" y="361" on="1"/>
        <pt x="794" y="336" on="0"/>
        <pt x="794" y="277" on="0"/>
        <pt x="775" y="242" on="1"/>
        <pt x="741" y="178" on="0"/>
        <pt x="677" y="154" on="1"/>
        <pt x="645" y="142" on="0"/>
        <pt x="572" y="142" on="0"/>
        <pt x="488" y="208" on="0"/>
        <pt x="488" y="267" on="1"/>
        <pt x="488" y="285" on="0"/>
        <pt x="492" y="306" on="1"/>
        <pt x="549" y="563" on="0"/>
        <pt x="1062" y="650" on="1"/>
        <pt x="1071" y="669" on="0"/>
        <pt x="1118" y="725" on="0"/>
        <pt x="1151" y="736" on="0"/>
        <pt x="1162" y="736" on="1"/>
        <pt x="1195" y="736" on="0"/>
        <pt x="1196" y="708" on="1"/>
        <pt x="1196" y="678" on="0"/>
        <pt x="1172" y="662" on="1"/>
        <pt x="1150" y="648" on="0"/>
      </contour>
      <contour>
        <pt x="1094" y="654" on="1"/>
        <pt x="1162" y="668" on="0"/>
        <pt x="1159" y="692" on="1"/>
        <pt x="1157" y="704" on="0"/>
        <pt x="1134" y="704" on="0"/>
      </contour>
      <contour>
        <pt x="1109" y="850" on="1"/>
        <pt x="1133" y="850" on="0"/>
        <pt x="1133" y="820" on="1"/>
        <pt x="1133" y="805" on="0"/>
        <pt x="1103" y="774" on="0"/>
        <pt x="1062" y="774" on="0"/>
        <pt x="1062" y="794" on="1"/>
        <pt x="1062" y="811" on="0"/>
        <pt x="1093" y="850" on="0"/>
      </contour>
    </TTGlyph>
</ttFont>
